<svg viewBox="0 0 629.7 488.1" xmlns="http://www.w3.org/2000/svg"><path d="m623.8 90.2c-3.4 1.6-7.6 7.2-11.4 6-1.3-2.2-5-4.5-4.7-7.3 2.5-3 6.5-4.7 9.7-7l-3.4-4.5a240.2 240.2 0 0 0 -46.6 37.7l-43.2-58.4a211 211 0 0 1 44.6-37.7l-3.3-4.2c-7.8 4.4-9.3 10.8-15.2.3-.6-.6.2-1.8.9-2.3 8.5-7 10.8-3 3-12.8a232.6 232.6 0 0 0 -39 31.9c-40.2 45.3 9.8 62.1-65.2 130.4l-8.4 7.6 11.8 17.7a363.8 363.8 0 0 0 26.4-25.3l37.6 54.7a589.6 589.6 0 0 1 -81.6 65.4l-7-11.2c13.4-11.4 30.8-20.7 44-31.9 10.1-9.6 9.2-9.6 1.8-19.8-2.1-1.7-5.1-7-5.5-7.5-1.2-1.7-.2-1 .5-.2-1.9-3-3.9-6.6-8-6.5l-10.4-15.8a52315.6 52315.6 0 0 0 -28-42c1.8.4 4 1 5 2.5-.3-1-12.2-16-8-12-2.4-3-4.8-9.3-9.7-9.3-19.7-1.5-38.8 6.1-57.8 12.7-66.5 24.6-103 62.1-141.8 119.8-13.6 19.1-27.3 38.4-43 56l-21-40.5-1.7-3.3c-6.4-8-18.8-4.3-28.1-2.8-35.4 5.5-126.1 69.4-116.4 108.4 5.8 13 29.7 67.8 36 81.6 5.7 10.5 6.9 27.8 23 27.5 47.6-.9 95.2-23.1 132.4-52 40.2-32 69.4-74.9 103.4-112.8 16.8-18.7 35-35.7 56.2-49.2l26.7 44.2 5.7 9.6c6.7 6 17.4-1 24.6-3.6 44.3-23.3 133.5-84.1 151.6-129.6 6.3-15.6 3.8-32.2 12.7-46.8 13.5-21.4 34.4-34.9 56.6-50.1zm-91.2-62.2c.6-1.8 7.2-7.3 9.1-7.2.7.6 5.4 6 5 7.1-1.2 1.4-8.1 8.3-9.5 6.7-.2-.4-5-6.3-4.6-6.6zm-73.4 148c-2 1.5-5.8 7.1-8.2 6 0-.2-4-5.7-3.7-5.8-.2-1.2 7.6-8.8 8.3-7 .4 1 4.9 5.7 3.6 6.9zm-23.4 79c-8 5.7-6.2 6.6-11.5-2-.7-2.4 3.4-3.5 4.8-5.1 1-.6 2.3-2.1 3.3-.9.4 1.3 5.7 6.7 3.4 8zm-2.6-16.3c-6.3 4.4-12.4 9-18.3 13.8l-5.6-8.8c10.7-4 53.2-22.6 23.9-5zm-10.8 26.3c-7.6 6.6-5.7 7.1-11-1.4-.8-2.3 2.9-3.6 4.2-5.1.8-.6 2-2.2 3-1 .3 1.1 5 6.4 3.8 7.5zm-12.2 10.6c-1.5 1-4.6 6-6.3 4.4-.3-.6-4.3-6.3-4-7 .7-1.6 2.6-2.7 3.8-4 .7-.7 1.8-2.1 2.7-.9.3 1 4.8 6.3 3.8 7.5zm-1.8-41.3c-1.8.4-4.2 2.7-5.8 1l-4-6.3c-.7-1.5 1.6-1.9 2.6-2.4 2.2-.5 5.3-3.5 7.4-1.7l4 6.3c.7 2.1-3 2.2-4.3 3zm7.2-12.6c.3-1.6 2.8-1.5 4-2.2 1.7-.4 4-2.2 5.3-.5l4 6.2c.5 2.6-5.3 2.6-7.1 3.9-.8.2-1.6 0-2-.6-.1-.2-4.5-6.6-4.2-6.8zm15.5-5.3c.2-1.4 2.5-1.2 3.6-1.8 1.5-.2 3.4-1.6 4.6 0l4 6.2c.8 2.3-4.6 2-6 3-.8.2-1.6 0-2-.7 0-.1-4.5-6.6-4.2-6.7zm20.5 27.7c-2.3 1-6.8 6.2-9 4.5-.3-1.3-5.7-6.6-3.3-7.9 2.3-1 7.1-6.2 9.3-4.7l3.9 6c.4.7 0 1.5-.9 2.1zm22.4-18.8c-1.7 2.8-2.4 3.2-4.1 0zm-15.6-15.3c.4-.7 1.9-.3 2.7-.5l3 .1c1 .2 1.7 1.5 2.2 2.3.4.7 3.2 4.6 3.5 5.3.4 1-.8.6-1.4.6h-3.9c-.8 0-1.6-.4-2-1-.1-.4-4.6-6.5-4.1-6.8zm-.8 18c1.6-1.6 4.2-1.4 6.3-2 .3.7 3.7 5.2 3.4 6-.9 1.4-6.1 6.7-7.7 5l-4-6c-.7-1.4 1.1-2.4 2-3.1zm-1.8-9.7c-.7 1.8-4.1 1.4-5.8 2-1.5-.3-4.7-6.4-5.5-7.6.3-1.6 3.8-1.2 5.2-1.8 2-.4 5.1 6.2 6 7.4zm-46.8-82.7c.1-.5 1.6-.3 2-.3 1.2 0 2.4 0 3.6.3 1.7.4 4.6 6 5.5 7.2.4.9-1 .3-1.4.3h-4c-1.1 0-2-1.1-2.4-2-.2-.4-3.7-5-3.3-5.5zm-13.8 2c.2-1 2-.7 2.9-1 4.6-1.9 5.5 3.5 7.8 6.2.5 2.1-3.7 1.2-5 2-.7 0-1.3-.3-1.7-.8-.1-.3-4.3-6.2-4-6.4zm-13.2 3.2c0-.8 1.5-.9 2-1 7.1-2.8 6.2.7 9.8 5.4 1 2-4.8 2-6 2.8-.7.1-1.5-.2-1.9-.7 0-.4-4.2-6.1-4-6.5zm-15.2 4.8c1.1-1.6 3.8-1.5 5.6-2.4 1-.3 2.6-1.1 3.5.1l3.8 5.9c1.6 1.3-8.9 4.6-9 3-.1-.4-4.4-6.4-4-6.6zm-16.8 6.4c1.7-2.1 5.4-2.4 7.8-3.7 2.3-1.3 4.7 5.4 5.8 6.4 1.6 1.3-9.5 5.6-9.8 3.9 0-.3-4.3-6.4-3.8-6.6zm15 8.7a188.1 188.1 0 0 1 51.6-13.5l8.1 12.2c6.5 10 15.9 23.8 22.3 33.6l8.2 12.3c-17.7 2-35.3 8.3-52.3 14.9-10.6 4.3-21.2 9-31.4 14.2l-12.4-20-24.8-40c9.8-5 20.6-9.8 30.7-13.7zm29.1 79.7c-5.4 1.9-7 6.2-10.3-.7-.2-.5-2.4-3.2-2.1-3.8 0-1 8.8-5.4 9.2-3.5.9 1.2 3.2 5 4 6.3.4.7 0 1.3-.8 1.7zm-15.4 7.5c-2.4 1-4.7 3-7.2 3.4-1 0-2-2.5-2.5-3-.4-1.2-4-4.7-1.8-5.7 2-.6 6-4 7.7-3.2.4 0 2.5 3.8 2.7 4 .4 1.1 3 3.6 1.1 4.5zm-45-88.7c.4-1.1 8.4-5.1 9-3.4.2.6 4.5 6.3 3.8 6.9-1.3 1-7.9 4.9-9 3.1 0-.3-4.2-6.3-3.7-6.6zm-14 6.5c8.4-4.6 6.7-4.7 11.6 3.2.7 2.2-3.1 2.5-4.4 3.6-1.2.5-3 2.3-4.1.9-.2-1.2-5.5-6.8-3-7.7zm-15.2 9.5c.7-2 3.5-2.5 5.1-3.7 1-.6 2.5-1.8 3.3-.6l3.7 6c.8 2-6 4.9-7.6 5.5-.3-.1-.5-.3-.7-.6-.1-.2-4.2-6.4-3.8-6.6zm-14 9.2c.5-1.3 7-6.5 8-4.7.3 1 4.8 6.3 3.6 7.4-1.6.8-6.5 5.8-7.8 4-.1-.4-4.2-6.4-3.7-6.7zm-12.9 10.1c.6-2 3-3 4.5-4.3.8-.6 2-2.1 3-.9l3.5 6c.3 2.8-4.4 4.4-6.1 6.3-.5.2-1 0-1.2-.4-.1-.3-4-6.5-3.7-6.7zm-10.1 9c.4-1 4.3-5.7 5.2-3.9.2.6 4 6.3 3.7 7-.4.9-4.4 5.6-5.2 3.8-.3-.7-4-6.3-3.7-7zm-8.6 8.8c5.4-8.1 4.8-4 8.6 1.7.8 1.7-1 2.5-1.9 3.6-.9.6-2 3.1-3 1.6-.3-.7-4-6.3-3.7-7zm-8 8.5c1.2-.8 3.3-5.4 4.6-3.6.3.8 4.2 6.2 3.6 7-.3 1.2-1.6 2.1-2.3 3.1-.7.6-1.6 2.7-2.5 1.2-.4-1.2-4.7-6.4-3.4-7.7zm-55.1 165.3c5.3-8.2 1.4-12.1-2.1-19l-6.6-12.6-9.6-18.6 2.4-2.7c46-51.4 19.1-52.5 62.8 19.5a503.6 503.6 0 0 1 -44.7 49.7l-5.7-11zm-4.4-14.4c2.5.3 3.3.6 2 3-.6.6-1.6-2.6-2-3zm-28 18.2c-19.1 14.7-12.5 18.1-23.5-3.6a145.9 145.9 0 0 1 39.3-13.8c-.1 4-10.7 12.1-15.7 17.4zm13 6c0 2-2.5 3-3.6 4.4-.7.6-1.7 2-2.5.7 0-.2-3.4-6.7-3.3-6.8 0-2 2.5-2.9 3.6-4.3.7-.6 1.7-2 2.4-.7 0 .2 3.5 6.7 3.3 6.8zm-10.6 9.6c.2 1.3-6 6.8-6.8 4.9 0-.5-3.6-6.8-3.2-7.1.9-2.1 3.7-3.2 5.3-4.9.5-.4 1-.3 1.4.3 0 0 3.6 7 3.3 6.8zm-12.1 10.5c-7.9 5.8-5.6 4-9.6-3.3-.6-2 2.2-2.5 3.3-3.7.9-.4 2.7-2.8 3.6-1.1.2 1.3 4.6 7 2.7 8zm-14.1-39.6c-3.2 2.3-3.7-.5-4.9-2.9l-1.7-3.5c-.7-2.1 2.5-2.4 3.8-3.3 1.4-.4 3.5-2.3 4.7-.7l3.3 6.6c.5 2.4-3.7 2.6-5.2 3.8zm9.7-14.9c9.4-3.5 7.5-3.3 11.8 5.1.6 2-2.8 1.9-4 2.6-1.6.3-4 2.3-5.2.6l-3.3-6.5c-.4-.7-.1-1.4.7-1.8zm16.6-4.9 1.8-.4c2.1 0 5.2-2 6.8.1l3.4 6.7c.3 1.9-2.8 1.1-4 1.7-1.7 0-4.3 1.7-5.6 0 0-1.1-5.3-7.9-2.4-8zm14.6-1.7c1.7.2 4-.1 5 1.3l3.7 7c.2.3.4 1-.1 1-1.9-.9-4.4.2-5.6-1.7 0-.6-5-7.7-3-7.6zm-3.6 29.5c0-1.7 2-2.6 2.9-4 .5-.6 1.3-2 2-.6l3.2 6.3c.8 2.4-2.4 4.2-3.8 5.9-1 .7-4.2-7-4.3-7.6zm7.8-8.4c-.7-2 1.3-4.9 3.4-4.5.3 1.2 4 6.5 3.2 7.7-.9.8-2 5-3.3 3zm30.3-87c13.8-18.8 27.4-37.8 42.6-55.5l34.4 60c-15.3 16.5-29.3 34.3-43.4 52-1.6 10-32.4-58-33.6-56.5zm27.7-57.7c5-8.4 4.4-4.8 8.2 1.3.8 2.3-2.4 4-3.4 5.8-.4.5-1 .4-1.3-.2-.2-.6-3.8-6.2-3.5-6.9zm-7.9 10.1c4.8-8.5 4.3-5.2 8 1 1.3 1-3.7 8-4.5 6-.2-.7-3.8-6.3-3.5-7zm-7.7 10.4c4.6-8.6 4.2-5.4 7.9 1 .7 2.1-2.4 5-3.8 6.3-1-.6-4-6.2-4.1-7.3zm-7.3 9.6c5-8 3.9-3.7 7.5 1.7.8 1.5-1 2.8-1.6 4-.8.6-1.7 3.5-2.8 2-.4-1.3-4.4-6.4-3.1-7.7zm-7.7 11.1c4.6-8.6 3.9-5 7.6 1 .8 2.4-2.2 4-3.1 6-.4.4-.8.4-1.1-.2-.3-.7-3.7-6.1-3.4-6.8zm-7 9.1c1-.7 3-5.7 4.1-3.9 3.1 6.4 5.5 6.1-.4 12-.6.2-3.4-6-3.7-6.3a2 2 0 0 1 0-1.8zm-7.5 10.7c4.5-8.4 4-4.8 7.5 1.1.8 2.3-2.2 4-3.1 5.8-.4.5-.8.4-1.1-.2s-3.6-6-3.3-6.7zm-7.4 9.7c.3-1 3.6-6.4 4.4-4.6.3 1.2 4.3 6.2 3 7.6-1.1.8-2.8 5.3-4.2 3.7-.2-.7-3.5-6-3.2-6.7zm-7.6 9.4c4.8-8 4.1-4.6 7.6 1.3.7 2.3-2.2 3.8-3.2 5.6-.4.5-.9.4-1.2-.2-.2-.6-3.4-6-3.2-6.7zm-7.8 9.2c5-7.8 4.3-4.5 7.7 1.4.8 1.8-2.7 5-4 5.8-.8-.6-3.6-6.2-3.7-7.2zm-35-44.6c2 .4 4.5.2 5.4 2.1.6 1.2 2.9 5.3 3.3 6.5.2.8-.8.2-1.2.1-1.6-.5-3.7 0-4.7-1.6 0-.6-4.6-7.2-2.7-7zm-14.4 1c9-1.7 7.6-1.6 11.6 6.2.5 1.9-2.8 1-4 1.5-1.6 0-4.3 1.5-5.4-.1 0-1-5-7.4-2.2-7.5zm-16.8 4.7c9-3.4 7.7-4 12 4.5.4 2-2.8 1.7-4 2.4-1.6.3-4 2.2-5.1.5-.1-.9-4.3-6.7-2.8-7.4zm-14.8 6.1c8.6-4.2 6.7-4 10.8 4 .6 1.9-2.4 2.1-3.5 2.9-1.5.3-3.6 2.6-4.8 1-.1-1.2-4.7-7-2.5-7.9zm3.7 14.2c15.9-7.6 34.2-15.3 52-12.8l25.4 49.5 6 11.8c-16-1.5-32 5.2-46.5 11.4-6.4 3-12.6 6.2-18.7 9.8l-5.2 3.1-.7-1.6-11.1-22.8-18.7-38.4c5.7-3.5 11.5-6.8 17.5-9.8zm32.4 79.2c-8.6 5.2-6.3 3.7-10.5-4-.7-2 2.2-2.5 3.3-3.4 1.4-.5 3.5-2.8 4.6-.9l2 4c.3 1.1 2.3 3.5.6 4.3zm-13.5 7.8c-1.6.6-6 5-7.1 3-.2-.7-3.8-7-3.2-7.7 1-1.5 3.1-2.3 4.6-3.4 1-.6 2.3-1.8 3-.2l2 4c.4 1.2 2.3 3.4.7 4.3zm-13.2 8.7c-8 6.1-6 4.4-10-3.3-.6-2.5 3-3.3 4.4-4.7.9-.6 2.2-2 3-.6.4 1.8 4.6 7.3 2.6 8.6zm-23-102.6c8.5-5.4 6.6-4.3 10.6 3.8-.1 1.6-2.3 1.8-3.4 2.7-1.2.4-3.1 2.7-4.2 1-.2-.9-4.1-6.6-3-7.5zm-13 8.4c7.8-6.3 6.4-5.6 10.4 2.5.3 2.7-4.1 3.5-5.8 5.2-.6.4-1.2.2-1.5-.4-.2-.7-3.6-6.6-3-7.3zm-11.8 8.2c7.6-6 5.6-4.7 9.5 2.9 1.4 1-6.8 7.3-7 5.2-.2-1.3-4.5-6.9-2.5-8zm-11.6 9.5c7.2-6.6 5.3-4.6 9 2.6.7 1.8-1.7 2.7-2.7 3.8-1.1.6-2.7 3.3-3.8 1.7-.2-1.4-4.3-6.8-2.5-8zm-10.6 9.8c6.8-7 4.8-4.3 8.5 2.5.5 2.6-3.3 4-4.6 5.9-1.5 1.7-3.6-6-4.2-6.5-.2-.7-.1-1.4.3-1.9zm8 10.9c9.8-9.3 20.8-18 32-25.7l11 22.8 18.2 37.9 1.2 2.3c-5.8 4-11.7 8-17.2 12.3a215.7 215.7 0 0 0 -40.1 39c-1.5-3-10.8-24-12-26.5l-16-35.8c6.6-9.6 14.2-18 23-26.3zm50 63.6c-.2 2.1-3 3-4.2 4.3-.8.7-2 2-2.8.7l-3-6.7c-.8-2.1 4.4-5.3 6-6 1 .2 3.7 6.9 4 7.7zm-12.2 11c-7.3 7.1-5 3.8-9-3-1.3-1.1 5.3-7 6-6 .2 0 3.3 6.9 3.4 7 .3.7.1 1.5-.4 2zm-10.5 9.6c-6.6 7.4-4.4 3.4-8.2-3-.7-2.3 2-3.4 3.1-4.9.6-.5 1.2-1.7 2-1 .6 1.3 4.6 7.6 3.1 9zm-23 15c-.8-2 1.3-3.3 2.2-4.9.3-.7 1-.9 1.4 0 .2.7 3.3 7 3.1 7.6-.3 1.6-2 3-2.7 4.3-1 1.3-3.5-6.7-4-7zm2.7 26c-1.3-.1-1.3-.5-.7-1.6zm3.9-34.7c-.7-2.5 2.3-4.4 3.7-6 1-.4 3.4 6.8 3.8 7.3.8 2-1.7 3.2-2.6 4.7-.5.7-1.4 1.9-2 .6l-3-6.6zm-28.4-91.1c6-8 4.6-4.4 8 2 .6 2.1-2 3.3-3.1 4.9-.5.6-1.4 2-2 .7-.3-1-3.8-6.6-2.9-7.6zm-7.7 9.1c1.2-1 2.3-3.9 3.8-4 .4-.2 3 6.4 3.2 6.6.7 1.6-1 2.7-1.7 3.8-.8.6-1.6 3.3-2.6 1.7-.3-1.3-3.8-6.8-2.7-8zm-6.2 9.3c.5-.7 2.3-5 3.2-3.7l3 6.4c.5 1.5-.6 2.5-1.3 3.7-.7.7-1.2 3-2 1.4-.4-1.2-3.6-6.6-2.9-7.8zm-4.3 8.4c.5-.6 1.2-4 2.1-3.4.5 1.4 3.7 6.8 3.1 8.3-.6.6-1.4 4.8-2.3 3-.3-1.2-3.4-6.7-3-7.9zm1.2 24.1c-1-2.1-2.7-5.8-3.6-8.2-.5-3-.7-4.5.9-.7 1.3 2.5 2.6 6.3 2.7 8.9zm.8-11.1c-.5 1-.5 2.7-1 3.7-.4 0-2.9-6.4-3.1-6.7-.8-1.7 0-3.5.4-5.3 0-.1.2-.3.3-.2a27 27 0 0 1 3.4 8.5zm28.2 69.9-.3 1.6-27-61.2c.5-6.8 2.8-11 6.9-18.5l7.2 16 20.5 46.4a47.4 47.4 0 0 0 -7.4 15.9zm5.7 20c-1.3-3.4-4.3-7.9-4-11.6.4.2 1.7 3.7 2 4.2 1.1 2.2 2 5 2 7.3zm1.3-10.5c-.5 1.2-.7 2.4-1.1 3.5-.5.3-3.1-6.8-3.4-7.1-.9-1.8.1-3.3.6-5 0-.2.2-.3.4-.2.7 1.5 3.6 7.1 3.5 8.8zm1.7-4.2c-.3 0-.5-.3-.6-.6-.3-1.2-3.7-7-3-8.3.4-.6 1.3-4 2.2-3.2.2 0 3.1 6.8 3.2 7 .7 2-1 3.7-1.8 5.1zm5.4 22.8c-3-.4-4-3-5-5.5.2-1.7.8-4.7 2.3-1.7 0 .4 3.8 7.3 2.7 7.2zm8.8 1c-.6.9-3.5 0-4.5 0-1-.7-3.3-6.8-3.8-7.9-.1-1.1 2-.1 2.7-.2 1 0 2.1-.1 2.7 1.2 0 .3 3.2 6.8 3 7zm10.5 0c-2-.1-4.9 1.4-6.2-.6 0-.3-3.1-6.8-2.9-6.9.4-1 2-.4 3-.6 1.3 0 3-.8 3.9.7 0 .8 4.2 7.2 2.2 7.4zm13.4-2c-2.3 0-5.7 2.2-7.4.1 0-.3-3.1-6.6-2.8-6.8.5-1.2 2.4-.7 3.5-1.1 1.5 0 3.7-1.4 4.7.2 0 1 4.4 7.2 2 7.5zm15.8-4c-8.8 2.5-7.6 3.5-11.4-5a1 1 0 0 1 .1-.9c1.3-.6 9-3.4 9.4-1.6l2.8 6.1c.4 1-.2 1.3-.9 1.5zm15.7-4.7c-8.5 3-7.3 3.3-10.9-4.7a.9.9 0 0 1 0-.7c.5-1 8.5-3.9 8.7-2.2.1 1.1 4.6 7 2.2 7.6zm15-6c-1.3 1-7 4-8 2.2-.1-.3-3.4-6.5-3-6.7.6-1 6.9-3.6 7.8-2.8.5.7 3.6 6.4 3.2 7.3zm-2-47.7c-7.9 4-16.5 8.1-25.4 8.2 2.1 4.5 1.4 5.2 6.8 4.1 2.8.6 3.4 5.3 4.7 7.5-.1 2-3.8 1.2-5.3 1.5l3.6 7.7c5 0 10-1.5 14.8-3.4 4.9 9.6 4.1 6.5-5 10.7-21.4 8.2-45.2 16-68.2 15.7-3.6-7.5-3.7-6.4 1.3-13.2 20.4-26.6 49.5-48.3 79-64.7 8.3 20 14.5 14.2-6.3 26zm1.3 15.3c-2 .9-7.5 4.6-9.1 2.6 0-.4-3.6-6.8-3-7 1.2-1.7 4-1.7 5.7-2.9 1-.5 3-1.5 3.5-.2.1.9 3.8 6.6 2.9 7.5zm3-11c.3-1.9 2.8-2.2 4.1-3.3 1-.5 2.6-2.3 3.6-.8 0 .1 3.4 7 3.1 6.8-.4 2.2-3.7 2.7-5.3 4-.8.5-2 1-2.4 0-.1-.2-3.4-6.7-3.2-6.8zm11 37.4c-1 1.4-3.2 1.7-4.6 2.6-.9.4-2.3 1.3-3 0l-2.8-6c-.6-2.2 4.4-2.8 5.9-4 .6-.2 1 0 1.5.6 0 .4 3.4 6.4 2.9 6.8zm-6-12-3.3-7 1.3-.6a197 197 0 0 0 37.5-25.6c19.8-15.5 13.4-21.9 21.6-5.6a238 238 0 0 1 -57 38.8zm17.3 6.6c-2 .5-4.6 3.8-6.3 2-.2-.5-3.5-6.4-3-6.9.6-.8 6.4-4.5 6.8-2.7 0 1.2 4.4 6.7 2.5 7.6zm11.5-6.9c-1.6.8-4.8 4.3-6.3 2.6 0-.3-3.3-6.6-3-6.7.3-1.3 1.9-1.5 2.8-2.2 1-.5 2.6-2.5 3.6-1 .1 1 3.8 6.4 2.9 7.3zm10.2-6.7c-7 5.6-5.2 2.2-8.6-3.5-.7-1.6 1.5-2.2 2.5-3 1-.5 2.5-2.7 3.4-1 .2 1 4.4 6.5 2.7 7.5zm10-7.4c-6.6 6-5 2.2-8.4-3.3-.2-.6-.1-1.2.3-1.6 1.7-.7 3.8-4.4 5.4-2.7.2 1.1 4.3 6.6 2.7 7.6zm9.5-7.7c-1.5.7-3.5 4.5-5.1 2.8 0-.1-3.4-6.6-3.2-6.5 0-1.7 2.2-2.4 3.3-3.6.6-.5 1.6-1.7 2.2-.4.2 1.2 4.3 6.5 2.8 7.7zm9.1-8.1c-1.1.7-3.3 3.8-4.5 3.4-.2.3-3.4-6.3-3.5-6.5-.7-1.3.8-2.1 1.6-3 1-.5 2.4-3.3 3.5-1.7.3 1.2 4.4 6.6 3 7.8zm8.8-8.5c-1.5.8-3.2 4.8-4.8 3.2-.2-.6-3.6-6.4-3.3-7 .4-1.4 2-2.2 3-3.4.5-.6 1.4-1.8 2-.6.4 1.2 4.5 6.6 3 7.8zm8.5-8.7c-1.4.8-3.1 5-4.7 3.3l-3.2-6c-.8-1.7 1-2.6 1.9-3.7.8-.5 1.9-3 3-1.5.2 1.3 4.3 6.6 3 7.9zm8.2-9c-1.3.8-3 5-4.6 3.4l-3.2-6.1c-.7-1.6 1-2.6 1.8-3.6.9-.7 1.8-3.2 2.9-1.6.3 1.2 4.5 6.6 3.1 7.9zm8-9.2c-1.2.8-2.8 5-4.4 3.5l-3.3-6.2c-.8-1.5 1-2.6 1.8-3.7.8-.6 1.8-3.2 2.8-1.6.3 1.3 4.5 6.6 3.2 8zm8-9.5c-1.3.9-2.8 5.3-4.4 3.6l-3.3-6.1c-.8-1.6.9-2.6 1.7-3.8.8-.6 1.7-3.2 2.8-1.7.3 1.3 4.6 6.7 3.2 8zm8.1-10.2c-.6 1.8-2.3 3-3.4 4.6-1.2 1.6-4-6-4.6-6.4-.8-1.8 1.3-3 2.1-4.3.7-.6 1.5-2.7 2.4-1.2.3.8 4 6.5 3.5 7.3zm7.7-8.9c-5.5 7.3-3.7 3.7-7.9-2.5-.9-1.8 1.3-3 2-4.4.8-.6 1.6-2.7 2.5-1.2.4 1.3 4.7 6.7 3.4 8.1zm8.4-10.5c-5.5 8.3-4.5 4-8.3-2-.8-1.6 1-2.7 1.8-3.9.8-.7 1.8-3.5 3-1.8.3 1 4.2 6.5 3.5 7.7zm8.1-9.6c-1.4.9-3 5.4-4.7 3.8l-3.4-6.2c-.9-1.7 1-2.8 1.7-4 .9-.7 1.9-3.4 3-1.8.4 1.3 4.9 6.8 3.5 8.2zm8.5-10c-1.4 1-3 5.5-4.8 3.8l-3.5-6.3c-.6-1 .2-2 1-2.9 1-.7 2.4-4.4 3.8-2.7.4 1.3 4.9 6.8 3.5 8.2zm8.6-9.6c-1.5.9-3.1 5.3-4.9 3.6l-3.6-6.3c-.6-1 .2-2.1 1-2.8 1.1-.8 2.5-4.4 4-2.7.3 1.3 5 6.9 3.5 8.2zm8.8-9.4c-1.5 1.2-2.6 3.5-4.3 4-.5.3-4-6.5-4.3-6.8-1-2.5 2.5-3.9 3.7-5.7 1.4-1.5 4.3 6.2 5 6.7.3.7.3 1.3-.1 1.9zm9-8.9c-1.4.7-3.7 5.2-5 3.3-.2-.3-4.2-6.9-4-7-.2-1.3 1.4-2.1 2.2-3 .9-.7 2.1-3 3.2-1.5.3 1.3 5.1 7 3.6 8.2zm9.5-8.7c-1.3.9-4 5.1-5.5 3.3 0-.2-4.2-7-3.9-7-.3-1 5-6.2 5.6-4 .3.9 4.6 6.7 3.8 7.7zm12.5-9.7c-2.3.9-4.9 5.5-7.2 3.9-.2-.3-4.4-6.9-4-7.1 0-1.2 7-7.2 7.8-5.1.3 1.4 5.7 7 3.4 8.3zm14.1-9.7c-8.5 5.6-6.4 5.6-11.5-2.8-.2-.3-.2-.7-.2-1 .6-1.1 7.7-6.5 8.4-4.5.2 1.3 5.7 7 3.3 8.3zm2-19.3c-20 11.7-38.3 26-54.1 42.7l-34.7-60 8.7-9.2a231 231 0 0 1 56-41c7 11.8 19.5 31.5 26.4 43l10.6 17.1c-4.3 2.4-8.7 4.8-13 7.4zm1 7.1c-1-2.2 5.5-4.5 7.2-5.6 1.7-.5 4.1 5.7 5.3 6.9 1 2-6.3 5.2-7.9 5.6-1.7-1-3.4-5.3-4.7-6.9zm1.3 20.2a367 367 0 0 1 48.4-26.1l7 10.9a156 156 0 0 0 -33.5 38.1 24.4 24.4 0 0 0 -3 8.5l-19-31.4zm46.5 13c-6.2 7.3-4.3 3.5-8.7-2.3-1.4-1 4-6.8 4.8-6 .1-.2 4 6.3 4 6.4.4.6.3 1.3-.1 1.8zm-20.3 30.9v1.3l-2.3-3.8c0-.1-2.6-4-2.5-4.2v-1.2c0-.7 1.2 1.5 1.4 1.7.7 1.4 3.2 4.7 3.4 6.2zm1.6-5.8c-1.4 4-1.1 2.7-3 0-1-2-3.8-5-2-7.2.2-1 .6-1 1.1-.2.5 1 4.3 6.2 4 7.4zm3.7 11.8c-1.3.2-.5-.9-.3-1.7l.4.8c.4.5.3 1 0 1zm.4-19c-1 .7-1.7 4.6-3 2.7l-3.5-5.9c-1-1.4.5-2.7 1-4 .5-.7 1-1.5 1.7-.4.3 1.1 4.6 6.4 3.8 7.6zm-1.4-11.1c-1-2 1.9-4.2 3-5.6 1-.4 4.1 6 4.6 6.5 1 1.9-1.3 3-2.1 4.5-.5.6-1 1.8-1.9.6zm12.4 27.8c-7 3-6.4 2-9.9-3.9.6-2.3 4.5-4.8 6.5-3 .1.8 4.6 6.1 3.4 7zm1.2-15.3c-15.3 8.4 20-25 25.2-29l6.7 10.6a271.7 271.7 0 0 1 -31.9 18.4zm11 10.1c-1.8.5-4.3 3.1-5.9 1.5 0-.3-4-6.2-3.6-6.4.3-1.2 1.9-1.3 2.8-1.9 1-.4 2.3-1.7 3.3-.3.1.9 4.9 6.3 3.3 7.1zm10.5-6.1c-.7 1-5.3 4.2-6.2 2.5-.1-.3-4-6-3.7-6.3-.2-1 5.2-4 5.9-3.2.5.8 4.2 6 4 7zm11.7-7c-1 1-5.8 5-7 3.3-.1-.2-4.1-6.3-3.8-6.4 0-1 6.5-5.3 7-3.6.2.6 4.2 6 3.8 6.6zm12.9-8.6c-1 1.7-3.3 2.4-4.7 3.7-1 .5-2.1 1.7-3 .5-5-7.8-5.8-6.3 3.1-11.2.8-.2 4 5.8 4.4 6.2zm14-9.3c-8.2 5.7-7 7.7-12-2 0-1 7.7-7 8.4-5.1.2 1 5 6 3.5 7.1zm15-10.8c-8.2 5.5-7 8.5-12.3-1.7.4-1.2 8.3-7.7 9.2-6 .4 1.5 5.6 6.3 3 7.7zm18.4-14.2c-2.6 1.6-7.3 7.5-10.2 6.5-.1-.4-4.4-6-3.8-6.5.4-1.2 9.6-9.1 10.4-7.4.3 1.2 5.2 6 3.6 7.4zm16-13.2c-2.3 1.5-6 7-8.7 5.9-.1-.5-4.4-6.1-4-6.6.5-1.2 7.9-8.3 8.9-6.5.3 1 5.1 6 3.8 7.2zm56.4-125.9c-10.2 12.5-11.3 28-13.4 43.2l-40.4-56.6c.4-3.4.7-6.7.8-10 .6-9 1.3-17.3 5-25.6 1.3-3 3-6.1 5.2-9.4l42.9 58.3zm-43-80.9c6.5-7.8 5.4-7.5 11.2.4 1.4 1-5.4 7.6-6.3 7-.2.1-4.5-6-4.7-6.1-.3-.4-.3-.9-.2-1.3zm-8.4 10.1c1-1 3-5.9 4.6-4.1l4.3 5.7c1 1.7-.8 2.7-1.6 4-.8.8-1.6 3.5-2.8 2-.5-1.2-5.5-6.1-4.5-7.6zm-5.3 9.7c.8-1 1.3-5.2 3-3.7l4.2 5.8c1.2 1.7-.6 3.1-1.1 4.7-.3.7-.6 2-1.5.7-.5-1.1-5.2-6-4.6-7.5zm-2.7 8.2c.4-.8.4-4.1 1.7-2.5l4.2 5.7c1.1 1.6 0 2.9-.3 4.5-.2.6-.1 1.8-1 .6-.9-1.7-5.8-6.2-4.6-8.3zm-1.4 8.7c.2-.7-.2-4 1.1-2.4.6 1.1 5 6 4.7 7.4-.3.7 0 4.9-1 3.4-1-1.8-5.6-6.2-4.8-8.4zm-.7 9.1c.3-.6-.2-3.8.6-3.2 1 1.3 5 6.1 5.1 7.7-.1.5 0 3.8-.4 3.5-1-1.4-5.2-6.1-5.3-8zm-.3 6c.1-.6-.2-3 .8-1.5 1.3 2.1 5.8 6.4 4.6 9.1 0 .8-.2 1-.8.2-.7-1.4-5.2-6-4.6-7.8zm-.8 7c.3-.7 0-3.7 1.1-2 .6 1 4.7 6 4.7 7l-.3 2.2c-.1.2 0 .8-.3.8-1.1-1.3-5.4-6.3-5.2-8zm-1.2 6.6c.3-.7.2-3.4 1.3-1.8l4 5.6c1 1.3.3 2.3 0 3.7 0 .5-.2 1.2-.8.7-.8-1.7-5.4-6.1-4.5-8.2zm-2.5 8.3c.6-1 .6-3 1.5-3.3.2-.1 4.2 5.8 4.4 6 1.2 1.7-.2 3-.6 4.7-.3.5-.7 0-1-.3-.5-1-4.7-5.8-4.3-7.1zm-3.5 8.1c.8-.8 1.2-4.7 2.6-3.1l3.8 5.5c1.3.7-1.3 6.8-2.2 4.8-.5-1.1-5-5.9-4.2-7.2zm-5 8.9c1-.9 1.8-5 3.3-3.5l3.8 5.5c1.3.8-2.2 7-3.1 5.2-.5-1.2-5-5.9-4-7.2zm-6.8 9.6c1.3-1 2.4-5.2 4.2-3.9l3.8 5.5c1.4.8-3.4 7.5-4.2 5.7-.5-1.2-5.2-5.9-3.8-7.3zm-9.8 24.1c-1.6 1.4-4.7 6.6-6.8 5.4-.1-.3-4.2-5.8-3.8-6.1 0-1 6-8 6.9-6.1.3 1 4.8 5.6 3.7 6.8zm9.9-10.6c-6.1 7.2-4.3 5.6-9.3-1.6 0-1.8 2-2.8 2.8-4.1.8-.7 1.7-2.9 2.8-1.6.4 1.2 5.2 5.8 3.7 7.3zm3.2 3.3c11.8-14 21.1-28.6 23.9-46l40.3 56.3c-.7 3-1.6 6-2.8 9.3-5 13-13.4 24.2-23.5 35.2zm34.7 78.2c-6.9 6.5-5.6 7.1-10.8-1l-.2-.7c0-1 6.8-8 7.4-6 .4 1.4 5.7 6.2 3.6 7.7zm10.9-10.8c-1.5 1-4 5.8-5.7 4.2-.2-.4-4.5-6.2-4.2-6.5 0-1.5 1.7-2.2 2.5-3.4 1-.6 2.2-3.4 3.5-2 .4 1.3 5.5 6.3 3.9 7.7zm8.7-10c-1.4 1-2.9 5.3-4.7 3.8l-4-5.8c-.8-1 0-2 .8-2.8 1.2-.7 2.2-4.3 3.7-2.7.4 1.2 5.4 6.2 4.2 7.6zm6.7-8.9c-1.1 1-2.2 5-3.8 3.3l-4-5.8c-1-1.4.4-2.4 1-3.5.7-.7 1.4-3 2.4-1.5.5 1.1 5.3 6.2 4.4 7.5zm5-8.1c-.9.8-1.5 4.6-3 2.9l-4.1-5.9c-1-1.2 0-2.2.6-3.3.5-.7 1-2.7 2-1.2.4 1 5.2 6.2 4.5 7.5zm3.6-7.5c-.6.8-1 4.3-2.4 2.6-.2-.5-4.6-6.3-4.5-6.7-.3-1.4 1-2.5 1.2-3.8.3-1.3 6.4 7.6 5.7 7.9zm2.2-6.2c-.4.8-.5 3.2-1.6 1.6-.4-.6-4.6-6.2-4.7-6.8a6 6 0 0 1 1-3.6c.4 0 4.6 6.2 5 6.6.6 1 .6 1.4.3 2.2zm1.7-6.8c-.2.6-.1 2.4-.8 2.3-.3 0-4.6-6.2-4.8-6.5-1-1.1-.4-2.2-.2-3.5 0-1 .5-.8 1-.1.6 1.2 5.4 6.4 4.8 7.8zm1-5.8c-.1.8 0 3-1 1.3-.4-.5-4.8-6.4-4.8-6.8-.3-1-.1-2.6.3-3.2.4-.1 4.7 6.3 5 6.6.4.5.8 1.4.6 2.1zm1-6.5-.4 2.5c-.3 0-.5-.3-.8-.6-.6-1-4.9-6.3-5-7.5.3-1 0-2.7.7-3.5.2-.2 4.7 6.4 5 6.6.6 1 .7 1.6.5 2.5zm1.4-8c-.4.5-.1 3-1 2.5-.5-.3-4.4-6.1-4.8-6.5-1-1.3-.4-2.8-.1-4.2 0-.5.1-1.5.7-.8 1 1.8 6.2 6.8 5.2 9zm2.4-8.3c-.6.7-.6 4-2 2.2l-4.3-6c-1.3-1.8 0-3.8.8-5.5.3 0 .6.3.9.6.7 1.6 6.2 6.7 4.6 8.7zm4.8-9.7c-1 .9-1.7 5.1-3.3 3.4l-4.5-6.1c-1-1.4 0-2.5.6-3.7.6-.8 1.1-3.1 2.4-1.6.5 1.2 5.7 6.5 4.8 8zm7.3-9.8c-5.6 7.2-3.4 4.7-9.3-2.3-1.2-1.7.9-2.9 1.7-4.2.8-.8 1.8-3 3-1.6.5 1.3 6.2 6.6 4.7 8.1zm11.2-11c-2.2 1-4.4 6-6.8 4.5-.4-.7-5.3-6.4-5-7.3 1-1.4 5.8-7.2 7.4-5.5.5 1.4 6.6 6.7 4.4 8.2zm15.8-12.8c-9.2 6.3-7.2 9.5-14.1-1.5.2-1.5 8.9-8.8 10-7l4.8 6.3c.4.6.1 1.5-.7 2.2z" fill="#303030" opacity=".08"/></svg>