<svg enable-background="new 0 0 512 512" viewBox="0 0 512 512" xmlns="http://www.w3.org/2000/svg"><path d="m149.4 164c-4.1.7-8.3 2.4-12.5 4.6a365 365 0 0 1 -38.7-69c-2.9-8.8-40.9 14.6-58.5 17.6-17.5 2.9-32.2-1.5-38 1.5-5.8 2.9 4.4 17.5 14.6 19s29.2-11.7 29.2-11.7l46.8-16.1s19.7 39.4 36.8 63.7c-27 19.8-51.4 62-51.4 62s-24.9 19-16.1 21.9 26.3-4.4 26.3-4.4 84.8 0 92.1-16.1 10.2-13.2 10.2-35.1c.1-14.3-7.2-43.8-40.8-37.9zm-131.4-34.2h-.6c-2.2-.3-4.7-2.1-6.6-4.1l4.1.2c3.3.2 6.9.4 11 .4h3.3c-4.3 2-8.4 3.5-11.2 3.5zm160.1 93.6c-1.4 2.5-3.1 5.6-5.2 10.2-.6.7-6.7 6.5-44 9.7-20.9 1.8-40.7 1.8-40.9 1.8h-1.6l-1.5.6c-1.9.8-6.3 2.4-10.8 3.4 2.6-2.4 5.6-5 8.5-7.2l1.3-1 .8-1.4c.2-.4 23.9-41 49.2-59.5l3.8-2.8 3.1-1.7a32.1 32.1 0 0 1 16.9-4.4c23.9 0 24.6 27.6 24.6 30.8 0 14-1 15.7-4.2 21.5zm273.9 185c-.5 0-1.1-.1-1.6-.3l-4.5-1.6-10.2-3.6-.6-.2c-7.7-2.7-18.1-6.1-23.8-7.6-1.4-.4-2.7-1.1-4-2.1-1.1-.9-2.1-1.9-3.2-3.2a57 57 0 0 1 -5.7-8.7c-4.2-7.5-8.1-17-10.8-23.5-5.1-12.7-9-24.6-10.1-27.9l-.6-1.9-3.5-.3c-8.1-.6-21.6-1.6-31.8-2.6l-1.7-.2a143 143 0 0 1 -10.1-1.2c-1.9-.3-3-1.1-4-1.9a67.3 67.3 0 0 1 -8.6-11.1 312.9 312.9 0 0 1 -16.6-31.8c4.5 1.1 8.6 2.4 11.8 3.3a262.1 262.1 0 0 0 15.9 28.5l2.5 3.1.7.8 1.1.2 9.8 1.1 12.9 1.1 3.8.3 21.5 1.6c1.9.1 3.5 1.4 4.1 3.2l.6 1.7.8 2.4 3.7 10.8a406 406 0 0 0 11.6 29.4c2.3 5 5.6 11.7 8.5 15.8a18 18 0 0 0 3 3.6l.5.5.7.2c6.5 1.7 16.2 5 24 7.7l13.5 4.9 1.9.7c2.4.9 3.6 3.5 2.7 5.9a4.3 4.3 0 0 1 -4.2 2.9zm-279.2 2.9a4.7 4.7 0 0 1 -4.5-3.5c-.6-2.4.9-5 3.3-5.6l25.1-6.6 16.9-74.8c.4-1.8 2-3.3 3.8-3.6l44.4-6.7.8-33.1c2.9-.3 5.9-.6 9.2-1.1l-.8 38.3c0 2.2-1.7 4.1-4 4.5l-45.1 6.8-16.8 74.5c-.4 1.6-1.7 3-3.4 3.4l-27.7 7.3c-.4.2-.8.2-1.2.2zm-87.7-11.7c-2 0-3.8-1.3-4.4-3.2-.8-2.4.6-5 3-5.8l34.7-11.1 40.1-80.1a4.7 4.7 0 0 1 3.3-2.5l54.7-9.8 5.8-12.3a94 94 0 0 0 9.2 2l-7.7 16.4a4.8 4.8 0 0 1 -3.3 2.6l-54.8 9.8-39.9 79.8c-.6 1.1-1.5 2-2.7 2.4l-36.5 11.7zm326-213.7c-40.9 0-70.2 17.5-71.6 54.1-.6 16.1-2.2 58.3 52.6 68.7 61.4 11.7 119.9 10.3 119.9-27.7 0-38.1-60-95.1-100.9-95.1zm80.2 114.4c-9 4.5-22.3 6.9-39.6 6.9-16.6 0-36.1-2.1-58.1-6.3-20.8-4-34.7-13.3-41.4-27.7a70.6 70.6 0 0 1 -4.8-32.8 42 42 0 0 1 17.7-34.6c10.9-7.8 26.8-11.9 46-11.9 16.9 0 40 11.9 60.3 31.1 19.8 18.7 32.6 40.7 32.6 56 0 8.8-4 14.9-12.7 19.3zm-162.1-67.6-32.1-11.7s-13.2 1.5-24.9-19-48.2-35.1-68.7-19c-5.7 4.5-6 29.2-7.3 39.5-2.9 23.4 23.4 43.9 73.1 36.5 32-4.7 63 14.6 61.4 7.3-2.9-13.1-1.5-33.6-1.5-33.6zm-8.3 25.1c-9.8-3-24.7-7.5-41-7.5-4 0-8 .3-11.7.8-6.4.9-12.6 1.4-18.4 1.4-18.3 0-33.1-4.9-40.6-13.4-4-4.5-5.7-9.9-5-15.6l.9-9.4c.5-6.5 1.7-21.4 3.8-25 4.3-3.2 9.7-4.9 16.2-4.9 15.3 0 33.4 9.8 40.3 21.8 11.5 20.2 25.3 22.8 30.4 23l25.3 9.2c-.2 5-.2 12.4.4 19.7z" fill="#505050"/></svg>