<svg viewBox="0 0 611.5 80.9" xmlns="http://www.w3.org/2000/svg"><path d="m15.6 61.6c3.2-3.2 5.5-6 6.8-8.3a14.2 14.2 0 0 0 -.3-14.8 7.4 7.4 0 0 0 -6.5-3.3c-3 0-5.4 1.3-7.3 3.9a49.5 49.5 0 0 0 -5.7 12c0 .1-.1.2-.4.2-.8 0-1-.2-1-.4l5.3-20.5c0-.2.1-.3.5-.3l.6.2c.2.1.3.2.2.3l-.1 1.5c0 1.3.6 2 1.8 2 .7 0 1.9-.3 3.6-.8a29 29 0 0 1 9.5-1.8c4.4 0 7.8 1 10.3 3 2.5 2.2 3.7 5 3.7 8.4 0 4.1-1.6 7.9-4.9 11.3a91.2 91.2 0 0 1 -13.3 11.1l-4.8 3.6c-.3.2-.3.4-.2.6a213.1 213.1 0 0 0 15.2-.1c3.3-.3 5.8-.8 7.7-1.6a6.3 6.3 0 0 0 3.7-4c0-.3.3-.4.7-.4s.7.1.7.3l-2.5 14.3-.3 1a1 1 0 0 1 -.8.3h-36.7c-.3 0-.6-.2-.8-.7l-.3-1.4c0-.4.1-.9.4-1.1 7-6.4 12-11.2 15.2-14.5zm44.1 16.1c-3.9-2.2-7-5.2-9.1-9-2.2-3.8-3.3-8-3.3-12.8s1-8.9 3.3-12.6a23 23 0 0 1 9.1-8.7c3.9-2.1 8.3-3.1 13.3-3.1s9.3 1 13.2 3.1c3.8 2.2 6.8 5.1 8.9 8.9 2.1 3.7 3.2 8 3.2 12.7s-1.1 9-3.3 12.7a23 23 0 0 1 -9 8.8c-3.8 2.1-8.2 3.2-13 3.2s-9.4-1-13.3-3.2zm22.8-4.7c1.9-3.6 2.8-8.7 2.8-15.1 0-8.1-1.2-14.1-3.8-18-2.5-4-5.7-6-9.5-6s-6.7 2-8.8 5.7a31 31 0 0 0 -3 15c0 7.1 1.2 12.9 3.8 17.2 2.5 4.4 6 6.6 10.2 6.6 3.6 0 6.4-1.8 8.3-5.4zm38.5-11.4c3.3-3.2 5.5-6 6.9-8.3a14.2 14.2 0 0 0 -.3-14.8 7.4 7.4 0 0 0 -6.5-3.3c-3 0-5.4 1.3-7.3 3.9a49.5 49.5 0 0 0 -5.7 12c0 .1-.1.2-.5.2-.7 0-1-.2-1-.4l5.4-20.5c0-.2.1-.3.4-.3l.7.2c.2.1.3.2.2.3l-.1 1.5c0 1.3.6 2 1.8 2 .7 0 1.9-.3 3.6-.8a29 29 0 0 1 9.4-1.8c4.4 0 7.9 1 10.4 3 2.4 2.2 3.7 5 3.7 8.4 0 4.1-1.6 7.9-4.9 11.3a91.2 91.2 0 0 1 -13.4 11.1l-4.8 3.6c-.2.2-.3.4-.1.6a213.1 213.1 0 0 0 15.2-.1c3.2-.3 5.8-.8 7.7-1.6a6.3 6.3 0 0 0 3.6-4c.1-.3.4-.4.8-.4s.7.1.7.3l-2.5 14.3-.3 1a1 1 0 0 1 -.8.3h-36.7c-.4 0-.6-.2-.8-.7l-.3-1.4c0-.4.1-.9.3-1.1 7-6.4 12-11.2 15.3-14.5zm48.3 0c3.2-3.2 5.5-6 6.8-8.3a14.2 14.2 0 0 0 -.3-14.8 7.4 7.4 0 0 0 -6.5-3.3c-3 0-5.4 1.3-7.2 3.9a49.5 49.5 0 0 0 -5.7 12c0 .1-.2.2-.5.2-.7 0-1-.2-1-.4l5.3-20.5c0-.2.2-.3.5-.3l.6.2c.2.1.3.2.2.3l-.1 1.5c0 1.3.6 2 1.8 2 .7 0 2-.3 3.6-.8a29 29 0 0 1 9.5-1.8c4.4 0 7.8 1 10.3 3 2.5 2.2 3.7 5 3.7 8.4 0 4.1-1.6 7.9-4.8 11.3a91.2 91.2 0 0 1 -13.5 11.1l-4.8 3.6c-.3.2-.3.4-.2.6a213.1 213.1 0 0 0 15.2-.1c3.3-.3 5.8-.8 7.7-1.6a6.3 6.3 0 0 0 3.7-4c0-.3.3-.4.8-.4s.6.1.6.3l-2.4 14.3-.3 1a1 1 0 0 1 -.8.3h-36.7c-.3 0-.6-.2-.8-.7l-.3-1.4c0-.4.1-.9.4-1.1 7-6.4 12-11.2 15.2-14.5zm35.8 17.1a7.2 7.2 0 0 1 -2-5.4c0-2 .7-3.7 2-5 1.4-1.3 3.1-2 5.4-2s4 .7 5.2 2c1.2 1.2 1.9 2.9 1.9 5 0 2.4-.7 4.2-1.9 5.4-1.2 1.3-3 2-5.2 2s-4-.7-5.4-2zm31.3-41.4a3.6 3.6 0 0 0 -2.5-2.2c-1.3-.4-3.3-.6-6.1-.6-.2 0-.3-.3-.3-.8s.1-.7.3-.7l6 .1 8.8.2 8.7-.2h6.2c.3 0 .4.2.4.6s-.1.8-.4.8c-2.6 0-4.6.2-5.9.6a4.2 4.2 0 0 0 -2.6 2.4c-.5 1-.7 2.8-.7 5.2v27c0 2.4.2 4.2.6 5.3a3.6 3.6 0 0 0 2.5 2.3c1.3.4 3.3.6 6.1.6.3 0 .4.2.4.7s-.1.7-.4.7h-6.1l-8.8-.2-8.6.1-6.2.1c-.2 0-.3-.2-.3-.7s.1-.7.3-.7c2.6 0 4.6-.2 5.8-.7a4.2 4.2 0 0 0 2.7-2.3c.5-1.1.7-2.9.7-5.3v-26.9c0-2.4-.2-4.2-.6-5.4zm39.8 0a3.6 3.6 0 0 0 -2.5-2.2c-1.3-.4-3.3-.6-6.1-.6-.2 0-.2-.3-.2-.8s0-.7.2-.7l6.1.1 8.8.2 8.6-.2h6.2c.3 0 .4.2.4.6s-.1.8-.3.8c-2.7 0-4.6.2-6 .6a4.2 4.2 0 0 0 -2.6 2.4c-.4 1-.7 2.8-.7 5.2v27c0 2.4.2 4.2.6 5.3a3.6 3.6 0 0 0 2.5 2.3c1.3.4 3.4.6 6.2.6.2 0 .3.2.3.7s-.1.7-.3.7h-6.2l-8.7-.2-8.7.1-6.2.1c-.2 0-.2-.2-.2-.7s0-.7.2-.7c2.6 0 4.6-.2 5.9-.7a4.2 4.2 0 0 0 2.5-2.2c.5-1.1.7-2.9.7-5.3v-27c0-2.4-.2-4.2-.6-5.4zm33.4 41.4a7.2 7.2 0 0 1 -2-5.4c0-2 .7-3.7 2-5 1.4-1.3 3.1-2 5.4-2s4 .7 5.2 2c1.2 1.2 1.9 2.9 1.9 5 0 2.4-.7 4.2-1.9 5.4-1.2 1.3-3 2-5.2 2s-4-.7-5.4-2zm37.4-17.1c3.1-3.2 5.4-6 6.7-8.3a14.2 14.2 0 0 0 -.3-14.8 7.4 7.4 0 0 0 -6.5-3.3c-3 0-5.4 1.3-7.2 3.9a49.5 49.5 0 0 0 -5.7 12c0 .1-.2.2-.5.2-.7 0-1-.2-1-.4l5.3-20.5c0-.2.2-.3.5-.3l.6.2c.2.1.3.2.2.3l-.1 1.5c0 1.3.6 2 1.8 2 .7 0 2-.3 3.6-.8a29 29 0 0 1 9.5-1.8c4.4 0 7.8 1 10.3 3 2.5 2.2 3.7 5 3.7 8.4 0 4.1-1.6 7.9-4.8 11.3a91.2 91.2 0 0 1 -13.4 11.1l-4.8 3.6c-.3.2-.3.4-.2.6a213.1 213.1 0 0 0 15.2-.1c3.3-.3 5.8-.8 7.7-1.6a6.3 6.3 0 0 0 3.7-4c0-.3.3-.4.8-.4s.6.1.6.3l-2.5 14.3-.3 1a1 1 0 0 1 -.8.3h-36.7c-.3 0-.6-.2-.8-.7l-.3-1.4c0-.4.1-.9.4-1.1 7-6.4 12-11.2 15.2-14.5zm77.3-12.2c2.6 3 4 6.7 4 10.9 0 3.7-1.2 7.2-3.4 10.3a23.1 23.1 0 0 1 -9.2 7.5 29.2 29.2 0 0 1 -12.6 2.8c-7.2 0-12.8-2.3-17-7a28.1 28.1 0 0 1 -6.2-19.4c0-7.5 1.8-14.9 5.3-22.1a60.3 60.3 0 0 1 15.2-19.4c6.6-5.7 14.3-10 23-13 .4 0 .6.1.8.5.1.4.1.7-.1.8a55.8 55.8 0 0 0 -28.4 31.7 57.3 57.3 0 0 0 -3.6 19.8c0 4.7.6 8.9 1.8 12.7 1.1 3.9 2.8 7 5 9.2a10 10 0 0 0 7.4 3.3c3 0 5.3-1.2 7-3.8 1.8-2.5 2.7-6 2.7-10.5a18 18 0 0 0 -2.5-10.1 8.4 8.4 0 0 0 -7.4-3.8c-1.5 0-2.8.3-4.1.8s-2.8 1.4-4.5 2.6l-.3.1c-.3 0-.5-.1-.7-.4-.3-.2-.4-.4-.3-.6 4.7-5 10.1-7.5 16.3-7.5 5.2 0 9.2 1.5 11.8 4.6zm58.1-25.3c1.5 2.3 3.4 4.2 5.5 6 2.2 1.6 5 3.6 8.8 6 4 2.6 7.2 4.8 9.6 6.8 2.4 1.9 4.4 4.2 6 7a18 18 0 0 1 2.6 9.5 19 19 0 0 1 -3.4 11.1c-2.2 3.3-5.3 5.8-9.3 7.6s-8.3 2.7-13.2 2.7c-3.6 0-7.4-.5-11.3-1.5-4-1-6.6-2.1-8-3.3l-.8-1c-.2-.2-.3-.7-.3-1.3l-.4-19v-.2c0-.3.2-.5.6-.5s.7 0 .7.4c2.5 4.9 4.6 8.8 6.4 11.9 1.8 3 4 5.7 6.8 8s5.9 3.5 9.4 3.5a12 12 0 0 0 8-2.6c2-1.7 3-4.7 3-8.8 0-3.5-.7-6.6-2.3-9.3a25.2 25.2 0 0 0 -5.7-6.7c-2.2-1.8-5.3-4-9.2-6.6a96.3 96.3 0 0 1 -9-6.3c-2-1.8-4-4-5.4-6.4a16.4 16.4 0 0 1 -2.3-8.8c0-4.2 1.2-7.8 3.7-10.7 2.4-3 5.5-5 9.4-6.5 3.8-1.4 7.9-2 12-2a47.9 47.9 0 0 1 15.7 2.5c.7.3 1.2.6 1.4 1 .3.3.4.8.4 1.4v17.6c0 .2-.2.4-.6.5-.4.2-.7.1-.7-.1l-1-2.3a54 54 0 0 0 -7-12.9 13.3 13.3 0 0 0 -11.2-5.2c-3.2 0-5.9.9-8 2.7-2 1.9-3 4.5-3 8 0 3 .8 5.5 2.3 7.7zm89 48.8c.3 0 .6.1.7.5s0 .6-.3.8l-12.4 5.8-1.2.2c-1.3 0-2.5-.7-3.6-2-1.2-1.4-2-3.2-2.5-5.6l-5.2 3.6a21.7 21.7 0 0 1 -5.1 3c-1.6.6-3.4.9-5.4.9-3.4 0-6-.8-7.8-2.3a8 8 0 0 1 -2.6-6.4c0-2.1.5-3.9 1.5-5.2a11 11 0 0 1 4-3.1c1.5-.8 3.6-1.6 6.4-2.6l3-1 10.8-4v-6.9c0-5-.4-8.8-1.2-11.1-.9-2.3-2.3-3.5-4.3-3.5-4.2 0-6.6 3.3-7.2 9.8-.2 2.4-1 4.2-2 5.2-1.2 1-2.9 1.6-5 1.6s-3.4-.5-4.3-1.3c-1-.8-1.4-2-1.4-3.3 0-2.4 1.4-4.7 4.2-6.9s6.2-4 10.1-5.3c4-1.4 7.5-2 10.5-2 3.6 0 6.4 1 8.6 3.2s3.3 5.6 3.3 10v21.3c0 2.3.4 4.1 1.3 5.4a4 4 0 0 0 3.5 1.9c1.1 0 2.3-.3 3.5-.8h.1zm-19.4-2.2-.1-1.6v-11.5l-5.2 2.4-2.4 1a8.5 8.5 0 0 0 -3.5 2.5 6.4 6.4 0 0 0 -1.5 4.2c0 2 .6 3.4 1.8 4.5 1.3 1 2.7 1.6 4.3 1.6 1.3 0 2.6-.4 4-1.3zm58.5.3c.4 0 .6.1.8.4s.2.6 0 .7c-3 3-5.9 5.2-8.7 6.6a19.6 19.6 0 0 1 -8.9 2c-3.5 0-6.5-.8-9-2.4-2.4-1.7-3.7-4.6-3.7-8.6v-26.6c0-2.5-.4-4.2-1.3-5.2s-2.5-1.4-4.8-1.4c0 0-.2-.1-.3-.4l-.2-.7c0-.3 0-.6.2-.8 0-.2.2-.3.3-.3 4-.1 7.4-1 10-2.6 2.4-1.6 4.4-4 5.7-7.3.2-.3.5-.5 1-.5s.8.2.8.5v9.6c4.7-.1 9.9-.5 15.6-1.1.2 0 .4.3.6.9a6.7 6.7 0 0 1 -.1 4.3c-.3.8-.6 1.1-1 1a77.8 77.8 0 0 0 -15-1.8v28.5c0 3 .7 5.3 2.3 6.7a8.8 8.8 0 0 0 6.2 2.2 15 15 0 0 0 9.3-3.6l.3-.2z" fill="#fff"/></svg>