<svg viewBox="0 0 630.7 404" xmlns="http://www.w3.org/2000/svg"><path d="m630.7 289.6c-1.8-30-26.2-53.6-46.4-74.3-10.2 19.8-13.9 12.3-.4 26 8 8.4 15.4 17.1 21.8 26.4l-29.2 48c-4-6-8.4-11.6-13.2-17.2a292.8 292.8 0 0 0 -17.2-18.3l-9.3 15.8a268 268 0 0 1 18.8 20.2c9.2 10.2 4.3 7.5-6.7 7.2a457.1 457.1 0 0 1 -67.6-10.3c-76-17.3-149.8-46.7-219.6-81.4-70.6-36-141-77.8-196.4-134.5-5.8-7-12.9-10.3 1.2-9.4 9.1 0 18.3.5 27.7 1.5l6.4-17.1c-8.5-1-17-1.4-25.2-1.6-7.4 0-14.6.2-21.7 1l18.8-52.8a237 237 0 0 1 47.6 1c6.3-21 13.4-17.8-8-19.4-28.6-.8-72.7-3.4-82.2 30.4-1.1 2.8-2.4 7.7-3.2 9.5a34.5 34.5 0 0 0 -2 19.9l-18.3 52.8c-1-6-.7-10.7 1-16.2-3.7 11.8-10.2 23.7-6.3 36.4 15.3 46.8 63.5 81.5 101.9 110.8a993.3 993.3 0 0 0 308 144c42.2 9.8 145 35.4 169.2-10.4 1.4-2.5 4.5-7.2 6.3-10.1-3 4.5-7 8.1-11.7 10.8l6.1-9.7 23.6-37.7c10.4-6.1 11.7-11.2 17.2-19.4 4.3-6.6 9.2-13.6 9-22zm-40.2-48.6c-1 1.4-8.2-7.1-9-8.5-.5-.5 2.9-5.3 3-5.8 2.7-.6 6.6 5.9 8.8 7.7 1.4 1.4-2.4 5.5-2.8 6.6zm13 15.6c-1.2 1.3-6.1-6.5-7-7.8-.7-.8 2.7-5.4 3-6 2.3-.8 5.3 5.5 7 7.2 1.2 1.3-2.6 5.4-3 6.6zm-47 41.4c-.4.2-2.7 5.6-3.6 5-1.7-1.6-8.3-7.4-8-9.4l2.9-4.8c1-1.4 9.6 8 8.7 9.2zm-476.3-222.5c1.2-1.6 11-.7 12.6.4.3.1-2 5.5-2 5.6-.9 1.5-10.6.4-12.4-.2-.7-.1 1.8-5.5 1.8-5.8zm24.7-67.7c.4-1.5 13.4-.8 13 1l-2 5.4c-1.1 1.6-11 .4-12.9-.3-.6 0 2-5.8 2-6zm-20.4 0c.2-1.5 11.8-2 11.4-.2-2.7 9.5-3.7 5.7-12.2 6.6-.5 0-1.4-.2-1.2-.9l2-5.6zm-17.6 1.6c1.4-2 7.1-1.9 9.4-1.9 1.1.1-1.7 5.8-1.6 6.2-1.8 2-6.7 1.4-9.4 2-1.2 0 1.7-5.8 1.6-6.3zm-62.6 103.4c0 .2-1.8 5.8-2 5.6-.3-1.4 0-3 0-4.5a47 47 0 0 1 2.5-7.4c-.3 2 0 4.3-.4 6.3zm612.3 164.2c.2-.2 3.1-5.7 3.6-5.3 1.4 2 3.5 5.4 2.8 7.9-.3.1-3.2 5.6-3.6 5.3-1-1.2-1.3-3.2-2.2-4.6-.4-1-1.2-2.2-.7-3.3zm-8.4-14 3-5.1c1.3-1 2 1.8 2.8 2.5.9 1.8 3.2 3.7 2.5 5.7-.5.3-3 6-3.9 5.2-1.1-2-5-6.4-4.4-8.4zm-30.7 66.4c5.4.2 10.2-3.5 4.9 3.9-.4.7-1 1.7-1.8 2-1.5 0-8.6 2-8.5.2l2.3-3.7c.6-1.3 1.6-2.4 3.1-2.4zm-4-9.8c1.7-1 2.7 3 3.8 4-6-.1-8 2.4-3.7-4zm-11-5c-1-1.7-3.5-3.1-3.1-5.2l2.9-4.8c.3-.4.9-.3 1.5.4 1.6 2.6 5.5 5.2 5.4 8.3-3.1 4.4-2.5 7.6-6.8 1.3zm-6.2 16.3c2.6-1.8 7-.3 10.1-.9 1.3 0 1.3.7.7 1.5-3.4 6.5-4 5.3-10.7 5.3-.9-.1-3.5.5-3.2-.9l3-5zm-21.8-1.3c.2-1.2 13.9-.4 12.8 1l-3 5c-.5 1.3-13.4.7-12.8-1zm-25.5 2.2c1-1 2.7-6.4 4.7-5.7 2.1.8 10.6.4 10.8 2.4-.8 1-2.7 6-4.5 5.7-1.7-.4-11.7-.5-11-2.4zm-12.4-7.6c1.2-1.6 6.2.5 8.2.5.6.1 1 .5.7 1-.4.6-2.9 5.6-3.7 5.7-1.9.2-3.8-.6-5.7-.8-.7-.2-2.1 0-2.4-.8-.5-.2 2.9-5.4 3-5.6zm-18.8 1.8c4-8 3.3-5.6 11.3-4.3.7.2 1 .7.8 1.2-.3.4-3 5.5-3.5 5.5-1.4.5-3-.4-4.5-.5-1-.5-4.5-.2-4.1-1.9zm-13.5-8.8c.7-1.4 9 .7 9.6 1.8 0 .5-3 5.6-3.3 5.8-1 .6-10-1-9.2-2.5zm-19.8.7 2.8-5c2-1.5 7.6 1 9.7 1.8.2.2.2.5.1.7-.3.4-2.8 5.6-3.4 5.5-1.3.2-9.9-1.3-9.2-3zm-14.5-9.9c.2-1.5 11.1 1.6 10 3-.3.3-2.7 5.6-3.4 5.4-1.2.2-10.1-1.7-9.4-3.3l2.8-5zm-17.7-5.4c.3-1.5 11.3 1.8 10.2 3.2-.3.4-2.7 5.6-3.4 5.5-1.3.2-10.2-2-9.6-3.6zm-18-6c1.9-1.4 7.5 1.8 9.9 2.4.4.3.6.7.4 1.1-.3.4-2.7 5.7-3.3 5.6-3-.2-6.8-1.8-9.6-3.1-1-.5 2.5-5.4 2.6-6zm-18.4-6.5c1.9-1.3 8.4 2 10.5 3 .7.6-2.6 5.9-3 6.3-1.9.3-9.1-2.2-10.2-3.7-.3-.1 2.7-5.4 2.7-5.6zm-18.6-7c.9-1.4 10.2 2.4 10.8 3.7-.1.6-2.6 6-3.3 6-3.3-.4-7.1-2-10-3.7-.8-.5 2.5-5.4 2.5-6zm-18.8-7.4c.4-1.6 11.9 3 10.9 4.3-.4.4-2.6 5.8-3.2 5.6-1.6 0-10.7-3-10.2-4.8zm-18.9-8c.5-1.5 11.8 3.3 11 4.6-.4.4-2.5 5.8-3.2 5.6-2.3-.2-9.1-2.8-10.4-4.6-.3 0 2.7-5.4 2.6-5.6zm-19-8.4c2.1-1.2 8.6 2.9 10.8 4 .2.3.3.7.1 1-.3.3-2.4 5.7-3 5.5-2 .2-3.6-1.3-5.4-1.9-1.6-1-4.2-1.2-5-3-.3 0 2.5-5.3 2.5-5.5zm-19-8.7c1.5-1.6 7.7 2.9 9.8 3.4.9.5 1.3 1.1 1.1 1.6-.5.5-2.3 6-3.3 5.7-3.3-.9-6.6-2.7-9.7-4.4-1.4-.7 2-5.5 2.1-6.4zm-18.8-9.2c.4-1.6 11.7 4 10.8 5.3-.4.4-2.4 5.8-3.1 5.6-1.8-.2-10.4-3.7-10.1-5.6zm-18.4-9.3c.4-1.6 11.4 4.1 10.5 5.4-.4.5-2.2 6-3.2 5.7-2-.7-9.9-3.8-9.7-5.8zm-18-9.5c.4-1.7 11.3 4.2 10.3 5.5-.3.3-2.3 5.9-3 5.6-1.7-.3-10-4-9.6-5.8zm-17.4-9.7c.3-1.7 10.9 4.4 10 5.6-.5.4-2.2 6-3.1 5.7-3-1.2-7.5-3.1-9.3-5.6-.2 0 2.4-5.5 2.4-5.7zm-17-9.9c1.5-1.3 8 3.6 9.6 4.8.7.6-2.1 5.6-2.2 6.2-.2.3-.5.4-.8.5-1.9-.9-9-4-8.8-6.1l2.2-5.3zm-16.4-10c1.3-1.4 7.3 3.7 9 4.5.3.4.5.8.4 1.3-.4.5-2 6-3 5.8-3-1.1-5.7-3.1-8.3-5-1.2-.8 1.8-5.6 2-6.5zm-15.6-10c.2-1.7 10 4.8 9 5.8-.3.3-2.2 6-2.8 5.8-2.9-1-6-3.3-8.3-5.3-.7-.6 2-5.6 2-6.2zm-15.2-10c2-1.3 6.2 3.4 8.3 4.4.3.4.5 1 .4 1.3-.3.3-2.2 6-2.7 5.8-.4.1-.8 0-1.1-.3-2.3-1.7-5.1-2.9-7-5-.6-.6 2-5.6 2.2-6.3zm-14.4-10.2c.7-1.6 8 4.2 8.3 5.4 0 .5-2 6-2.7 6.2-1.5-.3-8.2-4.6-7.7-6.2zm-13.7-10.2c.4-1.7 8.7 4.8 7.8 5.9-.2.2-2 6-2.6 5.7-2.4-.5-4.4-3-6.6-4.4-2-1 1.2-5.8 1.4-7.2zm-13-10.1c.5-1.7 8.3 4.7 7.4 5.8-.3.4-2 6.1-2.7 5.9-1.8-1.1-6.9-4-6.7-6.3zm-12-10c0-.4.3-.5.5-.5 1.5 1 6.7 4.4 6.3 6.2-.3.4-1.9 6-2.7 5.8-2-.8-3.3-2.7-5-3.9-3-1.1.5-6 .8-7.7zm-13.9-12.5c2-.9 6 5 8.1 6.1 1.8 1.2-1.3 6-1.4 7.3-.1.2-.4.3-.6.4-2.2-1.6-8-5.8-8.1-8.3zm-16.2-16c.5-1.7 9.7 8.2 9 9.2-.3.3-1.7 6.4-2.7 5.7-2.7-2.4-7.5-5.8-8.2-9.4l2-5.5zm-1.4-28.3c.3-1.4 11.5-1.9 11.1-.2l-1.9 5.2c-1.2 1.6-4.2.7-6 1-1.4 0-3.3.3-4.7 0-1.3 0 1.5-5.5 1.5-6zm-9.2 14.8c4.7 5.8 5.7 5 2.6 12.3-.7 1.7-8-7.6-7.1-8.6l2-5.5c.7-1.2 1.9 1.2 2.5 1.8zm1.4-14.3c-2 6.8-1.6 3.7-5-.2 1.2 0 5-1.4 5 .2zm-.2-63c1.5-2.1 5.4-2.6 7.9-2.9.6.1-1.9 5.8-1.8 6.1-.8 1.6-3 1.5-4.5 2.1-1.1.2-2.3 1-3.4.8-.6 0 1.9-5.8 1.8-6zm-13.2 11c.6-1.2 1.7-6.3 3-7 1.1-.3 5-3.6 5-1.9-.8 2-1.5 7.1-4.3 7.6-.7 0-4.2 3-3.7 1.4zm-8 7.4c1-2.5 2-7.2 4.2-8.9.5-.3 1.6-2 2-1.5v.4l-2 5.5c-.6 1.7-2.2 2.6-3.2 4-.3.2-1.3 1.6-1 .4zm2.5.5c8.3-7 19-10.2 30.1-12l-18.5 52.4c-5.7-9-21.2-32.4-11.6-40.5zm10.4 50.4-2 5.5c-.1.4-.5.4-.8.2-4.4-6.3-5.8-6.3-2.6-13.8.5-1.7 6.1 7.3 5.4 8.1zm-8.6-13.8c-.4.3-1.8 6.8-2.6 5.8-3.5-5.8-3.5-7-1-13.2.4-2 4.3 7 3.6 7.4zm-9-13.7c.4-.4 2.2-9.2 2.6-4.4 1.8 4.8.6 6.6-1 11-.7 2-2.3-6-1.6-6.6zm1.3-10.2-2.1 6c-.8-3.8 1-9 2.5-12.4-.2 2 .1 4.3-.4 6.4zm3-15.2.2-.4-.1.4zm-26 99.7c-.7 1.2-1-2-1.2-2.5-1.3-2.6.6-6.8 1.5-9.3.6-1.4.7 1.9 1 2.3 1.5 3.1-.2 6.6-1.3 9.5zm5.3 12.4c-1 1.4-2.7-4.5-3.3-5.3-.8-1.6 1.3-6.1 2-7.5 1.3 1.2 1.7 4 2.8 5.6 1.1 1.5-1.2 5.8-1.5 7.2zm8.3 13.6c-1.4 1.1-3.8-4.8-4.8-5.9-1.3-1.6 1.1-6 1.6-7.5 2 1 3 4.3 4.5 6.1 1.6 1.6-1 5.8-1.3 7.3zm11.4 14.7c-1.4 1.2-5.5-5.7-6.7-7-1-1.1 1.4-5.5 1.6-6.7.5-1.6 7.7 7.6 7 8.5l-2 5.2zm14.4 15.5c-2 .7-5.9-5.5-7.8-7-2.1-1.5.8-5.5 1-7.3.7-1.5 9.4 8 8.8 9l-2 5.2zm15.5 14.5c-1 1.6-6-4.8-7.3-5.5-.8-.8-1.2-1.7-1.1-2.3.1 0 2-5.7 2.2-5.4 2.9 1 5.4 4.6 8 6.6 1 1-1.6 5.6-1.8 6.5zm4.8-8.9c-22.9-20.9-46.2-43-56.3-72.1l13-38 5-14.8c1 3.4 2.5 6.8 4.3 10.4 13.5 26.1 35 46.5 57.5 66.2l-19.6 52-4-3.6zm6.7 18.9c-.6 1.6-6-3.9-6.6-4.7-.6-.6 1.8-5.4 1.9-6.1 0-.3.3-.4.5-.4 2.1 1.2 4 3.2 5.8 4.8 1.2.9-1.5 5.5-1.7 6.4zm12.2 10c-1.3 1.4-5-3.3-6.5-4-2-1.1 1.2-5.6 1.4-6.9 1-1.3 6 3.8 7 4.9.6.5-1.8 5.4-2 6zm13 10c-1.3 1.3-5.8-3.6-7.2-4.5-1.3-.9 1.5-5.5 1.6-6.5.4-1.6 8.5 4.8 7.6 5.8l-2 5.1zm13.7 9.8c-1.5 1.4-5.4-3.2-7.2-4-2.1-1 1.1-5.4 1.3-6.8 2-1 5.6 3.4 7.6 4.4 1.3 1-1.6 5.4-1.7 6.4zm14.4 10c-1.6 1.3-5.7-3.3-7.5-4-2.3-1 1-5.5 1.2-6.9 2.1-1 5.9 3.4 8 4.4 1.4 1-1.6 5.4-1.7 6.4zm-14.5-22.5c-12.3-8.8-24.1-17.9-35.4-27.3l19.8-51.8a713.4 713.4 0 0 0 77.6 55.2l-21.5 51a759.1 759.1 0 0 1 -40.5-27.1zm29.5 32.3c-1 1.4-7.4-3.7-8.6-4.8-.6-.6 2-5.3 2-6 .1-.2.3-.2.5-.3 2 .6 8.2 4 8.3 6zm15.6 9.7c-.8 1.6-7.2-3.5-8.6-4.3-.3-.3-.5-.8-.4-1.2.2-.3 2-5.7 2.6-5.5 2.8.6 5.1 3 7.7 4.3 2.4 1-1 5.4-1.2 6.7zm16.3 9.7c-1 1.4-8-3.6-9.3-4.7-.7-.5 2-5.3 2-5.9.5-1.5 10.3 4.4 9.5 5.6zm16.8 9.5c-2.2 1.2-6.4-3-8.7-3.8-2.6-1 1-5.3 1.2-6.7.4-1.5 10.5 4.3 9.7 5.5l-2.3 5zm17.2 9.4c-2 1.2-6.6-3-9-3.7-.8-.5-1.2-1.2-1-1.7.1-.1 2.3-5.4 2.5-5.3 1.4-.3 10.3 4.2 9.8 5.7zm17.7 9.1c-1.6 1.4-7.7-3.1-9.7-4-1.7-.8 1.7-5.2 1.8-6.2 2.7-1 6.9 3 9.7 4 1.6.8-1.7 5.3-1.8 6.2zm-18.4-21.3c-15.6-8.4-31-17.1-45.8-26.2l21.6-50.9a1061.4 1061.4 0 0 0 97.1 52l-23.7 50c-16.6-8-33.1-16.2-49.2-25zm36.5 30.3c-1 1.5-7.6-3-9.4-3.5-2.7-.8 1-5.2 1.2-6.6.9-1.4 10 3.5 10.6 4.7.3 0-2.4 5.3-2.4 5.4zm18.4 8.7c-1.7 1.4-7.2-2.8-9.5-3.4-.6-.3-1.3-.9-1-1.5.2-.3 2.2-5.6 2.8-5.4 1.6-.1 3.2 1.2 4.6 1.8 1.7 1 4 1.4 5.4 2.7.8.6-2.2 5.2-2.3 5.8zm18.6 8.3c-.7 1.5-10.2-3.1-10.6-4.3-.3-.1 2.4-5.1 2.4-5.3 2.2-1.2 8.3 2.7 10.5 3.9.8.5-2.2 5.2-2.3 5.7zm18.5 8c-2 1.3-7.7-2.6-10-3.4-1.8-.6 1.7-5.2 1.8-6 3-1.1 7 2.3 10.1 3.2 1.8.8-1.9 5.2-2 6.1zm18.3 7.4c-2.4 1.2-6.8-2.2-9.4-2.8-.9-.4-1.3-1-1.1-1.5.4-.4 2.2-5.6 3.2-5.3 1.2.2 10.7 3.3 9.8 4.6zm18.1 7c-2 1.3-6.8-2.1-9.3-2.6-2.8-.7 1.2-5 1.4-6.3 3-1.1 6.9 2 10 2.8 1.7.7-2 5.2-2 6zm-18.6-18.4c-17-6.9-34-14.2-50.7-22l23.8-49.7a1049.6 1049.6 0 0 0 102.3 41.1l-26 49a978 978 0 0 1 -49.4-18.5zm36.6 24.8c-2.3 1.4-6.6-1.8-9.2-2.3-2.8-.6 1.2-5 1.5-6.2.9-1.4 9.6 2 10.3 3.3.3 0-2.6 5-2.6 5.2zm17.7 6c-1.8 1.4-7.6-1.7-9.8-2.4-.3-.2-.5-.6-.3-1 .3-.3 2.5-5.4 3-5.2 1.2-.2 10.5 2.3 9.7 3.7l-2.7 4.9zm17.4 5.5c-2.7 1.3-6.2-1.5-9-1.8-2.7-.5 1.4-5 1.6-6.2.3-1.3 11 1.8 10 3.1zm19.7 0c-.2.2-2.8 5.3-3 5.2-3 .5-6.2-1.3-9-2-1.7-.6 2.1-5.2 2.2-6 .3-1.3 10.7 1.6 9.8 2.9zm14 9.3c-2.5 1.4-6-1-8.7-1.3-.8-.2-1.1-.7-.9-1.2.2-.1 2.8-5.2 3-5.1 1-.5 10 1.3 9.2 2.8l-2.7 4.8zm18.9-1c-.2.3-2.8 5.4-3.2 5.3-1.3.2-9.3-1-8.8-2.6l2.7-4.8c.4-1.3 10.2.8 9.3 2.2zm-18.6-9.4c-15.6-4-31.5-8.7-47-13.8l26.1-48.8c30.4 10 61.3 18.5 92.5 24.3l-27.8 48c-14.5-2.6-29.2-5.9-43.8-9.7zm34.4 12.7c-.7.8-2.6 5.7-4 5.4-1-.3-8.7-.8-7.8-2.4 1.6-2.2 2.4-6.8 6.2-5 .7.5 6.2.4 5.6 2zm15.2 2.7c0 .1-3 5.4-3.1 5.2-1 .6-2 .1-3 0-1.6-.5-4-.2-5.3-1.2-.6-.2 2.7-5.1 2.7-5.4.6-.6.9-.6 1.7-.6 1.1.5 7.8.5 7 2zm15.7 7.4c-3.3 1.6-7.5-.5-11.1-.5-.7-.1-1.4-.4-1.1-1 1-1.2 2.6-6.5 4.8-5.5 2.3.9 9.6.2 10.2 2.3zm22.3 1.9c-.5 1.3-13 .7-12.5-.9l2.9-4.7c3.2-1.7 7.7.2 11.2 0 .7 0 1.5.1 1.3.8zm22.6-4.6c-.6.6-2.8 5.3-3.8 5.3-1.7.2-10 1.3-10-.4.8-1 2.5-5.7 4.2-5.5 1.8.3 9.5-1.1 9.6.5zm17-1.6c-.5.5-3 5.2-3.7 5.3-2.6.6-6.3 1.7-8.8.9.4-.9 3-5.4 3.8-5.7 1-.2 9.3-2 8.6-.5zm14.1-3.4c-.9 1.2-2.9 5.7-4.5 6-2 .3-4.5 1.9-6.3 1.3.8-1.4 2.8-5.9 4.7-6.2 1 0 6.6-2.4 6.2-1zm11.2-4.8c-1.2 1.7-3 6-5.3 6.5-.7.2-3.9 2.5-3.8 1.4 2.7-4.3 2.9-5.7 7.8-7.7.4-.2 2-1.3 1.3-.2zm4-2.6c5.2-5.2 5.8-6.2 1.4.8a16.2 16.2 0 0 1 -4.6 4.4c-.2-.1 3-5 3.1-5.2zm14-32.4-21.3 33.5c-30.4 11.5-65.2 6.9-97.7 2.2 43.2-72.3 10.2-39.9 90.6-43 12.6-.5 25.1-2 36.7-6.6l-8.6 13.8zm-2.3-13.9c1-1.4 3-6.1 5-6.4 2-.2 4.5-1.7 6.3-1.3-.4 1-3.2 5.5-4 6-1.1.6-6.6 2.6-7.3 1.7zm22.8-12.6c-1.3 1.9-3.3 6.5-5.7 7.2-.7.1-4 2.4-3.9 1.2 1.5-2.2 3.4-6.6 6.4-7.1.6-.1 3.2-2 3.2-1.3zm-15.1.2c-4.4.7-9.9 2.3-14.7 1.8l29.4-47.8c6.2 11.2 11.8 23.8 9.3 36-7.1 5.4-14.5 7.9-24 10zm23.5-6.8c-2 3-4.8 8.5-8 9.6l.2-.3 3.2-5c1.2-1.6 3.3-3.2 4.6-4.3zm3.6-17.6c-.9 1-.8-3.2-1.2-3.8-1.5-2.4 2-6.2 3-8.1 1.3-1.4 1.9 5 1.8 6-.1.7-3.2 5.3-3.6 6zm1.7 9.7-.6.7c0-.1.9-1.5.6-.7zm1-4-3.2 5.2c-.3.3-.3.1-.3-.2.5-1.7.3-3.4.8-5.1.1-.9 3.2-5.3 3.6-6.1 1-.2-.2 5.5-.9 6.2z" fill="#303030" opacity=".08"/></svg>