<svg xmlns="http://www.w3.org/2000/svg" viewBox="0 0 191.065 161.509">
  <g transform="translate(-538.66 -27.101)">
    <g transform="translate(640.389 56.189)">
      <g>
        <path d="M66.282,101.256c-3.36-3.819-2.847-5.382-3.018-9.405-.392-2.692-1.891-6.937-1.448-9.6.513-4.329,3.735-5.368,3.068-9.576-1.432-5.915-9.107-9.338-9.325-16.205.151-7.859,2.82-18.173,12.309-19.981C61.783,33.9,53.823,44.453,52.29,49.241c-1.006,4.141.9,6.562.768,9.9-.017,4.517-2.106,10.985-2.122,15.5-.65,7.668,4.751,18.837,9.6,22.482" transform="translate(-50.882 -36.09)" fill="none" stroke="#fff" stroke-miterlimit="10" stroke-width="1"/>
        <path d="M52.509,56.871c-.067-6.528,5.378-11.092,11.9-11.132,6.592-.044,5.009-6.6,9.325-8.047,4.4-1.16,8,1.133,11.216,3.97" transform="translate(-47.054 -33.044)" fill="none" stroke="#fff" stroke-miterlimit="10" stroke-width="1"/>
        <path d="M56.38,56.187" transform="translate(-37.945 11.199)" fill="none" stroke="#fff" stroke-miterlimit="10" stroke-width="1"/>
        <path d="M54.032,54.21c1.056-2.169,3.688-6.233,7.326-7.407,2.542-.731,7-5.254,9.013-5.338,2.874.117,4.074,3.517,12.513,6.719,6.921,2.625,16.091-.681,18.22,8.607,1.978,8.949-1.4,17.845-7.363,24.628-5.1,5.982-17.754,9.409-25.661,9.409" transform="translate(-43.47 -23.442)" fill="none" stroke="#fff" stroke-miterlimit="10" stroke-width="1"/>
        <path d="M62.185,39.207c1.516-.272,4.4-1.157,5.881-.6,1.975.751,2.863,3.631,4.5,4.537,2.283,1.432,4.788,1.532,6.884,3.457,1.6,1.74,3.682,8.181,4.416,10.723.168,4.02-1.63,4.778-1.613,8.46" transform="translate(-24.286 -30.589)" fill="none" stroke="#fff" stroke-miterlimit="10" stroke-width="1"/>
        <path d="M68.158,43.166c.255-2.163,4.3,1.348,4.838,4.382.154.342-1.5,3.953-1.532,4.788-.409,1.824.885,2.88-.054,5.351-1.278,2.625-2.984,2.488-3.252,5.566" transform="translate(-10.231 -21.015)" fill="none" stroke="#fff" stroke-miterlimit="10" stroke-width="1"/>
        <path d="M70.742,42.605c6.921,2.625,10.227,11.793,7.3,18.033-1.656,3.615-7.621,10.4-10.689,11.776" transform="translate(-12.135 -20.76)" fill="none" stroke="#fff" stroke-miterlimit="10" stroke-width="1"/>
        <path d="M86.164,57c4.245-1.5,7.454-1.935,13.5-7.839-.084,6.186-3.8,12.084-7.655,16.279-4.382,4.838-5.71,4.617-12.614,5.673-4.7.476-13.841,5.439-20.044,4.154" transform="translate(-30.95 -5.343)" fill="none" stroke="#fff" stroke-miterlimit="10" stroke-width="1"/>
        <path d="M98.9,49.391c3.423,10.347-4.466,27.015-15.424,29.077-3.377.7-6.837-.614-9.989-1.244A53.579,53.579,0,0,0,59.831,76.6" transform="translate(-29.825 -4.792)" fill="none" stroke="#fff" stroke-miterlimit="10" stroke-width="1"/>
        <path d="M55.948,36.21a7.078,7.078,0,0,1,6.146,8.1" transform="translate(-38.962 -35.807)" fill="none" stroke="#fff" stroke-miterlimit="10" stroke-width="1"/>
        <path d="M62.72,38.66c5.589,2.4-4.637,7.008.989,8.574" transform="translate(-24.821 -30.042)" fill="none" stroke="#fff" stroke-miterlimit="10" stroke-width="1"/>
        <path d="M61.251,46.926c-.443-5.539,14.338-9.181,12.171-1.237,2.813.781,3.853,4,4.124,5.522" transform="translate(-26.507 -24.319)" fill="none" stroke="#fff" stroke-miterlimit="10" stroke-width="1"/>
        <path d="M58.63,44.686l.258-1.945c-.493-.188.034-.835-.272-1.516.681-.308,5.331-2.4,6.636.5" transform="translate(-32.682 -26.402)" fill="none" stroke="#fff" stroke-miterlimit="10" stroke-width="1"/>
        <path d="M59.369,43.947c1.345-4.3,4.654-3.323,8.148-2.847" transform="translate(-30.912 -25.34)" fill="none" stroke="#fff" stroke-miterlimit="10" stroke-width="1"/>
        <path d="M58.25,69.526c-4.6-5.231-2.874-13.868.791-19.451" transform="translate(-40.076 -3.182)" fill="none" stroke="#fff" stroke-miterlimit="10" stroke-width="1"/>
        <path d="M56.254,71.276c1.861-2.035,3.48-6.351,5.821-8.2,3-2.156,7.675-1.492,11.632-3.286,3.477-1.975,11.276-6.7,9.958-10.478" transform="translate(-38.242 -4.99)" fill="none" stroke="#fff" stroke-miterlimit="10" stroke-width="1"/>
      </g>
      <path d="M71.078,39.264A9.773,9.773,0,0,0,69,38.483c-.979.181-.959,1.1-2,1.438-.818.238-1.676.1-2.5.335-2.337.4-7.155,2.106-5.7,5.026" transform="translate(-32.871 -30.459)" fill="none" stroke="#fff" stroke-miterlimit="10" stroke-width="1"/>
    </g>
    <g transform="translate(588.783 107.405)">
      <g transform="translate(0)">
        <g transform="translate(1.241)">
          <path d="M59.1,80.239c-4.168-2.226-9.653-.285-14,.362-2.837.577-5.952,1.77-8.2-1.445-2.558-3.353.174-2.87,2.3-5.982,3.833-5.294,2.984-10.834,9.345-13.526,6.636-3.309,9.167-4.912,13.221.979-4.128-8.108,5.724-5.442,10.478-7.008,4.309-1.4,3.353-2.562,8.342-2.183,2.874.174,3.863,2.089,6.941.144-1,4.664,1.807,5.794-3.749,10.066" transform="translate(-35.861 -51.364)" fill="none" stroke="#fff" stroke-miterlimit="10" stroke-width="1"/>
          <path d="M53.955,59.372c4.037-4.1,2.528-6.361,6.629-2.324C65.161,61.669,66.5,60.17,71.662,61,79.25,62.165,83.411,74.34,84.293,80.634c.61,3.588.741,8.054-1.311,11.209-4.842,7.447-4.339,4.517-8.644,2.6-5.67-2.991-8.134-6.994-11.347-9.824" transform="translate(6.713 -42.977)" fill="none" stroke="#fff" stroke-miterlimit="10" stroke-width="1"/>
          <path d="M75.3,64.678c5.123,6.706,9.026,5.814,3.843,23.019-1.167,3.866-4.449,5.019-7.631,8.027-1.026.647-1.542,2.629-2.874,3.142-2.223.852-2.907-.925-4.855-.691-4.788.818-6.773,3.618-9.982-.761-.989-1.915-3.524-3.621-3.487-6.186" transform="translate(-1.868 -20.037)" fill="none" stroke="#fff" stroke-miterlimit="10" stroke-width="1"/>
          <path d="M76.631,83.32c2.193,7.937-5.67,15.793-20.128,5.754-2.475-1.717-.711-3.487-2.146-5.234-2.22-2.461-3.936.681-6.227.03-3.655-.892-12.919-8.071-7.43-16.413" transform="translate(-28.47 -13.498)" fill="none" stroke="#fff" stroke-miterlimit="10" stroke-width="1"/>
          <path d="M47.589,77.469c-.583,3.8-6,6.86-7.427,9.7-1.415,2.8-2.089,3.859-3.8-.587-1.16-2.357.211-5.435.248-8-.131-6.324-1.908-8.956,4.423-12.4C45.312,64.024,55.9,63.6,58.3,59.876" transform="translate(-35.767 -31.336)" fill="none" stroke="#fff" stroke-miterlimit="10" stroke-width="1"/>
          <path d="M72.976,60.6c2.491,5.164,6.183,3.491,9.5,6.81,2.049,2.019,4.228,10.364,3.3,13.268-3.46,10.254-12.131,4.939-18.807-2.937.547-1.231-1.834-2.31-3.675-4.131-5.633-1.462-5.69-.433-8.735-4.453-3.108-4.107-10.388-5.616-8.037-13.711,5.4-.543,8.956-1.908,14.6-.5C66,56.39,68.362,58.546,72.53,60.772" transform="translate(-11.861 -44.377)" fill="none" stroke="#fff" stroke-miterlimit="10" stroke-width="1"/>
          <path d="M69.048,59.012c-13.982-2.542-27.8,8.624-29.594,22.569-.55,4.547,1.623,19.521,9.11,18.435,3.454-.305,4.349-7.276,4.111-9.224-.1-2.257.55-1.231-.781-4.037a13.944,13.944,0,0,0-3.655-4.208c-3.45-3.011-4.58-1.3-5.123-6.706-.577-2.837.815-5.04,2.357-7.672" transform="translate(-27.599 -34.224)" fill="none" stroke="#fff" stroke-miterlimit="10" stroke-width="1"/>
          <path d="M48.223,58.757" transform="translate(-6.774 -33.969)" fill="none" stroke="#fff" stroke-miterlimit="10" stroke-width="1"/>
          <path d="M44.753,81.744C40.321,71.524,43.466,65.287,47.5,61.19" transform="translate(-20.013 -28.245)" fill="none" stroke="#fff" stroke-miterlimit="10" stroke-width="1"/>
        </g>
        <g transform="translate(25.262 24.784)">
          <path d="M48.6,58.756" transform="translate(-29.92 -58.756)" fill="none" stroke="#fff" stroke-miterlimit="10" stroke-width="1"/>
          <path d="M81.873,69.966c2.086,12.379-7.947,19.783-11.551,19.179-1.6-.278-.479-1.573-1.143-2.984-.422-.9-1.747-1.123-3.212-1.321-2.079-.282-3.155.959-4.751.681-2.126-.376-1.408-.057-3.645-.191-2.354-.188-3.35-1.492-5.157-2.585-1.928-1.147-3.977-1.056-5.573-2.625-1.9-1.851-3.96-7.216-3.2-9.888.456-1.663.429-3.537,1.482-4.936a24.152,24.152,0,0,1,3.1-4.067" transform="translate(-41.957 -52.939)" fill="none" stroke="#fff" stroke-miterlimit="10" stroke-width="1"/>
          <path d="M50.359,69.994" transform="translate(-25.769 -32.313)" fill="none" stroke="#fff" stroke-miterlimit="10" stroke-width="1"/>
          <path d="M52.434,74.421a3.3,3.3,0,0,1-3.618.4,9.175,9.175,0,0,1-1.727-.627c-.453-.919.412-1.251.265-1.888-.476-1.506-1.117-1.358-.057-2.609.516-.607,1.2-.671,1.757-1.284" transform="translate(-34.326 -36.042)" fill="none" stroke="#fff" stroke-miterlimit="10" stroke-width="1"/>
          <path d="M49.983,69.181c-.094.53-1.13.929-1.968.557.238-1.184,1.264-.583,2.2-.744.01.3-.235.362-.168.536" transform="translate(-31.285 -34.699)" fill="none" stroke="#fff" stroke-miterlimit="10" stroke-width="1"/>
          <path d="M50.938,69.4c-1.08.811-1.479-.228-2.411-.07-.982.278-.52,1.492-1.6,1.009" transform="translate(-33.835 -33.91)" fill="none" stroke="#fff" stroke-miterlimit="10" stroke-width="1"/>
          <path d="M44.764,64.262c-.322,2.008-1.72,4.828-1.737,7.115-.07,3.7,1.66,4.325,3.014,7.082s2.082,4.657,4.57,6.481c1.516,1.107,4.533,3.024,6.357,1.831-1.395-2.344-4.148-2.28-2.431-5.818.429-.959,1.878-1.314,1.573-2.884-.144-.64-.764-.976-1.422-1.64" transform="translate(-43.025 -45.8)" fill="none" stroke="#fff" stroke-miterlimit="10" stroke-width="1"/>
          <path d="M65.361,75.3c-1.013.982-2.434.634-3.725.634-2.287-.017-4.312.661-6.626.06-2.555-.708-8.084-2.454-9.147-5.224" transform="translate(-36.348 -30.484)" fill="none" stroke="#fff" stroke-miterlimit="10" stroke-width="1"/>
          <path d="M47.22,70.99a5.915,5.915,0,0,0,2.411,1.831c1.029.349,4.53-.027,4.332-.547" transform="translate(-33.155 -29.969)" fill="none" stroke="#fff" stroke-miterlimit="10" stroke-width="1"/>
          <path d="M55.137,71.314c-1.459.241-2.867-.811-3.534-1-.312-.03-.506-.8-.865-.959-.4-.07-1.938.644-2.384.446-.758-.231-1.257-.56-.677-1.378" transform="translate(-32.676 -36.016)" fill="none" stroke="#fff" stroke-miterlimit="10" stroke-width="1"/>
          <path d="M48.6,70.356a1.408,1.408,0,0,0-.278-.339c-.4-.392-.433-.479-.493-1.153" transform="translate(-31.734 -34.972)" fill="none" stroke="#fff" stroke-miterlimit="10" stroke-width="1"/>
          <path d="M51.546,68.321c.986,2.377-4.134,2.032-.372,4.46,1.355.821,4.688,1.552,5.475-.463" transform="translate(-27.147 -36.249)" fill="none" stroke="#fff" stroke-miterlimit="10" stroke-width="1"/>
          <path d="M54.529,72.246c.184.228.278-.305.121.054-.523,1.492-1.7-.04-2.236-.134-1.542-.4-3.91-.882-3.655-3.061" transform="translate(-29.58 -34.407)" fill="none" stroke="#fff" stroke-miterlimit="10" stroke-width="1"/>
          <path d="M48.276,70.349a3.616,3.616,0,0,0,2.26.721" transform="translate(-30.671 -31.477)" fill="none" stroke="#fff" stroke-miterlimit="10" stroke-width="1"/>
          <path d="M51.8,71.494c.758,1.2-4.124,2.176-3.5-.842.946.134,1.623-.423,1.465-1.355" transform="translate(-30.738 -33.95)" fill="none" stroke="#fff" stroke-miterlimit="10" stroke-width="1"/>
        </g>
        <path d="M38.066,82.905c-.842-1.328-1-3.467-1.65-4.869a14.2,14.2,0,0,1-.818-6.726c.369-1.9-.127-4.352.255-5.932.684-2.24,2.776-1.945,4.151-3.239" transform="translate(-35.491 -26.009)" fill="none" stroke="#fff" stroke-miterlimit="10" stroke-width="1"/>
        <path d="M35.873,67.883a10.08,10.08,0,0,1,5.844-4.55c2.434-.825,11.658-1.1,13.858-2.827" transform="translate(-34.593 -29.854)" fill="none" stroke="#fff" stroke-miterlimit="10" stroke-width="1"/>
        <path d="M43.494,54.944c-2.35,4.2-8.151,8.3-7.581,13.8" transform="translate(-34.592 -42.941)" fill="none" stroke="#fff" stroke-miterlimit="10" stroke-width="1"/>
        <path d="M43.8,54.285c2.853.557,7.165,3.192,7.407,6.4" transform="translate(-15.943 -44.492)" fill="none" stroke="#fff" stroke-miterlimit="10" stroke-width="1"/>
        <path d="M58.288,56.9c5.64,1.8,10.834,6.74,11.779,12.648.614,5.043,6.512,16.976.624,20.554" transform="translate(18.15 -38.344)" fill="none" stroke="#fff" stroke-miterlimit="10" stroke-width="1"/>
        <path d="M41.064,71.921" transform="translate(-22.378 -2.994)" fill="none" stroke="#fff" stroke-miterlimit="10" stroke-width="1"/>
        <path d="M69.23,79.3c-5.137,5.107-10.173,3.417-15.528,1.509-2.475-.865-5.4-.734-7.32-2.307-2.035-1.861-2.357-4.885-4.657-6.149" transform="translate(-20.823 -1.98)" fill="none" stroke="#fff" stroke-miterlimit="10" stroke-width="1"/>
        <path d="M67.6,59.635c-1.549.265-3.7.262-4.8,1.677-1.2,1.613-.137,3.517-1.643,4.755-2.525,2.454-2.257-.288-4.047-1.086-1.992-.889-2.565-.667-4.8-.469-1.636.463-9.8,3.266-10.931,2.049S46.466,60.477,48,59.726" transform="translate(-21.97 -31.903)" fill="none" stroke="#fff" stroke-miterlimit="10" stroke-width="1"/>
        <path d="M55.4,83.685c-.533,1.194-.335,2.354-2.525,2.451h0c-.4.9-1.365,2.257-1.331,2.988-.433.164-1.328-.235-1.328-.235,6,6.609,14.438-1.083,19.022-6.552,3.491-3.816,1.871-10.619,1.871-10.619-1.291-2.723-4.721-6.136-6.709-8.1" transform="translate(-0.832 -22.527)" fill="none" stroke="#fff" stroke-miterlimit="10" stroke-width="1"/>
        <path d="M54.943,73.847c3.853-5.442,2.334-13.278-5.3-13.814" transform="translate(-2.187 -30.967)" fill="none" stroke="#fff" stroke-miterlimit="10" stroke-width="1"/>
        <path d="M53.007,66.328c1-3.849-.59-6.706-4.708-7.108" transform="translate(-5.354 -32.88)" fill="none" stroke="#fff" stroke-miterlimit="10" stroke-width="1"/>
        <path d="M51.139,66.093c-1.921-3.719-9.4-6.22-9.057-10.814" transform="translate(-20.007 -42.153)" fill="none" stroke="#fff" stroke-miterlimit="10" stroke-width="1"/>
        <path d="M51.517,60.932a19.4,19.4,0,0,0-10.086-3.065" transform="translate(-21.515 -36.064)" fill="none" stroke="#fff" stroke-miterlimit="10" stroke-width="1"/>
        <path d="M56.6,69.011a11.71,11.71,0,0,0-2.314-12.48" transform="translate(8.726 -39.207)" fill="none" stroke="#fff" stroke-miterlimit="10" stroke-width="1"/>
        <path d="M50.432,60.07c2.226-2.589,6.81-4.838,10.227-3.675" transform="translate(-0.335 -40.268)" fill="none" stroke="#fff" stroke-miterlimit="10" stroke-width="1"/>
        <path d="M52.9,60.426a5.4,5.4,0,0,1,4.218-3.846" transform="translate(5.463 -39.092)" fill="none" stroke="#fff" stroke-miterlimit="10" stroke-width="1"/>
        <path d="M50.3,56.5c3.353-.3,7.269-1.053,10.686.111" transform="translate(-0.658 -40.487)" fill="none" stroke="#fff" stroke-miterlimit="10" stroke-width="1"/>
        <path d="M63.2,72.7a9.512,9.512,0,0,0-8.158-9" transform="translate(10.503 -22.343)" fill="none" stroke="#fff" stroke-miterlimit="10" stroke-width="1"/>
        <path d="M67.664,64.723c-3.185.724-7.568.922-9.754-2.2" transform="translate(17.261 -25.108)" fill="none" stroke="#fff" stroke-miterlimit="10" stroke-width="1"/>
        <path d="M47.723,58.018a6.234,6.234,0,0,0,2.394-5.372" transform="translate(-6.71 -48.349)" fill="none" stroke="#fff" stroke-miterlimit="10" stroke-width="1"/>
      </g>
      <path d="M59.607,89.833c5.043,1.532,3.437,14.207,7.719,15.042,5.009.8,10.663-10.28,10.964-13.365.168-2.786-.761-3.916.7-7.2,1.2-2.686,2.692-5.241,2.86-8.027.469-5.874-3.537-13.744-8.215-16.9-1.1,1.656-3.286,1.757-4.912,1.388" transform="translate(21.254 -32.501)" fill="none" stroke="#fff" stroke-miterlimit="10" stroke-width="1"/>
      <path d="M62.67,96.4c3.916-.761,7.712-8.872,9.741-12.621,1.76-3.152,3.953-6.468,3.923-10.418s-1.918-6.937-2.079-10.589" transform="translate(28.461 -24.531)" fill="none" stroke="#fff" stroke-miterlimit="10" stroke-width="1"/>
    </g>
    <g transform="translate(729.267 27.548) rotate(90)">
      <path d="M0,16.648C.758,11.729,5.3.379,9.459,0" transform="translate(12.735 77.834) rotate(-90)" fill="none" stroke="#fff" stroke-miterlimit="10" stroke-width="1"/>
      <path d="M0,.758C.379.379.379,0,.758,0" transform="translate(109.56 138.745) rotate(-90)" fill="none" stroke="#fff" stroke-miterlimit="10" stroke-width="1"/>
      <path d="M12.866,0C8.326.758,3.786,4.54,0,7.189,6.434,4.54,7.95-.764,14.76,1.127" transform="translate(119.777 183.011) rotate(-90)" fill="none" stroke="#fff" stroke-miterlimit="10" stroke-width="1"/>
      <path d="M36.555,12.832C28.474,6.1,26.667,8.433,17.392,8.55,10.867,8.832,5.127,3.9,0,0" transform="translate(122.476 36.555) rotate(-90)" fill="none" stroke="#fff" stroke-miterlimit="10" stroke-width="1"/>
      <path d="M0,0C3.159,2.012,8.862,1.526,12.758,3.373c12.061,5.469,13.61,19.464,18.281,30.053" transform="translate(101.882 31.039) rotate(-90)" fill="none" stroke="#fff" stroke-miterlimit="10" stroke-width="1"/>
      <path d="M1.271.493c7.39-1.636,19.575,2.642,22.975,9.251C19.24,8.141,14.2,4.607,9.107,2.632,6.565,1.646,1.355.862,0,0" transform="translate(108.973 40.32) rotate(-90)" fill="none" stroke="#fff" stroke-miterlimit="10" stroke-width="1"/>
      <path d="M15.132,0C11.35,2.649,4.919,18.539,0,15.511" transform="translate(0 72.536) rotate(-90)" fill="none" stroke="#fff" stroke-miterlimit="10" stroke-width="1"/>
      <path d="M.013,14.378C-.363,6.431,7.581,3.028,13.633,0" transform="translate(0 71.037) rotate(-90)" fill="none" stroke="#fff" stroke-miterlimit="10" stroke-width="1"/>
      <path d="M14.753,17.784C15.511,9.08,3.4,6.81,0,0,.376,3.786,1.891,10.217,3.782,13.62,6.81,18.16,10.213,17.406,14,20.054" transform="translate(9.328 94.099) rotate(-90)" fill="none" stroke="#fff" stroke-miterlimit="10" stroke-width="1"/>
      <path d="M0,9.459C.758,0,16.269.754,23.458,0h0c-4.54,2.649-7.947,7.189-13.62,8.7-2.649.758-6.431.379-7.947,2.649" transform="translate(17.654 74.806) rotate(-90)" fill="none" stroke="#fff" stroke-miterlimit="10" stroke-width="1"/>
      <path d="M0,10.6C.379,1.516,11.35,2.27,17.4,0,13.241,3.786,5.673,7.947,3.024,11.35" transform="translate(23.327 64.968) rotate(-90)" fill="none" stroke="#fff" stroke-miterlimit="10" stroke-width="1"/>
      <path d="M0,10.592C13.244,10.592,24.594,7.568,35.566,0" transform="translate(110.318 169.392) rotate(-90)" fill="none" stroke="#fff" stroke-miterlimit="10" stroke-width="1"/>
      <path d="M31.15,7.51c-3.407.379-6.18-3.973-8.829-5.489C15.89-1.761,5.3.13,0,4.67c7.943-1.891,12.483.758,19.293,3.786,3.786,1.512,6.434,1.891,10.217-.379" transform="translate(102.999 172.795) rotate(-90)" fill="none" stroke="#fff" stroke-miterlimit="10" stroke-width="1"/>
      <path d="M18.16,1.512C10.217.379,3.407,15.132,0,20.809H0C8.7,14.753,17.4,12.483,18.539,0" transform="translate(117.886 164.094) rotate(-90)" fill="none" stroke="#fff" stroke-miterlimit="10" stroke-width="1"/>
      <path d="M0,13.2C4.916,6.394,9.834,9.8,16.644,9.8c10.971,0,7.068-4.879,11.987-9.8" transform="translate(120.95 190.197) rotate(-90)" fill="none" stroke="#fff" stroke-miterlimit="10" stroke-width="1"/>
      <path d="M27.113,1.981C15.384-5.208,6.052,8.834,0,17.539" transform="translate(116.616 190.197) rotate(-90)" fill="none" stroke="#fff" stroke-miterlimit="10" stroke-width="1"/>
      <path d="M4.54,0C2.649,1.512,1.512,3.782,0,5.673,2.27,4.54,4.161,1.891,5.3,0" transform="translate(122.805 155.014) rotate(-90)" fill="none" stroke="#fff" stroke-miterlimit="10" stroke-width="1"/>
      <path d="M0,.024C4.161-.355,7.943,3.806,10.971,6.076" transform="translate(105.754 156.905) rotate(-90)" fill="none" stroke="#fff" stroke-miterlimit="10" stroke-width="1"/>
      <path d="M10.507,31.394C.994,34.566-.273,4.755.042,0,2.58,1.267,3.214,5.707,5.118,7.927c2.22,3.172,5.707,5.392,7.927,8.564,3.172,4.439,1.586,5.073.952,10.146" transform="translate(48.086 104.402) rotate(-90)" fill="none" stroke="#fff" stroke-miterlimit="10" stroke-width="1"/>
      <path d="M0,0C.319,3.487,1.9,8.879,6.025,9.513" transform="translate(66.162 95.162) rotate(-90)" fill="none" stroke="#fff" stroke-miterlimit="10" stroke-width="1"/>
      <path d="M0,0" transform="translate(16.52 31.25) rotate(-90)" fill="none" stroke="#fff" stroke-miterlimit="10" stroke-width="1"/>
    </g>
  </g>
</svg>
