<svg xmlns="http://www.w3.org/2000/svg" viewBox="0 0 179.206 212.029">
  <g transform="translate(206.307 -634.755) rotate(90)">
    <g transform="translate(747.651 59.346)">
      <g>
        <path d="M67.98,108.439c-3.73-4.24-3.16-5.975-3.35-10.442-.436-2.989-2.1-7.7-1.608-10.654.57-4.806,4.147-5.96,3.406-10.632-1.59-6.567-10.111-10.367-10.353-17.991.168-8.726,3.131-20.176,13.666-22.183-6.757-2.874-15.594,8.837-17.3,14.153-1.117,4.6,1,7.285.852,11-.019,5.014-2.338,12.2-2.356,17.21-.722,8.514,5.275,20.914,10.654,24.96" transform="translate(-50.882 -36.09)" fill="none" stroke="#fff" stroke-miterlimit="10" stroke-width="1"/>
        <path d="M52.509,59.019C52.435,51.771,58.481,46.7,65.725,46.66c7.319-.048,5.562-7.33,10.353-8.934,4.884-1.288,8.886,1.258,12.452,4.408" transform="translate(-46.453 -32.566)" fill="none" stroke="#fff" stroke-miterlimit="10" stroke-width="1"/>
        <path d="M56.38,56.187" transform="translate(-35.913 18.627)" fill="none" stroke="#fff" stroke-miterlimit="10" stroke-width="1"/>
        <path d="M54.032,55.615c1.173-2.409,4.095-6.92,8.134-8.223,2.822-.812,7.773-5.833,10.006-5.926,3.19.13,4.523,3.905,13.893,7.46,7.683,2.915,17.865-.756,20.229,9.556,2.2,9.936-1.552,19.812-8.175,27.342C92.46,92.465,78.408,96.269,69.63,96.269" transform="translate(-42.306 -21.455)" fill="none" stroke="#fff" stroke-miterlimit="10" stroke-width="1"/>
        <path d="M62.185,39.292c1.683-.3,4.88-1.284,6.529-.663,2.193.834,3.179,4.032,5,5.037,2.535,1.59,5.316,1.7,7.643,3.838,1.779,1.932,4.087,9.083,4.9,11.9.186,4.463-1.809,5.3-1.791,9.392" transform="translate(-20.109 -29.725)" fill="none" stroke="#fff" stroke-miterlimit="10" stroke-width="1"/>
        <path d="M68.158,43.24c.283-2.4,4.769,1.5,5.372,4.865.171.38-1.664,4.389-1.7,5.316-.454,2.025.983,3.2-.06,5.941-1.418,2.915-3.313,2.762-3.611,6.18" transform="translate(-3.847 -18.647)" fill="none" stroke="#fff" stroke-miterlimit="10" stroke-width="1"/>
        <path d="M71.116,42.605C78.8,45.52,82.47,55.7,79.217,62.625,77.378,66.638,70.755,74.169,67.349,75.7" transform="translate(-6.049 -18.352)" fill="none" stroke="#fff" stroke-miterlimit="10" stroke-width="1"/>
        <path d="M89.119,57.86c4.713-1.664,8.275-2.148,14.991-8.7-.093,6.868-4.221,13.416-8.5,18.073-4.865,5.372-6.34,5.126-14,6.3-5.223.529-15.367,6.038-22.254,4.612" transform="translate(-27.819 -0.513)" fill="none" stroke="#fff" stroke-miterlimit="10" stroke-width="1"/>
        <path d="M103.2,49.391c3.8,11.488-4.959,29.993-17.124,32.282-3.749.774-7.59-.681-11.09-1.381-4.43-.737-10.863-1.258-15.158-.692" transform="translate(-26.518 0.124)" fill="none" stroke="#fff" stroke-miterlimit="10" stroke-width="1"/>
        <path d="M55.948,36.21c3.879.532,7.683,4.169,6.824,8.994" transform="translate(-37.089 -35.763)" fill="none" stroke="#fff" stroke-miterlimit="10" stroke-width="1"/>
        <path d="M62.8,38.66c6.206,2.669-5.148,7.78,1.1,9.519" transform="translate(-20.728 -29.092)" fill="none" stroke="#fff" stroke-miterlimit="10" stroke-width="1"/>
        <path d="M61.252,47.569c-.491-6.15,15.918-10.192,13.513-1.374,3.123.867,4.277,4.445,4.579,6.131" transform="translate(-22.679 -22.47)" fill="none" stroke="#fff" stroke-miterlimit="10" stroke-width="1"/>
        <path d="M58.632,45.18l.287-2.159c-.547-.208.037-.927-.3-1.683.756-.342,5.919-2.665,7.367.551" transform="translate(-29.823 -24.88)" fill="none" stroke="#fff" stroke-miterlimit="10" stroke-width="1"/>
        <path d="M59.369,44.309c1.493-4.769,5.167-3.689,9.046-3.16" transform="translate(-27.775 -23.652)" fill="none" stroke="#fff" stroke-miterlimit="10" stroke-width="1"/>
        <path d="M58.556,71.67c-5.111-5.807-3.19-15.4.879-21.595" transform="translate(-38.379 1.986)" fill="none" stroke="#fff" stroke-miterlimit="10" stroke-width="1"/>
        <path d="M56.254,73.7c2.066-2.26,3.864-7.051,6.462-9.109,3.332-2.394,8.521-1.657,12.914-3.648,3.86-2.193,12.519-7.441,11.056-11.633" transform="translate(-36.256 -0.105)" fill="none" stroke="#fff" stroke-miterlimit="10" stroke-width="1"/>
      </g>
      <path d="M72.461,39.35a10.85,10.85,0,0,0-2.308-.867c-1.087.2-1.065,1.221-2.219,1.6-.908.264-1.861.108-2.773.372-2.595.443-7.944,2.338-6.325,5.58" transform="translate(-30.042 -29.574)" fill="none" stroke="#fff" stroke-miterlimit="10" stroke-width="1"/>
    </g>
    <g transform="translate(690.357 116.207)">
      <g transform="translate(0)">
        <g transform="translate(1.378)">
          <path d="M61.658,83.422c-4.627-2.472-10.717-.316-15.538.4-3.149.64-6.608,1.966-9.109-1.6-2.84-3.723.194-3.187,2.55-6.641,4.255-5.878,3.313-12.028,10.375-15.017,7.367-3.674,10.178-5.454,14.678,1.087-4.582-9,6.354-6.042,11.633-7.78,4.784-1.552,3.723-2.844,9.262-2.423,3.19.194,4.288,2.319,7.706.16-1.106,5.178,2.006,6.433-4.162,11.175" transform="translate(-35.861 -51.364)" fill="none" stroke="#fff" stroke-miterlimit="10" stroke-width="1"/>
          <path d="M53.955,59.862c4.482-4.549,2.807-7.062,7.36-2.58,5.081,5.13,6.57,3.466,12.3,4.385,8.424,1.3,13.044,14.812,14.023,21.8.678,3.983.823,8.942-1.456,12.445-5.375,8.268-4.817,5.014-9.6,2.881-6.295-3.321-9.031-7.765-12.6-10.907" transform="translate(13.4 -41.66)" fill="none" stroke="#fff" stroke-miterlimit="10" stroke-width="1"/>
          <path d="M78.049,64.678c5.688,7.445,10.021,6.455,4.266,25.556-1.3,4.292-4.94,5.573-8.473,8.912-1.139.718-1.712,2.919-3.19,3.488-2.468.946-3.228-1.027-5.39-.767-5.316.908-7.52,4.017-11.082-.845-1.1-2.126-3.912-4.02-3.872-6.868" transform="translate(3.471 -15.117)" fill="none" stroke="#fff" stroke-miterlimit="10" stroke-width="1"/>
          <path d="M80.779,85.069c2.435,8.811-6.295,17.533-22.347,6.388-2.747-1.906-.789-3.871-2.382-5.811-2.464-2.732-4.37.756-6.913.033-4.058-.99-14.343-8.96-8.249-18.222" transform="translate(-27.309 -7.551)" fill="none" stroke="#fff" stroke-miterlimit="10" stroke-width="1"/>
          <path d="M48.877,79.409c-.648,4.214-6.66,7.616-8.246,10.766-1.571,3.112-2.319,4.285-4.214-.651-1.288-2.617.235-6.034.275-8.882-.145-7.021-2.118-9.943,4.91-13.77,4.746-2.39,16.5-2.859,19.16-6.995" transform="translate(-35.753 -28.191)" fill="none" stroke="#fff" stroke-miterlimit="10" stroke-width="1"/>
          <path d="M75.942,61.3c2.766,5.733,6.864,3.875,10.542,7.561,2.275,2.241,4.694,11.507,3.667,14.73-3.842,11.384-13.468,5.483-20.88-3.261.607-1.366-2.036-2.565-4.08-4.586-6.254-1.623-6.317-.48-9.7-4.944-3.451-4.56-11.533-6.235-8.923-15.222,6-.6,9.943-2.118,16.2-.555,5.428,1.6,8.045,3.991,12.672,6.462" transform="translate(-8.092 -43.28)" fill="none" stroke="#fff" stroke-miterlimit="10" stroke-width="1"/>
          <path d="M72.318,59.052C56.8,56.23,41.451,68.626,39.463,84.108c-.61,5.048,1.8,21.673,10.114,20.467,3.834-.339,4.828-8.078,4.564-10.241-.112-2.505.611-1.366-.867-4.482-1.1-2.126-2.312-3.075-4.058-4.672-3.831-3.343-5.085-1.448-5.688-7.445-.64-3.149.9-5.6,2.617-8.517" transform="translate(-26.301 -31.532)" fill="none" stroke="#fff" stroke-miterlimit="10" stroke-width="1"/>
          <path d="M48.223,58.757" transform="translate(-2.206 -31.237)" fill="none" stroke="#fff" stroke-miterlimit="10" stroke-width="1"/>
          <path d="M44.991,84.01c-4.921-11.346-1.429-18.271,3.053-22.82" transform="translate(-17.523 -24.613)" fill="none" stroke="#fff" stroke-miterlimit="10" stroke-width="1"/>
        </g>
        <g transform="translate(28.047 27.516)">
          <path d="M48.6,58.756" transform="translate(-27.862 -58.756)" fill="none" stroke="#fff" stroke-miterlimit="10" stroke-width="1"/>
          <path d="M86.1,70.929c2.315,13.744-8.823,21.963-12.824,21.293-1.772-.309-.532-1.746-1.269-3.313-.469-.994-1.939-1.247-3.566-1.467-2.308-.313-3.5,1.065-5.275.756-2.36-.417-1.563-.063-4.046-.212-2.613-.208-3.719-1.657-5.725-2.87-2.14-1.273-4.415-1.173-6.187-2.915-2.111-2.055-4.4-8.011-3.551-10.978.506-1.846.476-3.927,1.645-5.48a26.813,26.813,0,0,1,3.447-4.516" transform="translate(-41.789 -52.026)" fill="none" stroke="#fff" stroke-miterlimit="10" stroke-width="1"/>
          <path d="M50.359,69.994" transform="translate(-23.059 -28.159)" fill="none" stroke="#fff" stroke-miterlimit="10" stroke-width="1"/>
          <path d="M53.064,75.084c-1.448,1.106-2.494.957-4.017.439a10.186,10.186,0,0,1-1.917-.7c-.5-1.02.458-1.389.294-2.1-.529-1.671-1.24-1.508-.063-2.9.573-.674,1.329-.744,1.951-1.426" transform="translate(-32.959 -32.475)" fill="none" stroke="#fff" stroke-miterlimit="10" stroke-width="1"/>
          <path d="M50.2,69.2c-.1.588-1.255,1.031-2.185.618.264-1.314,1.4-.648,2.438-.826.011.328-.261.4-.186.6" transform="translate(-29.441 -30.92)" fill="none" stroke="#fff" stroke-miterlimit="10" stroke-width="1"/>
          <path d="M51.38,69.412c-1.2.9-1.642-.253-2.677-.078-1.091.309-.577,1.657-1.772,1.121" transform="translate(-32.392 -30.008)" fill="none" stroke="#fff" stroke-miterlimit="10" stroke-width="1"/>
          <path d="M44.956,64.262c-.357,2.23-1.91,5.361-1.928,7.9-.078,4.106,1.843,4.8,3.347,7.862s2.312,5.171,5.074,7.2c1.683,1.228,5.033,3.358,7.058,2.033-1.549-2.6-4.6-2.531-2.7-6.459.477-1.065,2.085-1.459,1.746-3.2-.16-.711-.849-1.083-1.578-1.82" transform="translate(-43.025 -43.765)" fill="none" stroke="#fff" stroke-miterlimit="10" stroke-width="1"/>
          <path d="M67.51,75.8c-1.124,1.091-2.7.7-4.136.7-2.539-.019-4.787.733-7.356.067-2.837-.785-8.975-2.725-10.155-5.8" transform="translate(-35.3 -26.044)" fill="none" stroke="#fff" stroke-miterlimit="10" stroke-width="1"/>
          <path d="M47.22,70.99A6.567,6.567,0,0,0,49.9,73.023c1.143.387,5.029-.03,4.81-.607" transform="translate(-31.605 -25.448)" fill="none" stroke="#fff" stroke-miterlimit="10" stroke-width="1"/>
          <path d="M55.987,71.633c-1.619.268-3.183-.9-3.924-1.113-.346-.034-.562-.886-.96-1.065-.443-.078-2.152.715-2.647.5-.841-.257-1.4-.622-.752-1.53" transform="translate(-31.051 -32.445)" fill="none" stroke="#fff" stroke-miterlimit="10" stroke-width="1"/>
          <path d="M48.68,70.521a1.563,1.563,0,0,0-.309-.376c-.443-.436-.48-.532-.547-1.281" transform="translate(-29.961 -31.236)" fill="none" stroke="#fff" stroke-miterlimit="10" stroke-width="1"/>
          <path d="M51.741,68.321c1.094,2.639-4.59,2.256-.413,4.951,1.5.912,5.2,1.724,6.079-.514" transform="translate(-24.653 -32.714)" fill="none" stroke="#fff" stroke-miterlimit="10" stroke-width="1"/>
          <path d="M55.167,72.592c.2.253.309-.339.134.06-.581,1.657-1.891-.045-2.483-.149-1.712-.447-4.341-.979-4.058-3.4" transform="translate(-27.469 -30.583)" fill="none" stroke="#fff" stroke-miterlimit="10" stroke-width="1"/>
          <path d="M48.276,70.349a4.014,4.014,0,0,0,2.509.8" transform="translate(-28.73 -27.193)" fill="none" stroke="#fff" stroke-miterlimit="10" stroke-width="1"/>
          <path d="M52.192,71.736c.841,1.329-4.579,2.416-3.883-.934,1.05.149,1.8-.469,1.627-1.5" transform="translate(-28.808 -30.054)" fill="none" stroke="#fff" stroke-miterlimit="10" stroke-width="1"/>
        </g>
        <path d="M38.349,85.194c-.934-1.474-1.109-3.849-1.832-5.405a15.767,15.767,0,0,1-.908-7.468c.409-2.114-.141-4.832.283-6.585.759-2.487,3.082-2.159,4.609-3.6" transform="translate(-35.491 -22.027)" fill="none" stroke="#fff" stroke-miterlimit="10" stroke-width="1"/>
        <path d="M35.873,68.7a11.191,11.191,0,0,1,6.488-5.052c2.7-.916,12.943-1.225,15.385-3.138" transform="translate(-34.452 -26.476)" fill="none" stroke="#fff" stroke-miterlimit="10" stroke-width="1"/>
        <path d="M44.334,54.944c-2.61,4.664-9.05,9.21-8.417,15.318" transform="translate(-34.451 -41.619)" fill="none" stroke="#fff" stroke-miterlimit="10" stroke-width="1"/>
        <path d="M43.8,54.285c3.168.618,7.955,3.544,8.223,7.106" transform="translate(-12.873 -43.413)" fill="none" stroke="#fff" stroke-miterlimit="10" stroke-width="1"/>
        <path d="M58.288,56.9c6.261,2,12.028,7.482,13.077,14.042.681,5.6,7.229,18.848.692,22.82" transform="translate(26.575 -36.299)" fill="none" stroke="#fff" stroke-miterlimit="10" stroke-width="1"/>
        <path d="M41.064,71.921" transform="translate(-20.319 4.603)" fill="none" stroke="#fff" stroke-miterlimit="10" stroke-width="1"/>
        <path d="M72.261,80.065c-5.7,5.67-11.294,3.793-17.239,1.675-2.747-.96-5.993-.815-8.126-2.561-2.26-2.066-2.617-5.424-5.171-6.827" transform="translate(-18.519 5.776)" fill="none" stroke="#fff" stroke-miterlimit="10" stroke-width="1"/>
        <path d="M70.5,59.635c-1.72.294-4.1.29-5.331,1.861-1.329,1.791-.153,3.905-1.824,5.279-2.8,2.725-2.505-.32-4.493-1.206-2.211-.986-2.848-.741-5.331-.521-1.817.514-10.885,3.626-12.136,2.275s5.655-6.753,7.352-7.587" transform="translate(-19.846 -28.847)" fill="none" stroke="#fff" stroke-miterlimit="10" stroke-width="1"/>
        <path d="M55.976,85.9c-.592,1.325-.372,2.613-2.8,2.721h0c-.443.994-1.515,2.505-1.478,3.317-.48.182-1.474-.261-1.474-.261,6.663,7.337,16.03-1.2,21.118-7.274,3.875-4.236,2.077-11.789,2.077-11.789-1.433-3.023-5.241-6.812-7.449-8.99" transform="translate(4.612 -17.997)" fill="none" stroke="#fff" stroke-miterlimit="10" stroke-width="1"/>
        <path d="M55.527,75.37c4.277-6.042,2.591-14.741-5.882-15.337" transform="translate(3.044 -27.763)" fill="none" stroke="#fff" stroke-miterlimit="10" stroke-width="1"/>
        <path d="M53.526,67.112c1.109-4.274-.655-7.445-5.227-7.892" transform="translate(-0.621 -29.977)" fill="none" stroke="#fff" stroke-miterlimit="10" stroke-width="1"/>
        <path d="M52.139,67.284C50.006,63.156,41.7,60.379,42.084,55.279" transform="translate(-17.575 -40.707)" fill="none" stroke="#fff" stroke-miterlimit="10" stroke-width="1"/>
        <path d="M52.629,61.27a21.539,21.539,0,0,0-11.2-3.4" transform="translate(-19.32 -33.66)" fill="none" stroke="#fff" stroke-miterlimit="10" stroke-width="1"/>
        <path d="M56.852,70.387c1.735-4.787,1.188-9.8-2.569-13.856" transform="translate(15.671 -37.298)" fill="none" stroke="#fff" stroke-miterlimit="10" stroke-width="1"/>
        <path d="M50.432,60.51c2.472-2.874,7.561-5.372,11.354-4.08" transform="translate(5.186 -38.525)" fill="none" stroke="#fff" stroke-miterlimit="10" stroke-width="1"/>
        <path d="M52.9,60.85c.7-2.468,3.064-4.2,4.683-4.27" transform="translate(11.895 -37.164)" fill="none" stroke="#fff" stroke-miterlimit="10" stroke-width="1"/>
        <path d="M50.3,56.56c3.723-.328,8.071-1.169,11.864.123" transform="translate(4.813 -38.779)" fill="none" stroke="#fff" stroke-miterlimit="10" stroke-width="1"/>
        <path d="M64.1,73.689A10.561,10.561,0,0,0,55.038,63.7" transform="translate(17.727 -17.785)" fill="none" stroke="#fff" stroke-miterlimit="10" stroke-width="1"/>
        <path d="M68.739,64.965c-3.536.8-8.4,1.024-10.829-2.442" transform="translate(25.546 -20.984)" fill="none" stroke="#fff" stroke-miterlimit="10" stroke-width="1"/>
        <path d="M47.723,58.61a6.921,6.921,0,0,0,2.658-5.964" transform="translate(-2.189 -47.875)" fill="none" stroke="#fff" stroke-miterlimit="10" stroke-width="1"/>
      </g>
      <path d="M59.607,93.19c5.6,1.7,3.816,15.773,8.569,16.7,5.562.89,11.838-11.413,12.173-14.838.186-3.093-.845-4.348.782-8,1.329-2.982,2.989-5.818,3.175-8.912.521-6.522-3.927-15.259-9.12-18.762-1.217,1.839-3.648,1.951-5.454,1.541" transform="translate(30.166 -29.538)" fill="none" stroke="#fff" stroke-miterlimit="10" stroke-width="1"/>
      <path d="M62.67,100.1c4.348-.845,8.562-9.85,10.814-14.012,1.954-3.5,4.389-7.181,4.355-11.566s-2.129-7.7-2.308-11.756" transform="translate(38.506 -20.317)" fill="none" stroke="#fff" stroke-miterlimit="10" stroke-width="1"/>
    </g>
    <path d="M54.176,49.829c.841-5.461,5.882-18.062,10.5-18.483" transform="translate(705.737 10.34)" fill="none" stroke="#fff" stroke-miterlimit="10" stroke-width="1"/>
    <path d="M36.01,61.064c.421-.421.421-.841.841-.841" transform="translate(656.279 88.961)" fill="none" stroke="#fff" stroke-miterlimit="10" stroke-width="1"/>
    <path d="M37.092,63.27c-5.04.841-10.081,5.04-14.284,7.981,7.144-2.941,8.826-8.83,16.387-6.73" transform="translate(620.335 97.257)" fill="none" stroke="#fff" stroke-miterlimit="10" stroke-width="1"/>
    <path d="M107.071,78.321C98.1,70.843,96.093,73.437,85.8,73.568c-7.244.313-13.617-5.16-19.309-9.493" transform="translate(739.255 99.448)" fill="none" stroke="#fff" stroke-miterlimit="10" stroke-width="1"/>
    <path d="M68.132,57.933c3.507,2.234,9.839,1.694,14.164,3.745,13.39,6.072,15.11,21.61,20.3,33.366" transform="translate(743.734 82.726)" fill="none" stroke="#fff" stroke-miterlimit="10" stroke-width="1"/>
    <path d="M66.775,60.6c8.2-1.817,21.733,2.933,25.507,10.271-5.558-1.779-11.157-5.7-16.808-7.9C72.653,61.876,66.868,61,65.364,60.048" transform="translate(736.198 88.484)" fill="none" stroke="#fff" stroke-miterlimit="10" stroke-width="1"/>
    <path d="M72.556,27.548c-4.2,2.941-11.339,20.582-16.8,17.221" transform="translate(710.039 0)" fill="none" stroke="#fff" stroke-miterlimit="10" stroke-width="1"/>
    <path d="M56.217,43.511c-.417-8.823,8.4-12.6,15.121-15.963" transform="translate(711.257 0)" fill="none" stroke="#fff" stroke-miterlimit="10" stroke-width="1"/>
    <path d="M65.7,50.075c.841-9.664-12.6-12.184-16.379-19.745.417,4.2,2.1,11.343,4.2,15.121,3.362,5.04,7.14,4.2,11.339,7.144" transform="translate(692.53 7.574)" fill="none" stroke="#fff" stroke-miterlimit="10" stroke-width="1"/>
    <path d="M55.079,43.314c.841-10.5,18.062-9.664,26.043-10.5h0C76.082,35.754,72.3,40.794,66,42.473c-2.941.841-7.14.421-8.823,2.941" transform="translate(708.196 14.334)" fill="none" stroke="#fff" stroke-miterlimit="10" stroke-width="1"/>
    <path d="M58.013,46.268c.421-10.081,12.6-9.243,19.32-11.763-4.62,4.2-13.022,8.823-15.962,12.6" transform="translate(716.184 18.941)" fill="none" stroke="#fff" stroke-miterlimit="10" stroke-width="1"/>
    <path d="M26.87,72.209c14.7,0,27.305-3.358,39.486-11.76" transform="translate(631.394 89.576)" fill="none" stroke="#fff" stroke-miterlimit="10" stroke-width="1"/>
    <path d="M60.438,66.6c-3.782.421-6.861-4.411-9.8-6.094-7.14-4.2-18.9-2.1-24.781,2.941,8.819-2.1,13.859.841,21.42,4.2,4.2,1.679,7.144,2.1,11.343-.421" transform="translate(628.631 83.633)" fill="none" stroke="#fff" stroke-miterlimit="10" stroke-width="1"/>
    <path d="M48.612,64.385C39.793,63.127,32.232,79.506,28.45,85.808h0c9.66-6.723,19.32-9.243,20.582-23.1" transform="translate(635.696 95.721)" fill="none" stroke="#fff" stroke-miterlimit="10" stroke-width="1"/>
    <path d="M20.665,78.28C26.122,70.719,31.583,74.5,39.144,74.5c12.18,0,7.847-5.416,13.308-10.877" transform="translate(614.5 98.209)" fill="none" stroke="#fff" stroke-miterlimit="10" stroke-width="1"/>
    <path d="M50.766,64.526c-13.022-7.981-23.382,7.609-30.1,17.273" transform="translate(614.5 94.69)" fill="none" stroke="#fff" stroke-miterlimit="10" stroke-width="1"/>
    <path d="M36.2,64.173c-2.1,1.679-3.362,4.2-5.04,6.3,2.52-1.258,4.62-4.2,5.882-6.3" transform="translate(643.069 99.715)" fill="none" stroke="#fff" stroke-miterlimit="10" stroke-width="1"/>
    <path d="M30.594,59.115c4.62-.421,8.819,4.2,12.18,6.719" transform="translate(641.533 85.87)" fill="none" stroke="#fff" stroke-miterlimit="10" stroke-width="1"/>
    <path d="M57.917,76.744C47.356,80.265,45.949,47.168,46.3,41.889c2.818,1.407,3.522,6.336,5.636,8.8,2.464,3.522,6.336,5.986,8.8,9.508,3.522,4.929,1.761,5.632,1.057,11.265" transform="translate(684.165 39.045)" fill="none" stroke="#fff" stroke-miterlimit="10" stroke-width="1"/>
    <path d="M49.008,47.28c.354,3.872,2.114,9.857,6.69,10.561" transform="translate(691.667 53.722)" fill="none" stroke="#fff" stroke-miterlimit="10" stroke-width="1"/>
    <path d="M68.069,32.475" transform="translate(743.562 13.414)" fill="none" stroke="#fff" stroke-miterlimit="10" stroke-width="1"/>
  </g>
</svg>
