<svg xmlns="http://www.w3.org/2000/svg" viewBox="0 0 85 120"><g fill="#fff"><path d="m4.2 4.8 2.3 1.9.2.2-.1-.3a34 34 0 0 0-1.9-2.3S4.6 4 4.3 4c0-.1-.4-.2-.5-.1v.3c0 .1 0 .4.4.6Z"/><path d="m3.5 6.8 3 .1h.2V7l.1.4h.5v-.5c-.1 0-.2-.2-.4-.1h-.1v-.2c0-1.7-.2-2.8-.2-3 0 0 0-.6-.2-.7H6c-.2.3 0 .8 0 .9l.4 1.6.3 1.2v.2h-.2l-1.2-.3-1.6-.4s-.6-.2-.8 0l-.2.2v.2c.2.3.7.3.8.3ZM3 10.7c.4 0 .7-.3.7-.6v-.2.1c-.1.1-.2.3-.4.3H3c-.2-.1-.2-.4-.2-.5v-.2c.3-.6.9-1.1.9-1.1a4.4 4.4 0 0 1 2.2-1H6 6c-.6-.1-1.1 0-1.6.1 0 0-1 .4-1.7 1.4l-.2.5v.6c0 .2.2.6.5.6ZM7.3 6.2V6l.3-.8c.2-.5.4-1 .8-1.4 0 0 .5-.7 1.1-.9h.2l.5.1v.3c0 .2-.2.4-.3.4v.1c.5 0 .7-.4.7-.8 0-.3-.4-.6-.6-.6h-.6l-.5.3a4 4 0 0 0-1.4 1.8l-.2.8V6.2Z"/><path d="M8.9 5.2c-.2.1-1 1-.7 2 .2.6.8 1 1 1v1.1h-1c-.1-.2-.5-.8-1.2-1C6 8 5.2 9 5 9c-.5.7-.5 1.6-.5 1.9l.2 1 .6 1.1.1 1.8V16c0 .4-.1.8-.3 1 0 .1-.4.6-.9.5l-.3-.1c-.2-.2-.1-.4-.1-.5v-.2l.3-.2.3-.1h.2l-.2-.1H4s-.3 0-.5.3v.6l.1.4.6.3.7-.2.4-.3v.4L5 18l-.2.3a4.5 4.5 0 0 1-.9 1.2l-.1.1h.2A2.8 2.8 0 0 0 5.5 18c.2-.4.4-1 .4-2.4l-.1-2.1a12 12 0 0 0 2.2 3 17.2 17.2 0 0 0-1.8 4.2 14.6 14.6 0 0 0-.4 3.2 2 2 0 0 1-1.1 0 2 2 0 0 1-1.3-1.3s-.2-.5 0-1c0 0 0-.5.4-.7.3-.3.9-.2 1.3.1l.2.1-.1-.1c0-.1-.5-.7-1.1-.6-.2 0-.5 0-.8.3-.3.3-.4.8-.4 1a2.3 2.3 0 0 0 .9 2.2c.7.6 1.6.5 2 .5a5 5 0 0 0 2.6 3.9v-.1a6.3 6.3 0 0 1-2-4h.2l.7-.4c.4-.2 1-.8 1.5-1.7.4-.8.5-1.6.5-2a5.7 5.7 0 0 0-.7-3.8l.2-.7a5 5 0 0 0-.6-3.4l-.1-.3v.3a8 8 0 0 1 .3 2v1l-.2.8a22.2 22.2 0 0 1-2.5-3.3l.2-.4c0-.4.3-1.2 1-1.8.2-.3.5-.5.9-.6l-.1 1-.5 1-.1.2h.2A2 2 0 0 0 8 11l.1-.6v-.6a2.2 2.2 0 0 1 1.3-.1s0-.2 0-.2c0-.1-.1-.5 0-.8v-.4h.7a2.6 2.6 0 0 0 1.3-.5l.4-.4.2-.2-.2.1a3.3 3.3 0 0 1-2.1.6l.6-.9c.6-.7 1.4-.9 1.8-1l.4-.1a20.6 20.6 0 0 1 3.3 2.4 5.5 5.5 0 0 1-2.5.2l-1.3-.2h-.3.3c.8.5 2 1 3.4.6.3 0 .5 0 .8-.2l1.2.6c1.1.3 2.2.2 2.6.2l2-.6c.8-.5 1.4-1.1 1.6-1.5a4.2 4.2 0 0 0 .4-1c.7.1 1.3.3 2 .6s1.4.9 2 1.5a5 5 0 0 0-3.8-2.6c0-.4.1-1.3-.5-2l-.6-.6c-.3-.2-.9-.4-1.5-.3-.3 0-.8 0-1.1.5-.2.2-.3.5-.3.7 0 .6.5 1 .6 1.1l.2.1-.2-.1c-.3-.5-.3-1 0-1.4.1-.4.5-.4.7-.5l1 .1.5.3a2 2 0 0 1 .7 2.1h-1s-1.2.1-2.2.4l-.6.2-1.2.4L16.4 8a11.8 11.8 0 0 0-3-2.2h2.2c1.3 0 1.9-.1 2.3-.3a2.8 2.8 0 0 0 1.5-1.4l.1-.2-.1.1a6.8 6.8 0 0 1-1.1 1h-.4a2.2 2.2 0 0 1-.6.3l.2-.4.2-.7s0-.4-.2-.6a.8.8 0 0 0-.4-.2l-.7.1-.3.5V4.7v-.2l.3-.3.1-.2.3-.1h.4l.1.4c0 .5-.3.9-.4.9-.2.2-.7.3-1 .3a6 6 0 0 1-1.3 0h-1.8c-.3-.4-.7-.6-1.2-.7l-1-.2c-.2 0-1 0-1.7.6ZM11 6a4.4 4.4 0 0 0-1.6 1.8c-.2 0-.5-.2-.7-.6-.3-.6.2-1.3.6-1.7a2 2 0 0 1 1.3-.4h.4l1.2.4L11 6ZM7.7 9.6a4.3 4.3 0 0 0-2.3 2.8 3 3 0 0 1-.3-1.2c0-.4-.2-1 .3-1.7.3-.3.8-.7 1.3-.7h.4c.4.2.5.6.6.8ZM6.4 23.9a12.7 12.7 0 0 1 2-6.9 5.9 5.9 0 0 1 .4 3.9c-.1.5-.4 1-.7 1.5-.2.3-.4.7-1 1a3 3 0 0 1-.7.5ZM16.9 8.6a12.7 12.7 0 0 1 6.8-2.1 3 3 0 0 1-1.5 1.8 5.4 5.4 0 0 1-3.7.7 6 6 0 0 1-1.6-.5ZM78.8 6.8l.2-.1a87 87 0 0 0 2.8-2.5v-.3h-.6l-.4.3L79 6.6l-.2.2ZM81.3 7.6c-.5-.2-1-.2-1.6-.2h-.3l.3.1.9.2 1.3.8s.6.5.8 1.1v.2l-.1.5h-.3a.7.7 0 0 1-.4-.3h-.1c.1.4.4.7.7.7.5 0 .7-.4.7-.6v-.6a2 2 0 0 0-.3-.5 4 4 0 0 0-1.7-1.4Z"/><path d="m78.3 7.3.2.1h.2L79 7v-.2h.1l3-.1c.1 0 .7 0 .8-.3v-.2l-.1-.2c-.3-.2-.8 0-.8 0l-1.7.4-1.2.3h-.2v-.2l.4-1.2.4-1.6s.2-.6 0-.8l-.2-.2h-.2c-.2.2-.3.8-.3.8v3.2h-.3l-.3.1v.4ZM75.6 3.8h.1c-.2-.1-.3-.3-.3-.5V3l.4-.1h.3c.6.2 1 .9 1 .9a6 6 0 0 1 1 2.2l.1.2V5.3l-.1-.8s-.5-1.1-1.4-1.8l-.6-.2h-.5c-.2 0-.6.1-.6.5s.2.7.6.8Z"/><path d="M59.4 6.5c-1 .6-1.7 1.4-2 2a6.3 6.3 0 0 1 4-2v.2l.4.7c.2.4.8 1 1.7 1.5.8.4 1.6.5 2 .6a5.7 5.7 0 0 0 3.8-.7l.7.2a5 5 0 0 0 3.4-.6l.3-.2-.3.1a8 8 0 0 1-2 .3h-1l-.8-.2A22.2 22.2 0 0 1 73 5.9l.4.1c.4.1 1.2.4 1.8 1 .3.3.5.6.6 1-.3 0-.7 0-1-.2-.4 0-.7-.2-1-.4l-.2-.2v.2a2 2 0 0 0 1.2.8l.6.2h.6l.2.3v.8l-.1.2a2.1 2.1 0 0 1 1.3.1 2.7 2.7 0 0 0 .2 1.3 2.2 2.2 0 0 0 .8 1l.1.2-.1-.2a3.3 3.3 0 0 1-.5-2c.3 0 .6.3.8.5.7.7 1 1.4 1 1.8l.2.4a23 23 0 0 1-2.5 3.3 5.5 5.5 0 0 1-.2-2.5l.2-1.2.1-.3-.1.2c-.5.8-.9 2-.6 3.5l.2.7-.5 1.2a5.8 5.8 0 0 0-.2 2.6c0 .4.1 1.1.6 2 .4.8 1 1.4 1.4 1.7a4.2 4.2 0 0 0 1 .4c-.1.6-.3 1.3-.6 1.9-.3.8-.8 1.5-1.5 2v.1a5 5 0 0 0 2.6-3.9c.4 0 1.3.1 2-.4a2.3 2.3 0 0 0 1-2.2c0-.3-.2-.7-.5-1-.3-.3-.6-.4-.7-.4-.7 0-1.1.5-1.2.6l-.1.2.2-.1c.4-.4 1-.4 1.4-.2.3.3.4.7.4.8l-.1 1-.3.5a2 2 0 0 1-2 .7l-.1-1s-.1-1.2-.4-2.2l-.1-.5-.5-1.2c-.3-.9-.7-1.7-1.2-2.5a11.8 11.8 0 0 0 2.3-3l-.2 2.2c0 1.3.2 2 .4 2.3l.6 1 .8.6h.2-.1a6.8 6.8 0 0 1-.9-1.2l-.2-.3a2.2 2.2 0 0 1-.2-.6v-.1l.4.3.7.1c.1 0 .4 0 .6-.2l.2-.4-.1-.6a.8.8 0 0 0-.5-.4H80.9l.2.1.4.2.1.2.1.2v.4l-.4.2c-.5 0-.8-.4-.9-.5-.2-.2-.3-.7-.3-1v-1.3l.1-1.7.6-1.2.2-1c0-.3 0-1.1-.5-1.8-.2-.2-1-1-2-.7-.7.2-1 .8-1.1 1h-1a2.1 2.1 0 0 0-.1-1c.2-.2.9-.5 1-1.2.4-1-.5-1.8-.7-2-.6-.6-1.5-.5-1.8-.5-.4 0-.7 0-1 .2-.4 0-.8.3-1.1.6h-1.8a6 6 0 0 1-1.2 0c-.4 0-.9 0-1.1-.2 0 0-.5-.4-.4-.9v-.3c.3-.2.5-.2.5-.1h.3l.1.2.2.4v.2-.2c.1-.1.1-.3 0-.4 0 0 0-.3-.2-.5a.8.8 0 0 0-.7-.1l-.4.2c-.2.2-.2.5-.2.6 0 .3 0 .5.2.7l.2.4-.3-.1-.3-.1a3.4 3.4 0 0 1-.8-.5l-.7-.6-.1-.1v.2a2.8 2.8 0 0 0 1.6 1.4c.4.2 1 .3 2.3.4.7 0 1.5 0 2.2-.2a12 12 0 0 0-3 2.3 17.2 17.2 0 0 0-4.2-1.8 14.6 14.6 0 0 0-3.2-.4 2 2 0 0 1 0-1.2A2 2 0 0 1 63 3.6c.2 0 .5-.2 1-.1.1 0 .5.1.8.4.2.4.2 1-.2 1.4v.2-.1c.2 0 .7-.5.7-1.2 0-.2-.1-.5-.3-.7-.3-.4-.8-.4-1-.5a2.3 2.3 0 0 0-2.3 1c-.5.7-.5 1.6-.4 2a5 5 0 0 0-1.8.6Zm2.4 0a12.6 12.6 0 0 1 6.9 2 5.9 5.9 0 0 1-3.9.4l-1.5-.6c-.3-.3-.7-.5-1-1a3 3 0 0 1-.5-.8Zm11.6-1a3 3 0 0 1 1.1-.3c.4 0 1.1-.2 1.7.3.4.4 1 1.1.6 1.7-.1.4-.5.5-.7.6a4.3 4.3 0 0 0-2.7-2.3Zm4.5 4c0-.2.2-.5.5-.7.6-.3 1.4.2 1.8.7.4.6.3 1.3.3 1.7 0 .4-.2.8-.4 1.1a4.3 4.3 0 0 0-1.2-2l-1-.8Zm-1.3 9.1.5-1.6a12.7 12.7 0 0 1 2.1 6.9 3 3 0 0 1-1.8-1.5 5.4 5.4 0 0 1-.7-3.8ZM6.7 112.3l-.2.2a112.7 112.7 0 0 0-2.7 2.5v.3H4.4l.4-.4c.2-.2.9-1 1.8-2.4l.1-.2ZM2.4 109.7l.2.5a4 4 0 0 0 1.7 1.4l1.1.2h.7l-.2-.1a5 5 0 0 1-2.2-1s-.6-.5-.9-1.1v-.2c0-.1 0-.4.2-.5h.3l.4.2v.2-.2c0-.4-.4-.6-.7-.6-.4 0-.6.4-.7.6v.3l.1.3Z"/><path d="m7.3 111.9-.2-.1h-.3l-.1.4h-.2l-3 .2s-.6 0-.7.3v.4h.9l1.6-.4 1.2-.3h.2v.2l-.3 1.2-.5 1.6s-.1.6 0 .8l.3.2h.2c.2-.2.2-.7.2-.8l.2-3v-.2h.1l.4-.1v-.4ZM10 115.4h-.2.1l.3.5v.3l-.5.1h-.2c-.6-.2-1.1-.9-1.1-.9a6 6 0 0 1-1-2.2v-.2.2a3.8 3.8 0 0 0-.1.7l.2.8s.4 1.1 1.4 1.8l.5.2h.5c.3 0 .7-.2.7-.6 0-.3-.3-.6-.6-.7Z"/><path d="M26.2 112.7c1-.6 1.7-1.4 2-2a6.2 6.2 0 0 1-4 2l-.1-.2-.3-.7c-.3-.4-.9-1-1.7-1.5-.9-.5-1.6-.6-2-.6a5.7 5.7 0 0 0-3.8.7l-.7-.2a5 5 0 0 0-3.5.6l-.2.1h.3a8 8 0 0 1 2-.3h1l.7.2a22.2 22.2 0 0 1-3.3 2.5l-.4-.1c-.4-.1-1.1-.4-1.8-1l-.6-1c.4 0 .7 0 1 .2.4 0 .8.2 1.1.4l.2.1-.1-.1a2 2 0 0 0-1.1-.8 3 3 0 0 0-1.3-.2l-.1-.3v-1a2.1 2.1 0 0 1-1.3-.1 2.7 2.7 0 0 0-.1-1.3 2.2 2.2 0 0 0-.8-1l-.2-.2.1.2a3.3 3.3 0 0 1 .6 2c-.3 0-.6-.3-.9-.5-.6-.7-.9-1.4-1-1.8l-.1-.4a23 23 0 0 1 2.5-3.3 5.5 5.5 0 0 1 .1 2.5c0 .4 0 .8-.2 1.2v.3-.2c.5-.8 1-2 .7-3.5l-.3-.7.6-1.2c.4-1.2.2-2.2.2-2.6 0-.4-.2-1.1-.6-2-.5-.8-1-1.4-1.5-1.7a4.2 4.2 0 0 0-1-.4c.2-.6.3-1.3.6-1.9.4-.8.9-1.5 1.6-2v-.1a5 5 0 0 0-2.6 3.9c-.4 0-1.3-.1-2.1.4a2.3 2.3 0 0 0-.9 2.2c0 .3.1.7.5 1 .3.3.5.4.7.4.7 0 1-.6 1.1-.6l.2-.2-.2.1c-.5.4-1 .4-1.4.2-.3-.3-.4-.7-.4-.8v-1l.3-.5a2 2 0 0 1 2.1-.7v1a14.4 14.4 0 0 0 .6 2.7l.4 1.2 1.3 2.5a11.8 11.8 0 0 0-2.3 3l.1-2.2c0-1.3-.2-2-.4-2.3a2.8 2.8 0 0 0-1.4-1.5l-.2-.2.2.2a6 6 0 0 1 1 1.4 2.2 2.2 0 0 1 .2.6v.1l-.4-.3-.6-.1c-.2 0-.4 0-.6.2l-.2.4v.6c.2.3.5.3.6.4h.5l-.1-.1a1 1 0 0 1-.4-.2l-.2-.2v-.2s-.1-.3 0-.4l.4-.2c.4 0 .8.4.8.5.2.2.3.7.4 1v1.3l-.2 1.7-.6 1.2-.2 1c0 .3 0 1.1.6 1.8.1.2 1 1 2 .7.7-.2 1-.8 1-1h1a2.1 2.1 0 0 0 .2 1c-.3.2-.9.5-1.1 1.2-.3 1 .5 1.8.7 2 .7.6 1.6.6 1.9.5l.9-.1 1.2-.7h3c.3 0 .8 0 1 .2.1 0 .5.4.5 1l-.2.3c-.1.1-.4 0-.4 0h-.2l-.2-.2a1 1 0 0 1-.2-.4v-.2V115s0 .3.3.5c.1 0 .3.2.6.1 0 0 .3 0 .4-.2.2-.2.2-.5.2-.6l-.1-.7-.3-.4.3.1.4.2a5.2 5.2 0 0 1 1.4 1l.2.1v-.1a2.8 2.8 0 0 0-1.6-1.5c-.5-.1-1-.3-2.4-.3h-2.2a12 12 0 0 0 3-2.2 17.2 17.2 0 0 0 4.2 1.8 14.6 14.6 0 0 0 3.3.4v1.2a2 2 0 0 1-1.3 1.2c-.1 0-.5.2-1 .1-.1 0-.5-.1-.7-.4-.3-.4-.2-1 .1-1.4l.1-.2-.2.1s-.6.5-.5 1.2c0 .1 0 .4.3.7.3.4.7.4 1 .5h.3c.6 0 1-.2 1.2-.3l.7-.6c.6-.8.5-1.7.5-2.1a5 5 0 0 0 1.8-.6Zm-2.5 0a12.7 12.7 0 0 1-6.8-2 5.9 5.9 0 0 1 3.8-.4c.6.1 1 .4 1.5.7.4.2.7.4 1.1.9l.4.8Zm-11.5 1a3 3 0 0 1-1.1.3c-.4 0-1.2.2-1.8-.3-.4-.4-.9-1.1-.6-1.7.2-.4.5-.5.7-.6a4.3 4.3 0 0 0 2.8 2.3Zm-4.5-4c0 .2-.3.5-.6.7-.6.2-1.4-.2-1.7-.7-.5-.6-.4-1.3-.4-1.7 0-.4.2-.8.4-1.1a4.3 4.3 0 0 0 1.2 2l1 .8Zm1.2-9.2a6 6 0 0 1-.5 1.7 12.7 12.7 0 0 1-2-6.8A3 3 0 0 1 8 96.8a5.4 5.4 0 0 1 .8 3.8ZM81.4 114.4a87 87 0 0 0-2.4-1.9l-.2-.2.2.3a34 34 0 0 0 1.8 2.3l.4.4H81.8v-.3a1 1 0 0 0-.4-.6Z"/><path d="m82.1 112.4-3-.1h-.2v-.1c0-.2 0-.3-.2-.4h-.4v.5l.3.1h.2v.2l.1 3s0 .6.3.7h.4c.2-.3 0-.8 0-.9l-.4-1.6-.3-1.2v-.2h.1c.5 0 .9.2 1.2.3l1.7.4h.8l.1-.2v-.2c-.2-.2-.7-.3-.7-.3ZM82.6 108.5c-.3 0-.7.2-.8.6v.2l.1-.2.4-.2h.3c.2.1.2.4.2.4v.3c-.3.6-1 1.1-1 1.1a4.4 4.4 0 0 1-2.1 1h-.3.3a3.1 3.1 0 0 0 1.6-.1s1-.4 1.6-1.4l.3-.6v-.5c0-.2-.2-.6-.6-.6ZM78.2 113v.2l-.2.8-.8 1.4s-.5.7-1.1.9h-.3l-.4-.1v-.3l.2-.4.1-.1h-.1c-.4 0-.7.4-.6.7 0 .4.4.6.6.7h.5l.6-.3a4 4 0 0 0 1.4-1.8l.2-.8V113Z"/><path d="M76.7 114c.2-.1 1-1 .7-2-.2-.6-.8-1-1-1v-1.1h1c.1.1.4.8 1.1 1 1 .3 1.8-.6 2-.7.6-.7.6-1.6.6-1.9l-.2-1-.7-1.1v-3c0-.4 0-.8.3-1 0-.1.4-.6.8-.5l.4.1v.7l-.2.1a1 1 0 0 1-.4.2H81l.1.1h.4c.1 0 .4 0 .5-.3.1-.1.2-.3.1-.6 0-.1 0-.3-.2-.4-.2-.3-.4-.3-.6-.3l-.6.2-.4.2v-.3l.2-.3c0-.1 0-.2.2-.3l.2-.4.6-.8.2-.1h-.2a2.8 2.8 0 0 0-1.5 1.6c-.1.4-.3 1-.3 2.4l.1 2.1a12 12 0 0 0-2.3-3 16.2 16.2 0 0 0 1.7-3.6l.2-.6a14.6 14.6 0 0 0 .4-3.2 2 2 0 0 1 1.1 0 2 2 0 0 1 1.2 1.2c0 .2.2.6.1 1 0 .2 0 .6-.4.8-.4.2-1 .2-1.4-.1l-.2-.1.2.1s.4.7 1.1.6c.2 0 .4 0 .7-.3.4-.3.5-.8.5-1a2.3 2.3 0 0 0-.9-2.2c-.8-.6-1.7-.5-2-.5a5 5 0 0 0-2.6-3.9 6.2 6.2 0 0 1 2 4l-.2.1-.7.4c-.4.2-1 .8-1.5 1.7-.4.8-.5 1.6-.6 2a5.7 5.7 0 0 0 .7 3.7l-.2.8a5 5 0 0 0 .6 3.4l.2.3-.1-.3a8 8 0 0 1 0-3.8 22.2 22.2 0 0 1 2.4 3.3l-.1.4c-.1.4-.4 1.2-1 1.8l-.9.6v-1l.5-1 .2-.2h-.2a2 2 0 0 0-.8 1.2l-.1.6v.6a2.2 2.2 0 0 1-1.3.1s0 .1 0 .2v.8l-.1.4h-.6a3 3 0 0 0-.7.1 2.2 2.2 0 0 0-1 .8l-.2.2.2-.1a3.3 3.3 0 0 1 2-.6c0 .4-.3.6-.5.9-.7.7-1.4.9-1.8 1l-.4.1a23 23 0 0 1-3.3-2.4 5.5 5.5 0 0 1 2.5-.2l1.2.2h.3-.2c-.8-.5-2-1-3.5-.6-.2 0-.5 0-.7.2l-1.2-.6a5.8 5.8 0 0 0-2.6-.2c-.4 0-1.1.2-2 .6-.8.5-1.4 1-1.7 1.5a4.2 4.2 0 0 0-.4 1c-.6-.1-1.3-.3-1.9-.6-.8-.3-1.5-.9-2-1.5h-.1a5 5 0 0 0 3.9 2.6c0 .4-.1 1.3.4 2l.7.6c.2.2.7.4 1.2.4h.3c.3-.1.7-.2 1-.6.3-.2.4-.5.4-.7 0-.6-.6-1-.6-1.1l-.2-.1.1.1c.4.5.4 1 .2 1.4-.3.4-.7.4-.8.5l-1-.1a2 2 0 0 1-1.2-2.4h1s1.2-.1 2.2-.4l.5-.2 1.2-.4c.9-.3 1.7-.7 2.5-1.2a11.8 11.8 0 0 0 3 2.2H70c-1.3 0-2 .1-2.3.3a2.8 2.8 0 0 0-1.5 1.4l-.2.2.2-.1.7-.7.4-.2a5.2 5.2 0 0 1 .7-.3H68.3l-.3.3-.1.7s0 .4.2.6l.4.2.6-.1c.3-.2.3-.5.4-.5V114.5l-.1.2-.2.3-.1.2-.3.1h-.4l-.2-.4c0-.5.4-.9.5-.9.2-.2.7-.3 1-.3h3c.4.4.8.6 1.2.7l1 .2c.3 0 1.1 0 1.8-.6Zm-.5-.3c-.6.4-1.3.4-1.7.3a3 3 0 0 1-1.1-.3 4.3 4.3 0 0 0 2-1.2l.8-1c.2 0 .5.1.7.5.2.6-.2 1.3-.7 1.7Zm2.7-4.8a4.3 4.3 0 0 0 1.2-2c.2.3.4.7.4 1.1 0 .4.1 1.1-.4 1.7-.3.4-1 1-1.7.6-.3-.1-.5-.5-.5-.7.4-.1.7-.4 1-.7Zm.3-13.6a12.7 12.7 0 0 1-2 6.9 5.9 5.9 0 0 1-.4-3.9c0-.5.3-1 .6-1.5.2-.3.5-.7 1-1l.8-.5Zm-10.5 15.4a12.7 12.7 0 0 1-6.9 2 3 3 0 0 1 1.5-1.8 5.4 5.4 0 0 1 3.8-.7 6 6 0 0 1 1.6.5Z"/><path d="M0 0v120h85V0H0Zm84 119H1V1h83v118Z"/><path d="M5 28.2c-.3-1-.5-2-1-2.7v68.3c.5-.9.7-1.8 1-2.7V28ZM82 25.4h-.5c-.4.9-.7 1.8-.5 2.8V91c-.1 1 0 1.9 1 2.7V25.4ZM59.7 4H26c.8.6 1.7.9 2.7 1H57c1-.1 1.9-.4 2.7-.8V4ZM25.9 115h33.8c-.8-.5-1.8-.7-2.7-1H28.6c-1 .3-2 .5-2.7 1Z"/></g></svg>