<svg xmlns="http://www.w3.org/2000/svg" viewBox="0 0 195.8 43.1"><g fill="#fff"><path d="M22.7 15.9c-.3-.4-.8-.4-1.3-.4l-9-1.1c-.7-.1-1.3-.2-2 .1-2.8 1.5-5.3.7-7.8-.8a12 12 0 0 1-2-1.6c-1-.8-.7-1.5.3-2l.4-.1c3.6-.3 7.2-.8 9.9 2.4.4.5.8.7 1.4.8l7.8 1c.1-.8-.5-1-.8-1.4-2.7-3-3.4-6.7-3.6-10.5 0-1.4.6-1.8 2-1.6 1 .2 2 .6 3 1.3a17 17 0 0 1 6 7.8c.5 1.4.9 2.7.6 4.2 0 .6.1 1 .7 1 2.6.1 5.2.6 7.8.5 0-.6-.5-.8-.7-1a13.6 13.6 0 0 1-4.6-10.8c0-1.9.7-2.4 2.4-1.5 5.3 2.6 9.4 6.3 10.3 12.5.3 1.5.3 1.6 1.8 1.8l9.4.7c-.2-.9-.9-1.1-1.3-1.5a16.8 16.8 0 0 1-6-12.7c0-2.3 1-3 3-1.9 5.5 3.1 9.3 7.7 11.2 13.7.3 1 0 2.2.8 2.8.7.6 1.8.3 2.7.4l7.4.5c0-.7-.6-.8-1-1a15.1 15.1 0 0 1-6.6-10c-.4-1.7-.7-3.5-.6-5.4.1-2 .9-2.4 2.8-2 1.1.4 2.1 1 3 1.6 4.4 2.9 7.6 6.7 10 11.2a8.5 8.5 0 0 1 1 4.9c0 1 .4 1.4 1.4 1.5l9 .6a514.8 514.8 0 0 1 6.7.6c.2 0 .4.3.3.6 0 .2-.2.4-.4.4h-1.4a4734.2 4734.2 0 0 1-13.1-.9c-1.4 0-1.5 0-1.4 1.5.3 5.2-1.8 9.6-4.5 13.8a15.5 15.5 0 0 1-10.8 7c-.4.2-.8.3-1.2.2-.9 0-1.4-.4-1.3-1.4v-.2c1.8-7.8 4.4-15 11.6-19.6.7-.3 1.3-.8 1.9-1.2v-.3c-.6-.4-1.4-.3-2-.3l-11.7-1c-1.7 0-1.6.1-2.1 1.7C59.3 28.7 54.9 35 46 37c-.6.2-1.4.3-2.1.3-1.2 0-1.5-.6-1-1.6l1.4-2.5 2.3-3.8c2.3-4.3 5.8-7.5 10.2-9.6.4-.2 1-.3 1.2-1l-3.6-.4-9.4-.7c-.9-.1-1.2.1-1.5 1C41.6 24.7 38 29 32 31l-3.7 1c-1.2.2-1.7-.4-1.2-1.5 2.5-5.4 5.1-10.7 11.3-12.8l.3-.4c-.7-.4-1.6-.3-2.3-.3l-7.2-.7c-1-.1-1.5 0-1.7 1v.2a14.7 14.7 0 0 1-12.2 9.9l-1 .1c-.5.1-1 .2-1.4-.2-.4-.5 0-1 .2-1.5 2-4 4.7-7 8.6-9.1.4-.2.9-.3 1-.8Zm44 25.7c4.7-.6 8.6-3.5 11.2-8.4 1.7-3.2 3.4-6.4 2.7-10.3-4 6.6-9 12.4-13.8 18.7Zm13-23c.4-2 .1-3.3-.5-4.6A28 28 0 0 0 68.8 2.3c-.6-.4-1.3-.8-2.4-.7 4.1 6 8.1 11.7 13.3 17ZM66.6 39.8c4.5-6 9.4-11.4 13-18-6 1.5-12.6 10.5-13 18Zm-.7-36.3c-.5 7.4 5.8 15.4 11.8 15-4.3-4.8-8-10-11.8-15Zm-5.4 17.3c-4.6 5-9 10-14.1 14.6 5.9-.5 12.8-7.7 14.1-14.6ZM49.6 2.4c3 5 6 10 10.8 14 0-4.4-5.8-12-10.8-14Zm-4 31.6a69.6 69.6 0 0 0 12.6-13.4c-6.4 2.5-9.8 7.6-12.5 13.4ZM18.2 2.1a38 38 0 0 0 8.2 11.3c.2-4.3-3.7-9.8-8.2-11.3ZM49 4.4c-.2 5.5 5.4 12.4 9.8 12.4-4-3.7-6.8-8-9.8-12.4Zm-7.3 15.8c-1 .1-1.6 1-2.3 1.5l-2.3 1.9-2.4 2.1-2.3 2c-.7.6-1.5 1.2-2.2 2.4 6-1.2 9.2-5 11.5-10ZM33 3.7c3 4 5.5 8 9 11.5.5-3.8-3.9-9.6-9-11.5Zm7.8 15c-5 .6-9.8 5-10.6 9.2l10.7-9.2Zm-.2-3-4.2-5.2c-1.3-1.7-2.4-3.5-4-5.4-.2 5.6 4.6 10.3 8.2 10.6Zm-14.7 2a43.3 43.3 0 0 0-9.6 8c4.6-.8 7.7-3.3 9.6-8Zm-1.3-3.4c-2.4-3-4.3-6.3-6.9-9.4.2 4.6 3 8.4 7 9.4Zm-8 8.6c2.5-1.7 4.8-3.4 6.8-5.5a13.7 13.7 0 0 0-6.8 5.5ZM9.2 12.4c-1.7-1.3-3.5-1.5-5.5-1.2a13 13 0 0 0 5.5 1.2Zm-1.8 1.4c-.9-.4-1.8-.8-3-.7q1.4.8 3 .7Z"/><path d="M174.2 16.7c3.9 2 6.6 5.2 8.5 9.1.3.5.6 1 .2 1.5-.3.4-.8.3-1.3.2l-1-.1c-6-1-10.1-4.2-12.2-10v-.1c-.3-1-.8-1.1-1.7-1l-7.3.7c-.7 0-1.5-.1-2.3.3l.4.4c6.1 2.1 8.7 7.4 11.2 12.8.6 1.1.1 1.7-1.2 1.5l-3.7-1c-6-2-9.6-6.4-11.5-12.2-.4-1-.7-1.2-1.5-1.1l-9.5.7-3.5.4c.2.7.7.8 1.1 1 4.5 2.1 8 5.3 10.3 9.6l2.2 3.8 1.4 2.5c.5 1 .2 1.5-1 1.6l-2.1-.3c-8.8-2-13.2-8.3-16-16.2-.5-1.6-.4-1.7-2-1.6L120 20c-.7 0-1.4 0-2 .3v.3l1.8 1.2c7.2 4.6 9.9 11.8 11.6 19.6v.2c.1 1-.4 1.4-1.2 1.4L129 43c-4.7-.8-8.3-3.3-10.8-7.1a21.9 21.9 0 0 1-4.5-13.8c.1-1.5 0-1.5-1.4-1.5H111l-11.8.9h-1.4c-.3 0-.4-.2-.5-.4 0-.3.1-.5.4-.6.3-.2.7-.2 1.1-.2l5.5-.4 9-.6c1 0 1.5-.4 1.4-1.5-.2-1.7.3-3.3 1-4.9 2.5-4.5 5.7-8.3 10-11.2 1-.6 2-1.2 3-1.5 2-.5 2.8 0 2.9 2 0 1.8-.3 3.6-.7 5.3a15 15 0 0 1-6.6 10c-.4.2-1 .3-1 1l7.4-.5c1-.1 2 .2 2.8-.4.7-.6.4-1.9.7-2.8 2-6 5.8-10.6 11.3-13.7 2-1.1 3-.4 3 2v1.3c-.5 4.6-2.6 8.4-6 11.3-.5.4-1.1.6-1.4 1.5l9.4-.7c1.6-.2 1.6-.2 1.8-1.8 1-6.2 5-10 10.3-12.5 1.8-.9 2.5-.4 2.4 1.5 0 4.2-1.2 8-4.5 10.8-.3.2-.7.4-.7 1 2.6 0 5.1-.4 7.7-.5.6 0 .8-.4.7-1-.2-1.5.1-2.8.6-4.2A17 17 0 0 1 175 2c.9-.7 1.9-1 3-1.3 1.3-.2 2 .2 2 1.6-.2 3.8-1 7.5-3.6 10.5-.4.3-1 .6-.8 1.4l7.8-1c.5-.1 1-.3 1.3-.8 2.7-3.2 6.4-2.7 10-2.4l.3.1c1 .5 1.3 1.2.4 2l-2 1.6c-2.5 1.5-5 2.3-7.9.8-.6-.3-1.3-.2-2-.1l-9 1c-.4.1-.9 0-1.3.5.2.5.7.6 1 .8Zm-59 6.2c-.7 3.9 1 7.1 2.8 10.3 2.6 4.9 6.5 7.8 11 8.4-4.7-6.3-9.7-12.1-13.8-18.7Zm14.2-21.3c-1.1 0-1.7.3-2.3.7A28 28 0 0 0 116.7 14c-.7 1.3-1 2.7-.5 4.6 5.1-5.3 9.1-11 13.2-17Zm-13 20.2c3.5 6.6 8.3 12 12.9 18-.4-7.4-7-16.5-13-18Zm1.7-3.3c6 .3 12.3-7.6 11.8-15-3.8 5-7.5 10.2-11.8 15Zm31.4 17c-5.2-4.7-9.6-9.8-14.2-14.7 1.3 6.9 8.3 14 14.2 14.6Zm-14-19.1c4.7-4 7.7-9 10.7-14-5 2-10.8 9.6-10.7 14Zm2.1 4.2c1 2.2 9 10.8 12.6 13.4-2.8-5.7-6.2-10.9-12.6-13.4Zm32-7.2a38 38 0 0 0 8.2-11.3c-4.5 1.4-8.4 7-8.2 11.3ZM137 16.8c4.5 0 10-7 9.9-12.4-3 4.3-5.9 8.7-9.9 12.4ZM165.6 30c-.6-1.2-1.4-1.8-2.1-2.4l-2.3-2-2.4-2.1-2.3-2c-.7-.5-1.3-1.3-2.3-1.4 2.3 4.8 5.5 8.7 11.4 10Zm-11.8-14.9c3.5-3.4 6.1-7.5 9-11.5-5 1.9-9.5 7.7-9 11.5ZM165.7 28c-.8-4.2-5.7-8.6-10.7-9.1l10.7 9.1Zm-2.2-22.8c-1.6 1.9-2.7 3.8-4 5.4l-4.2 5.2c3.5-.3 8.4-5 8.2-10.6Zm16 20.6c-.8-1.5-6.7-6.4-9.5-8 2 4.7 5 7.1 9.6 8ZM178.2 5c-2.5 3.1-4.4 6.4-6.8 9.4 4-1 6.7-4.8 6.8-9.4Zm-5.7 12.5c2 2 4.4 3.8 6.8 5.5-1.6-2.6-4-4.3-6.8-5.5Zm19.7-6.2c-2-.2-3.8 0-5.4 1.2 1.9 0 3.7-.4 5.4-1.2Zm-.7 2c-1.2-.2-2 .2-3 .6q1.6 0 3-.7Z"/></g></svg>