<svg viewBox="0 0 800 668.8" width="144" xmlns="http://www.w3.org/2000/svg"><path d="m793.6 387.6c3.8-6.7 3-26-6.6-33.5 1.4-6-3.8-21.5-12.7-27.5-1.5-6-2.2-19.3-17-22.3-2.6-7.5-18-21-66.4-61 .9-14.3-4.8-32-29-43.6-5.2-2.5-15-.6-24.8 2.5-73-41.8-176.1-37.5-210.7-29.5-17.4 4-42.5 2.5-66.3-1 1-3.6-.8-7.6-8-11.6-17.8-9.7-36.8-2.3-44 1.3-5.6-1.4-10-2.7-12.5-3.5-15.7-5.2-55-32-60.3-52-5.2-20.1-29-69.2-52-78.1-23-9-52-8.2-61-8.2.8-6.7-8.9-21.6-28.2-17.1-19.3 4.5-20.1 16.3-20.1 16.3s-23.1 1.5-35.8 3c-9.6-12.6-20.8-8.2-29-.7-8.1 7.4-9.6 20-3.7 26.7 0 0 0 6 6 15.7s34.2 46 54.2 61.7c8.2 17 41.7 37.9 68.4 47.5a159.4 159.4 0 0 1 69 46.2c-1.3 5.5-2 14.3 3.1 22.2 0 0-14 32.7-20.8 35.7-6.7 3-14.1-6-26.7-6.7-12.7-.7-9.7-3-6-8.2s9.7-5.9 11.2-8.9c1.4-3-.2-9.6-7.5-3.7-11.9 9.7-14.1 7.4-16.3 7.4-2.3 0-1.5-21.5-9.7-22.3-8.2-.7-2.2 11.2-.7 17.1 1.4 6 .7 8.2-1.5 9-2.2.7-20-15.6-26-9.7-6 6 1.4 6.7 7.4 9.7s11.1 8.1 9.7 12.6c-1.5 4.5-25.3 2.2-21.6 9.7 3.7 7.4 21.6-1.5 26 2.2 4.5 3.7-13.4 23-6 25.3 7.5 2.2 14.2-16.4 19.4-17.9s6-4.4 9.7-5.2c3.7-.7 33.4 29 43.8 29s23.8-29 32-37.9c8-8.6 15.2-13.8 34.6-15.5a389.8 389.8 0 0 0 235.8 60.5c-3.6 25.9 20.3 57.8 38 71.2-8.7-.4-19.7-2.4-19.7 3 0 6 12.6 4.5 18.6 3.7 3-.3 7 .3 10 .1 7 9-22.5 10.4-31 8.5-9.5-2.1-4.3 9.4 3.8 10.7 8.2 1.3 29.5-5.5 33-2.3s-10.6 13.5-15.2 15.4c-4.6 2-13.7 5-8 9.1s22.6-4.4 27.4-10c4.9-5.7 14.2-11.8 16.3-8.7 2 3.1 5.6 27.2 11 24.6 5.4-2.7-1.2-15.8.8-23 2-7.4 7.6-5.5 7.2-19-.3-7.5 2.7-7.2-13.3-22.3-20.2-19-48.7-37.4-8.7-48.6 14-4 46 6 63.7-20 13.9 2.6 24 5.4 26.2 5.7a47 47 0 0 1 18.6 9c-2.2 7.4 5.2 19.3 9 22.2-3 4.5 0 16.4 3 20.1-3.8 3-.8 14.9 2.1 16.4-5.2 2.2-4.4 20-3.7 23-4.4 1.5-6.7 17.1-5.2 20.8-4.4.8-10.4 8.2-10.4 15.6-3.7-.7-11.9 4.5-11.9 12.7-6-1.5-17 5.2-19.3 16.3-6 0-17.9 3.7-20.8 13.4-8.2.8-19.4 4.5-23 11.2-6-2.3-19.4 2.2-26.8 11.9-10.4 2.2-13.4 8.1-20.1 16.3a20.8 20.8 0 0 0 -13.4 14.9c-2.2 0-9.7 5.2-14.1 14.9-13.4 14.8-17.9 50.5-14.9 72 3 21.6 9 35.8 15.6 35 6.7-.7 3-4.5.8-12.6-2.3-8.2-3.7-35 8.9-59.5s36.4-31.2 40.9-35.7c6.7.8 17-1.5 21.5-8.2 6.7.8 17.1 3.7 21.6-1.4 4.5 3 14.9.7 19.3-3.8 5.2 4.5 19.4-1.5 25.3-6.7 9.7 3.8 21.6-1.5 26.8-6.7 6 2.3 20-1.4 24.5-9.6 9.7 0 20.8-3 29-17.9 11.9.8 26.8-11.8 25.3-22.2 5.2-.8 21.5-17.9 18.6-29.8 9.6-1.5 14.8-21.6 11.1-29 6.7-2.2 9.7-28.2 2.2-36.4z" fill="#fff"/></svg>