<svg viewBox="0 0 1044.2 88.8" xmlns="http://www.w3.org/2000/svg"><g fill="#fff"><path d="m1.3 33.5c0 .2-.3.3-.7.3s-.6-.2-.6-.4a615 615 0 0 0 1.7-24c0-.3.2-.5.6-.5s.7.2.7.6c0 1.7 2.3 2.5 6.8 2.5a702.8 702.8 0 0 0 39.2.1h8c3 0 5.3-.3 6.7-.7s2.3-1.2 2.7-2.4c0-.3.3-.5.8-.5s.6.2.6.5a277.4 277.4 0 0 0 -1.2 24.3c0 .2-.2.3-.6.3s-.6-.1-.7-.3a25 25 0 0 0 -6.7-13.9 17 17 0 0 0 -12.1-4.6c-2.4 0-3.9.5-4.7 1.5-.7 1-1.1 2.9-1.1 5.7v55.3c0 2.5.2 4.3.7 5.4a4 4 0 0 0 2.8 2.3c1.3.4 3.5.6 6.5.6.2 0 .3.2.3.7s-.1.7-.3.7l-6.9-.1-10-.1-9.7.1-7 .1c-.2 0-.3-.2-.3-.7s.1-.7.4-.7c2.9 0 5-.2 6.4-.6a4.2 4.2 0 0 0 2.9-2.4c.5-1.1.8-2.9.8-5.3v-55.5c0-2.7-.4-4.5-1.1-5.5s-2.2-1.4-4.5-1.4c-9.5 0-16.3 6.2-20.5 18.6zm121.3 47.1c.4 0 .6.2.7.6.1.3 0 .6-.3.8l-12.4 5.8c-.3.2-.7.3-1.2.3-1.2 0-2.5-.7-3.6-2-1.2-1.4-2-3.3-2.5-5.6l-5.1 3.6a21.7 21.7 0 0 1 -5.2 3c-1.6.6-3.4.9-5.4.9-3.4 0-6-.8-7.8-2.3a8 8 0 0 1 -2.6-6.4c0-2.1.5-3.9 1.5-5.2a11 11 0 0 1 4-3.1c1.5-.8 3.7-1.6 6.5-2.6l3-1 10.8-4v-6.9c0-5.1-.5-8.8-1.3-11.1-.8-2.4-2.3-3.5-4.3-3.5-4.2 0-6.6 3.3-7.2 9.8-.2 2.4-.9 4.1-2 5.2-1.2 1-2.8 1.5-5 1.5s-3.4-.4-4.3-1.2c-1-.9-1.4-2-1.4-3.3 0-2.4 1.4-4.7 4.2-7 2.8-2 6.3-3.9 10.3-5.2s7.4-2 10.5-2c3.5 0 6.3 1.1 8.5 3.3s3.3 5.5 3.3 10v21.3c0 2.3.5 4 1.3 5.4a4 4 0 0 0 3.5 1.9c1.2 0 2.3-.3 3.5-.9h.1zm-19.5-2.1-.1-1.6v-11.5l-5.2 2.4-2.4.9a8.5 8.5 0 0 0 -3.5 2.6 6.4 6.4 0 0 0 -1.5 4.2c0 1.9.6 3.4 1.8 4.5 1.3 1 2.7 1.6 4.3 1.6 1.3 0 2.6-.4 4-1.3zm58.7.2c.3 0 .5.2.7.5s.2.6 0 .7c-3 3-5.9 5.2-8.7 6.6a19.6 19.6 0 0 1 -8.8 2c-3.6 0-6.6-.8-9-2.5-2.5-1.6-3.8-4.5-3.8-8.5v-26.5c0-2.5-.4-4.2-1.3-5.2s-2.5-1.4-4.8-1.4c0 0-.2-.1-.3-.4l-.2-.7c0-.3 0-.6.2-.8 0-.2.2-.3.3-.3 4.1-.1 7.4-1 10-2.6 2.4-1.6 4.4-4 5.7-7.3.2-.4.5-.5 1-.5s.8.1.8.5v9.6c4.7-.1 9.9-.5 15.6-1.1.2 0 .4.3.6.9a6.7 6.7 0 0 1 -.1 4.3c-.3.8-.6 1.1-1 1a77.8 77.8 0 0 0 -15-1.8v28.5c0 3 .7 5.2 2.3 6.7a8.8 8.8 0 0 0 6.2 2.1 15 15 0 0 0 9.3-3.6h.3zm18-26.1c1.7 1.6 4 3.4 7.2 5.2 3 1.8 5.3 3.2 6.7 4.2a15 15 0 0 1 4 4.2c1.3 1.8 1.9 4 1.9 6.5a15.1 15.1 0 0 1 -8.2 13.5 20 20 0 0 1 -9.7 2.2c-4.4 0-8.6-1-12.5-3.2-.5-.5-.7-1-.7-1.4l-.3-12c0-.2.3-.3.7-.3l.8.1c1.3 4 3.4 7.4 6.3 10.2 3 2.8 6 4.2 9 4.2 1.7 0 3-.5 4-1.5s1.6-2.6 1.6-4.6c0-3-.9-5.3-2.6-7a33.2 33.2 0 0 0 -7.4-5.3c-2.8-1.6-5-2.8-6.4-3.8s-2.7-2.3-3.8-4c-1.1-1.8-1.7-4-1.7-6.5 0-4.7 1.7-8.2 5-10.4a22 22 0 0 1 12.4-3.3 24.8 24.8 0 0 1 10 1.8c.7.2 1 .7 1 1.3v4.7l-.2 6c0 .2-.2.4-.7.4s-.7-.2-.7-.4c0-1.5-.7-3.2-2-5-1.2-1.8-2.9-3.3-5-4.6-2-1.3-4-2-6.2-2-3.3 0-5 1.6-5 4.8 0 2.3.9 4.3 2.5 6zm83.7 26.7c.3 0 .5.2.7.6s.2.7 0 .7l-16.6 8c-.2.2-.4.2-.6.2-.8 0-1.5-.9-2.1-2.6s-1-4-1-7c-5.3 6.2-11 9.4-17.2 9.4-4.4 0-7.9-1.4-10.4-4.2s-3.8-6.4-3.8-10.8v-17.7c0-5.2-1.2-7.8-3.7-7.8-.9 0-1.9.3-3 .9h-.1c-.3 0-.6-.3-.7-.7-.2-.4-.2-.7 0-.8l16.2-7.7h.6c.4 0 .8.1 1.2.5.5.3.7.7.7 1v26.5c0 8.6 3.3 13 10 13a16.2 16.2 0 0 0 10.2-4.3v-20.7c0-5.2-1.3-7.8-3.8-7.8-.9 0-1.9.3-3.1.9h-.1c-.3 0-.5-.3-.6-.7-.2-.4-.1-.7.1-.8l16-7.7h.7c.4 0 .8.1 1.2.5.5.3.7.7.7 1v31.9c0 2.7.3 4.6.8 5.8a2.7 2.7 0 0 0 2.6 1.6c1 0 2.7-.4 4.9-1.3h.2zm49.5-77.4c2.4 1.2 3.7 3 3.7 5.2 0 1.8-.6 3.3-1.9 4.3a6.4 6.4 0 0 1 -4.2 1.6c-2 0-3.4-.5-4.2-1.4-1-.8-1.7-2.1-2.4-3.8-.8-1.7-1.5-3-2.3-3.8s-2.1-1.2-3.9-1.2c-3.6 0-6.5 2.5-8.7 7.6a67 67 0 0 0 -3.1 24v7.4l13.2-1.1c.2 0 .4.3.6.9a7.7 7.7 0 0 1 -.2 4.3c-.3.8-.6 1.1-.8 1-3.8-1-8.1-1.5-12.8-1.8v32.3c0 2.5.2 4.3.7 5.4s1.4 1.9 3 2.3c1.4.4 3.7.6 7 .6.3 0 .4.2.4.7s-.1.7-.5.7l-8.2-.1-8.2-.1-7.3.1-5.4.1c-.3 0-.5-.2-.5-.7s.2-.7.5-.7c2 0 3.6-.2 4.6-.6s1.7-1.2 2-2.4c.4-1.1.6-2.9.6-5.3v-27c0-2.5-.5-4.1-1.6-4.9-1-.7-3-1.1-6.1-1.1-.2 0-.4-.4-.4-1s.2-1.2.4-1.2c2.8 0 4.7-.3 5.8-1.1 1-.8 1.6-2.1 1.6-4.1.4-13 3-22.5 7.5-28.3s11.4-8.7 20.6-8.7c4.5 0 8 .6 10.5 1.9z"/><path d="m360.7 79.3c.2 0 .5.2.7.6s.2.7 0 .7l-16.6 8c-.2.2-.4.2-.7.2-.8 0-1.5-.9-2-2.6-.7-1.7-1-4-1-7-5.4 6.2-11 9.4-17.2 9.4-4.4 0-7.9-1.4-10.4-4.2s-3.8-6.4-3.8-10.8v-17.7c0-5.2-1.2-7.8-3.7-7.8-.9 0-1.9.3-3 .9h-.1c-.4 0-.6-.3-.8-.7-.1-.4 0-.7.2-.8l16-7.7h.6c.4 0 .9.1 1.3.5.4.3.7.7.7 1v26.5c0 8.6 3.3 13 10 13a16.2 16.2 0 0 0 10.2-4.3v-20.7c0-5.2-1.3-7.8-3.8-7.8-.9 0-2 .3-3.1.9h-.1c-.3 0-.5-.3-.6-.7-.2-.4-.2-.7 0-.8l16.2-7.7h.6c.4 0 .8.1 1.2.5.5.3.7.7.7 1v31.9c0 2.7.2 4.6.8 5.8a2.7 2.7 0 0 0 2.5 1.6c1.2 0 2.8-.4 5-1.3h.2zm92.3 7.1c0 .5-.2.7-.5.7l-5-.1-7.1-.1-7 .1-5 .1c-.2 0-.4-.2-.4-.7s.1-.7.4-.7c2.5 0 4.2-.6 5-1.8 1-1.1 1.5-3.3 1.5-6.5v-17.3c0-4.3-.8-7.5-2.2-9.6-1.5-2-3.8-3.1-6.8-3.1a15.8 15.8 0 0 0 -11.3 5v25c0 3.2.4 5.4 1.4 6.5.9 1.2 2.6 1.8 5 1.8.4 0 .5.2.5.7s-.1.7-.4.7l-5-.1-7.2-.1-7 .1-5 .1c-.2 0-.3-.2-.3-.7s.1-.7.3-.7c2.5 0 4.2-.6 5.2-1.8.9-1.1 1.3-3.3 1.3-6.5v-17.3c0-4.3-.7-7.5-2.2-9.6-1.5-2-3.7-3.1-6.8-3.1a15.8 15.8 0 0 0 -10.7 4.3v25.7c0 3.2.5 5.4 1.4 6.5 1 1.2 2.6 1.8 5.1 1.8.3 0 .4.2.4.7s-.1.7-.4.7l-4.9-.1-7.2-.1-7 .1-5 .1c-.2 0-.4-.2-.4-.7s.2-.7.4-.7c2.5 0 4.2-.6 5-1.8 1-1.1 1.4-3.3 1.4-6.5v-22.6c0-2.4-.3-4.3-1-5.4a3 3 0 0 0 -2.7-1.8c-1.4 0-3.3.6-5.8 1.7h-.2c-.3 0-.5-.2-.6-.6v-.7l16.8-8.2.8-.2c.9 0 1.7.9 2.5 2.6s1.3 4 1.4 6.9c5.5-6.5 11.3-9.7 17.6-9.7 3.7 0 6.7.9 9 2.7a12 12 0 0 1 4 8c5.6-7.2 11.7-10.7 18.4-10.7 4.3 0 7.6 1.2 10 3.7 2.2 2.5 3.3 6.2 3.3 11.3v23c0 3.2.5 5.4 1.4 6.5 1 1.2 2.6 1.8 5.1 1.8.3 0 .5.2.5.7zm6 0c0-.5.1-.7.4-.7 2.4 0 4.1-.6 5-1.8.9-1.1 1.3-3.3 1.3-6.5v-21.5a15 15 0 0 0 -.8-5.9 2.8 2.8 0 0 0 -2.8-1.8c-1 0-2.5.5-4.4 1.4h-.1c-.4 0-.6-.3-.8-.7-.1-.4 0-.7.2-.8l18-8.4.4-.1c.4 0 .8.2 1.2.6s.6.8.6 1v2.8l-.2 11.8v21.7c0 3.2.5 5.4 1.4 6.5.9 1.2 2.6 1.8 5 1.8.3 0 .4.2.4.7s0 .7-.3.7l-5-.1-7.1-.1-7.1.1-5 .1c-.2 0-.3-.2-.3-.7zm6.5-60.6c-1.3-1.3-2-3-2-5.4 0-2 .7-3.7 2-5 1.4-1.2 3.1-1.8 5.4-1.8s4 .6 5.1 1.8a6.8 6.8 0 0 1 1.8 5c0 2.3-.6 4.1-1.8 5.4s-2.9 2-5.1 2-4.1-.7-5.4-2zm99.1 54.8c.3 0 .5.2.7.6 0 .3 0 .6-.3.8l-12.4 5.8c-.3.2-.7.3-1.2.3-1.3 0-2.5-.7-3.7-2-1.1-1.4-2-3.3-2.4-5.6l-5.2 3.6a21.7 21.7 0 0 1 -5.2 3c-1.5.6-3.3.9-5.3.9-3.5 0-6-.8-7.8-2.3a8 8 0 0 1 -2.7-6.4c0-2.1.5-3.9 1.6-5.2a11 11 0 0 1 3.9-3.1c1.5-.8 3.7-1.6 6.5-2.6l3-1 10.8-4v-6.9c0-5.1-.4-8.8-1.3-11.1-.8-2.4-2.2-3.5-4.2-3.5-4.2 0-6.6 3.3-7.2 9.8-.3 2.4-1 4.1-2.1 5.2-1.2 1-2.8 1.5-4.9 1.5s-3.4-.4-4.4-1.2c-.9-.9-1.3-2-1.3-3.3 0-2.4 1.4-4.7 4.2-7 2.8-2.1 6.1-3.9 10.1-5.3 4-1.3 7.5-2 10.5-2 3.5 0 6.4 1.1 8.6 3.3s3.3 5.5 3.3 10v21.3c0 2.3.4 4 1.2 5.4a4 4 0 0 0 3.6 1.9c1.1 0 2.3-.3 3.5-.9zm-19.6-2.1v-13.1l-5.2 2.4c-.3 0-1 .4-2.4.9a8.5 8.5 0 0 0 -3.6 2.6 6.4 6.4 0 0 0 -1.5 4.2c0 1.9.6 3.4 1.9 4.5 1.2 1 2.6 1.6 4.2 1.6 1.3 0 2.6-.4 4-1.3zm81.3 7.9c0 .5-.1.7-.4.7l-5-.1-7.1-.1-7 .1-5 .1c-.2 0-.4-.2-.4-.7s.1-.7.4-.7c2.5 0 4.2-.6 5-1.8 1-1.1 1.3-3.3 1.3-6.5v-17.3c0-4.3-.7-7.5-2.3-9.6-1.6-2-4-3.1-7.4-3.1a17.5 17.5 0 0 0 -11.3 4.4v25.6c0 3.2.5 5.4 1.4 6.5 1 1.2 2.6 1.8 5.1 1.8.3 0 .4.2.4.7s-.1.7-.4.7l-4.9-.1-7.2-.1-7 .1-5 .1c-.2 0-.4-.2-.4-.7s.2-.7.4-.7c2.5 0 4.2-.6 5-1.8 1-1.1 1.4-3.3 1.4-6.5v-22.6c0-2.4-.3-4.3-1-5.4a3 3 0 0 0 -2.8-1.8c-1.3 0-3.2.6-5.7 1.7h-.3c-.2 0-.4-.2-.5-.6v-.7l16.7-8.2.9-.2c.9 0 1.7.9 2.5 2.6s1.3 4 1.4 7c5.6-6.6 11.6-9.8 18.3-9.8 4.3 0 7.7 1.3 10.2 4.1 2.6 2.8 3.8 6.4 3.8 10.9v23c0 3.2.5 5.4 1.4 6.5 1 1.2 2.6 1.8 5.1 1.8.2 0 .4.2.4.7zm62-7.1c.2 0 .5.2.7.6s.2.7 0 .7l-16.5 8-.6.2c-.8 0-1.4-.8-2-2.3a21 21 0 0 1 -1.2-6.2c-5.9 5.6-12 8.4-18 8.4-3.6 0-6.8-1-9.6-2.8a19 19 0 0 1 -6.8-8 29.1 29.1 0 0 1 -2.5-12.6c0-6.1 1.4-11 4.3-15 2.8-3.8 6.3-6.7 10.5-8.4a32.5 32.5 0 0 1 22-1.2v-24.3c0-2.8-.2-4.8-.8-6a2.7 2.7 0 0 0 -2.7-1.8c-1 0-2.5.5-4.4 1.4h-.1c-.3 0-.6-.3-.8-.7s-.2-.7 0-.8l17.5-8.3h.5c.4 0 .8.1 1.3.5s.7.7.7 1v71.5c0 2.7.3 4.6.8 5.8a2.7 2.7 0 0 0 2.6 1.6c1 0 2.7-.4 4.9-1.3h.1zm-19.7-1.3v-30c-1.4-2-3-3.4-4.8-4.4-1.8-.9-4-1.3-6.3-1.3-4.3 0-7.6 1.5-10 4.5s-3.3 7.8-3.3 14.5 1.2 12 3.6 15.8 5.5 5.7 9.4 5.7 7.8-1.7 11.4-5zm105.9-48.8-.7.3c-.4.1-.7 0-.8-.2-1.3-4.7-3.4-8.1-6.5-10.3-3-2.3-7-3.4-12-3.4h-3.5c-2.4 0-4.1.5-5.2 1.6-1.2 1-1.7 2.6-1.7 4.8v25.9h8.6a19 19 0 0 0 10.6-2.5 7.7 7.7 0 0 0 3.7-6.8c0-.1.2-.2.7-.2s.7 0 .7.2v16.7l.2 6.4c0 .2-.3.3-.8.3s-.7 0-.7-.3a9 9 0 0 0 -3.8-7.6 17.7 17.7 0 0 0 -10.7-2.9h-8.6v25.8c0 2.5.3 4.3 1 5.5.6 1.2 1.8 2 3.5 2.6 1.8.4 4.6.7 8.3.7.2 0 .3.2.3.7s-.1.7-.3.7l-7.7-.1-12.2-.1-9 .1-6.6.1c-.2 0-.4-.2-.4-.7s.2-.7.4-.7c2.8 0 4.8-.2 6.1-.6a3.8 3.8 0 0 0 2.6-2.4c.4-1.1.7-2.9.7-5.3v-55.7a17 17 0 0 0 -.6-5.2 3.8 3.8 0 0 0 -2.4-2.4c-1.2-.4-3-.6-5.6-.6-.2 0-.3-.3-.3-.8s.1-.7.3-.7h51c.7 0 1.1.4 1.1 1.1zm65.2 50.1c.3 0 .5.2.7.6s.2.7 0 .7l-16.6 8c-.2.2-.4.2-.6.2-.8 0-1.5-.9-2.1-2.6s-1-4-1-7c-5.3 6.2-11 9.4-17.2 9.4-4.4 0-7.9-1.4-10.4-4.2a15.5 15.5 0 0 1 -3.8-10.8v-17.7c0-5.2-1.2-7.8-3.7-7.8-.9 0-1.9.3-3 .9h-.1c-.3 0-.6-.3-.7-.7-.2-.4-.1-.7.1-.8l16-7.7h.7c.4 0 .8.1 1.2.5.5.3.7.7.7 1v26.5c0 8.6 3.3 13 10 13a16.2 16.2 0 0 0 10.2-4.3v-20.7c0-5.2-1.3-7.8-3.8-7.8-.8 0-1.9.3-3 .9h-.2c-.2 0-.4-.3-.6-.7s-.1-.7.1-.8l16.1-7.7h.6c.4 0 .8.1 1.3.5.4.3.6.7.6 1v31.9c0 2.7.3 4.6.8 5.8a2.7 2.7 0 0 0 2.6 1.6c1.1 0 2.7-.4 4.9-1.3h.2zm39.6-.6c.4 0 .6.2.8.5s.2.6 0 .7c-3 3-5.9 5.2-8.7 6.6a19.6 19.6 0 0 1 -8.9 2c-3.5 0-6.5-.8-9-2.5-2.4-1.6-3.7-4.5-3.7-8.5v-26.5c0-2.5-.4-4.2-1.3-5.2s-2.5-1.4-4.8-1.4c0 0-.2-.1-.3-.4l-.2-.7.1-.8c.1-.2.2-.3.4-.3 4-.1 7.4-1 9.9-2.6s4.5-4 5.8-7.3c.2-.4.5-.5 1-.5s.8.1.8.5v9.6c4.7-.1 9.9-.5 15.6-1.1.2 0 .4.3.6.9a6.7 6.7 0 0 1 -.1 4.3c-.3.8-.6 1.1-1 1a77.8 77.8 0 0 0 -15-1.8v28.5c0 3 .7 5.2 2.3 6.7a8.8 8.8 0 0 0 6.1 2.1 15 15 0 0 0 9.4-3.6h.2zm51.7 1.9c.4 0 .6.2.7.6.1.3 0 .6-.3.8l-12.3 5.8-1.2.3c-1.3 0-2.5-.7-3.7-2-1.2-1.4-2-3.3-2.5-5.6l-5.1 3.6a21.7 21.7 0 0 1 -5.2 3c-1.6.6-3.4.9-5.4.9-3.4 0-6-.8-7.8-2.3a8 8 0 0 1 -2.6-6.4c0-2.1.5-3.9 1.5-5.2a11 11 0 0 1 4-3.1c1.5-.8 3.7-1.6 6.5-2.6l3-1 10.8-4v-6.9c0-5.1-.4-8.8-1.3-11.1-.8-2.4-2.2-3.5-4.2-3.5-4.3 0-6.7 3.3-7.2 9.8-.3 2.4-1 4.1-2.1 5.2-1.2 1-2.8 1.5-4.9 1.5s-3.5-.4-4.4-1.2c-.9-.9-1.4-2-1.4-3.3 0-2.4 1.4-4.7 4.2-7 2.8-2.1 6.2-3.9 10.2-5.3 4-1.3 7.4-2 10.5-2 3.5 0 6.4 1.1 8.6 3.3s3.3 5.5 3.3 10v21.3c0 2.3.4 4 1.2 5.4a4 4 0 0 0 3.6 1.9c1 0 2.2-.3 3.4-.9h.2zm-19.5-2.1-.1-1.6v-11.5l-5.2 2.4-2.4.9a8.5 8.5 0 0 0 -3.5 2.6 6.4 6.4 0 0 0 -1.5 4.2c0 1.9.6 3.4 1.8 4.5 1.3 1 2.7 1.6 4.3 1.6 1.3 0 2.6-.4 4-1.3zm67.9-36.7c3 1.6 5.5 4.2 7.3 7.5 1.8 3.4 2.7 7.5 2.7 12.3 0 5.7-1.2 10.6-3.7 14.7-2.4 4.1-5.6 7.2-9.6 9.3a26.8 26.8 0 0 1 -21.6 1.6c-2.9-1-5.6-2.3-8-4.2l-10.9 5h-.2c-.3 0-.5-.2-.6-.5s0-.5.3-.6a11 11 0 0 0 4.4-4.6c1-2 1.5-4.5 1.5-7.5v-58.4c0-2.8-.2-4.8-.8-6-.5-1.2-1.4-1.8-2.8-1.8-1 0-2.5.5-4.4 1.4h-.1c-.4 0-.6-.3-.8-.7-.1-.4-.1-.7 0-.8l17.6-8.3h.6c.4 0 .8.1 1.2.5.5.3.7.7.7 1v45.6c2.6-2.5 5.3-4.5 8-5.9a20.5 20.5 0 0 1 19.2.4zm-5.1 39.2c1.8-3.5 2.7-8.4 2.7-14.8 0-7-1.1-12.1-3.5-15.5a11.1 11.1 0 0 0 -9.7-5.1c-3.7 0-7.6 1.4-11.6 4v17.7c0 4.4.7 8 2.3 10.9 1.5 2.8 3.3 4.9 5.5 6.2 2.1 1.2 4.3 1.9 6.3 1.9 3.5 0 6.1-1.8 8-5.3zm69.2-.4c.3 0 .5.2.7.6 0 .3 0 .6-.3.8l-12.4 5.8c-.3.2-.7.3-1.2.3-1.3 0-2.5-.7-3.7-2-1.1-1.4-2-3.3-2.4-5.6l-5.2 3.6a21.7 21.7 0 0 1 -5.1 3c-1.6.6-3.4.9-5.4.9-3.5 0-6-.8-7.8-2.3a8 8 0 0 1 -2.7-6.4c0-2.1.5-3.9 1.6-5.2a11 11 0 0 1 3.9-3.1c1.5-.8 3.7-1.6 6.5-2.6l3-1 10.8-4v-6.9c0-5.1-.4-8.8-1.2-11.1-.9-2.4-2.3-3.5-4.3-3.5-4.2 0-6.6 3.3-7.2 9.8-.2 2.4-1 4.1-2.1 5.2-1.2 1-2.8 1.5-4.9 1.5s-3.4-.4-4.3-1.2c-1-.9-1.4-2-1.4-3.3 0-2.4 1.4-4.7 4.2-7 2.8-2.1 6.2-3.9 10.1-5.3 4-1.3 7.5-2 10.5-2 3.5 0 6.4 1.1 8.6 3.3s3.3 5.5 3.3 10v21.3c0 2.3.4 4 1.3 5.4a4 4 0 0 0 3.5 1.9c1.1 0 2.3-.3 3.5-.9zm-19.6-2.1v-13.1l-5.2 2.4c-.3 0-1 .4-2.4.9a8.5 8.5 0 0 0 -3.6 2.6 6.4 6.4 0 0 0 -1.5 4.2c0 1.9.6 3.4 1.9 4.5 1.2 1 2.6 1.6 4.2 1.6 1.3 0 2.6-.4 4-1.3z"/></g></svg>