<svg height="120" width="140" xmlns="http://www.w3.org/2000/svg" xmlns:xlink="http://www.w3.org/1999/xlink"><linearGradient id="a" gradientUnits="objectBoundingBox" x1=".99" x2="0" y1=".34" y2=".87"><stop offset="0" stop-color="#c6b86b"/><stop offset=".21" stop-color="#f0e3b9"/><stop offset=".28" stop-color="#968357"/><stop offset=".56" stop-color="#efddae"/><stop offset=".87" stop-color="#80611c"/><stop offset=".88" stop-color="#847224"/><stop offset=".89" stop-color="#988832"/><stop offset=".9" stop-color="#b29945"/><stop offset=".92" stop-color="#b29f50"/><stop offset=".94" stop-color="#d8c07f"/><stop offset="1" stop-color="#ba9e51"/></linearGradient><linearGradient id="b" x1=".01" x2="1" xlink:href="#a" y1=".34" y2=".87"/><path d="m535.03 56.72a.48.48 0 0 0 -.28-.35l-69.57-26.73a.34.34 0 0 0 -.28.01l-68.23 31.55a.53.53 0 0 0 -.28.5l1.35 58.28a.52.52 0 0 0 .3.48l69.57 26.73a.35.35 0 0 0 .28-.01l68.23-31.55a.53.53 0 0 0 .27-.5l-1.34-58.28a.6.6 0 0 0 -.02-.13zm-69.97-25.4 68.44 26.58 1.33 56.25-67.1 31.36-68.45-26.57-1.33-56.25z" fill="url(#a)" transform="translate(-396.4 -28.41)"/><path d="m396.72 86.61a.53.53 0 0 1 .07-.17l35.8-57.07a.4.4 0 0 1 .34-.2l68.9 2.4a.41.41 0 0 1 .34.23l33.11 59.48a.65.65 0 0 1 -.01.61l-35.8 57.07a.4.4 0 0 1 -.34.2l-68.9-2.4a.41.41 0 0 1 -.34-.23l-33.12-59.48a.61.61 0 0 1 -.05-.44zm37.11-55.75-35.48 55.91 32.82 58.32 67.05 2.39 35.48-55.92-32.81-58.31z" fill="url(#b)" transform="translate(-396.03 -29.17)"/></svg>