<svg xmlns="http://www.w3.org/2000/svg" viewBox="0 0 125.1 19.5"><g fill="#505050"><path d="M23.1 19v.1h-6.7V18.8c.7 0 1.2 0 1.6-.2.3-.1.5-.3.6-.6l.1-1.3-.5-14-7 16.2c0 .1-.1.2-.3.2 0 0-.2 0-.2-.2L3.4 3 3 16c0 1 .1 1.8.5 2.2.4.4 1 .6 2 .6V19H.1L0 19v-.2c.9 0 1.5-.2 1.8-.6s.6-1.2.6-2.2l.3-14.2A3 3 0 0 0 .3.8V.3h3.1c.3 0 .5 0 .7.3L4.8 2l6.7 14.5 6.7-15.4.4-.5.5-.2h3.5v.4c-1 0-1.8 0-2.2.4-.5.2-.7.8-.7 1.6l.6 14 .2 1.3c.2.2.4.4.8.5l1.7.2.1.2ZM38 14.7h.2a27.6 27.6 0 0 0-.4 4.3l-.4.1H25V18.8c.8 0 1.4 0 1.7-.2.4 0 .6-.3.8-.5s.2-.8.2-1.4V2.8c0-.6 0-1-.2-1.3S27 1 26.7.9L25 .8V.4H37c.2 0 .3 0 .3.3v3.6H37c0-1-.3-1.8-.8-2.4-.6-.6-1.3-1-2.2-1h-2l-1.7.2a1 1 0 0 0-.7.6c-.2.3-.2.7-.2 1.3v6h4c.8 0 1.5 0 1.8-.4.4-.3.6-.8.6-1.6H36v5.1H35.8c0-1-.2-1.5-.6-1.9-.3-.4-1-.5-2-.5h-3.8v6.9c0 .6 0 1 .2 1.3 0 .2.3.4.7.5l1.7.2h2.7c.8 0 1.5-.4 2-1 .7-.8 1-1.7 1.2-2.8l.2-.1ZM44.4 6c.4.7.8 1.2 1.4 1.5L48 9l2.4 1.5 1.5 1.6c.4.7.6 1.4.6 2.3s-.3 1.8-.7 2.6c-.5.8-1.2 1.4-2 1.8a8.6 8.6 0 0 1-7.4-.3c-.2 0-.3-.1-.3-.2v-.4l-.5-3.9.1-.1h.2a7 7 0 0 0 1.6 3.7c.9 1 2 1.5 3.5 1.5 1.1 0 2-.3 2.7-.9.8-.5 1.1-1.5 1.1-2.7 0-.9-.2-1.7-.6-2.3-.4-.7-.8-1.2-1.4-1.6L46.5 10c-1-.5-1.7-1-2.2-1.4s-1-1-1.4-1.6c-.4-.6-.6-1.4-.6-2.3 0-1 .3-1.8.8-2.5S44.2 1 45 .6c.8-.3 1.7-.5 2.6-.5a9 9 0 0 1 3.4.7c.3.1.5.3.5.5l.2 3.2-.1.1-.2-.1c-.1-1-.5-2-1.2-2.8a3.7 3.7 0 0 0-3-1.2c-1.2 0-2 .3-2.6 1s-.9 1.6-.9 2.5c0 .8.2 1.5.6 2.1ZM59 6c.3.7.8 1.2 1.3 1.5L62.6 9l2.5 1.5 1.4 1.6c.4.7.6 1.4.6 2.3s-.2 1.8-.7 2.6c-.4.8-1.1 1.4-2 1.8a8.6 8.6 0 0 1-7.4-.3l-.2-.2-.1-.4-.5-3.9.2-.1h.2a7 7 0 0 0 1.6 3.7c.8 1 2 1.5 3.5 1.5 1 0 2-.3 2.7-.9.7-.5 1-1.5 1-2.7 0-.9-.1-1.7-.5-2.3-.4-.7-.9-1.2-1.5-1.6L61.1 10l-2.3-1.4c-.6-.4-1-1-1.4-1.6-.4-.6-.6-1.4-.6-2.3 0-1 .3-1.8.8-2.5s1.2-1.2 2-1.6c.8-.3 1.7-.5 2.6-.5a9 9 0 0 1 3.5.7c.3.1.4.3.4.5l.3 3.2-.2.1-.2-.1c0-1-.4-2-1.1-2.8a3.7 3.7 0 0 0-3-1.2c-1.2 0-2.1.3-2.7 1s-.8 1.6-.8 2.5c0 .8.2 1.5.5 2.1ZM89.7 19v.1a39.3 39.3 0 0 1-3.5 0 29.4 29.4 0 0 0-3.1 0L83 19l.1-.2a5 5 0 0 0 1.8-.2c.3-.2.5-.5.5-.8l-.3-1.2-2.8-6H75l-2 4.8c-.3.7-.4 1.3-.4 1.7 0 .6.2 1 .7 1.3a5 5 0 0 0 2.2.4c.1 0 .2 0 .2.2s0 .1-.2.1a28.7 28.7 0 0 1-3.5 0 30.7 30.7 0 0 0-3.3 0l-.1-.1.1-.2c.6 0 1-.1 1.5-.3.4-.2.7-.6 1-1.1.4-.5.8-1.3 1.2-2.2L78.8 0 79 0h.2l7 15 1.1 2.3c.4.6.8 1 1.1 1.2l1.2.3.1.2Zm-14.3-9H82l-3.5-7.5-3.1 7.5ZM95.8 18.2a9.5 9.5 0 0 1-5-8.6 8.9 8.9 0 0 1 5.5-8.4 13.6 13.6 0 0 1 11 .1l.3.2V2l.4 3.3-.2.2-.2-.1a7 7 0 0 0-2-3.7c-1-.8-2.3-1.2-4-1.2s-3.2.4-4.5 1A7.8 7.8 0 0 0 94 4.7a9 9 0 0 0-1.2 4.6c0 1.7.4 3.3 1 4.8a8.8 8.8 0 0 0 8.5 5c1.5 0 2.6-.2 3.2-.8.6-.5.9-1.5.9-2.8 0-1 0-1.8-.2-2.2-.2-.4-.5-.7-1-.8l-2.3-.2c-.2 0-.2-.1-.2-.3v-.1l.1-.1a60.1 60.1 0 0 0 6.8.3c0 .1 0 .2-.2.2-.5 0-.9 0-1 .2-.3.1-.4.4-.5.9a21.5 21.5 0 0 0 0 5.3l-.2.1c-2.4.5-4.5.8-6.2.8-2.2 0-4-.4-5.7-1.3ZM125 14.7h.1a27.6 27.6 0 0 0-.4 4.3l-.3.1H112l-.1-.1v-.2c.8 0 1.4 0 1.8-.2.4 0 .6-.3.7-.5.2-.3.2-.8.2-1.4V2.8c0-.6 0-1-.2-1.3 0-.3-.3-.5-.7-.6L112 .8l-.1-.2V.4h12c.1 0 .2 0 .2.3v3.6h-.3c0-1-.2-1.8-.8-2.4-.5-.6-1.2-1-2.1-1h-2l-1.7.2c-.4.1-.7.3-.8.6l-.2 1.3v6h4c.9 0 1.5 0 1.9-.4.4-.3.5-.8.5-1.6h.4v5.1H122.7c0-1-.2-1.5-.6-1.9-.4-.4-1-.5-2-.5h-3.9v6.9c0 .6 0 1 .2 1.3.1.2.4.4.7.5l1.7.2h2.8c.8 0 1.5-.4 2-1 .6-.8 1-1.7 1.1-2.8l.2-.1Z"/></g></svg>