<svg viewBox="0 0 112 19.4" xmlns="http://www.w3.org/2000/svg"><path d="m4.6 18c.2.2.5.4 1 .5l2.5.2v.4h-8.1v-.4l1.7-.1c.4-.1.6-.3.8-.6l.2-1.3v-14l-.2-1.3c-.2-.2-.4-.4-.8-.5-.3-.2-.9-.2-1.6-.2v-.4h1.4a44.1 44.1 0 0 0 6.2 0c1.8-.1 3.3.2 4.3 1 1.1.9 1.7 2 1.7 3.8a5.6 5.6 0 0 1 -3.5 5.4 7.8 7.8 0 0 1 -4.6.5l-.1-.2v-.2h.1l1.1.1c1.4 0 2.6-.4 3.6-1.3 1-.8 1.5-2 1.5-3.7 0-1-.2-2-.6-2.8s-1-1.3-1.8-1.8c-.7-.3-1.4-.5-2.4-.5l-1.7.1c-.4.1-.6.3-.8.6s-.2.8-.2 1.5v13.7c0 .7.1 1.1.3 1.4zm30.7.9v.2h-3.6c-.5 0-1.4-.9-2.9-2.5-1.4-1.7-3-4-5-6.9a9.7 9.7 0 0 1 -3.3.1v6.9l.2 1.3c.2.3.4.5.8.6l1.7.1.1.2v.2h-7l-.1-.2v-.2l1.8-.1c.4-.1.6-.3.8-.6s.2-.7.2-1.3v-14c0-.5 0-1-.2-1.3-.1-.2-.4-.4-.8-.5-.3-.2-1-.2-1.7-.2v-.4h1.4l2 .1h1.3a50.4 50.4 0 0 0 2.9-.2c1.5 0 2.7.4 3.5 1.1.8.8 1.2 1.7 1.2 3 0 1-.3 2-1 2.8s-1.4 1.6-2.5 2c1.7 2.5 3.2 4.4 4.3 5.8 1.2 1.3 2.2 2.3 3.1 3 1 .5 1.8.8 2.7.8zm-13-9.7c1.7 0 2.9-.3 3.6-1s1-1.8 1-3.2c0-1.5-.3-2.6-1-3.3s-1.9-1-3.3-1c-.8 0-1.3 0-1.6.3s-.4 1-.4 1.8v6.3l1.8.1zm17.2 8.9c-1.4-.8-2.5-2-3.3-3.5s-1.2-3.1-1.2-4.9c0-2 .5-3.8 1.6-5.3 1-1.4 2.3-2.5 4-3.3a12 12 0 0 1 5-1.1c1.9 0 3.5.5 5 1.3 1.4 1 2.4 2.1 3.3 3.7a9.6 9.6 0 0 1 -.3 9.6c-1 1.5-2.2 2.7-3.8 3.6a10.8 10.8 0 0 1 -10.2 0zm10-.3c1-.6 2-1.6 2.6-2.9s1-2.8 1-4.5c0-2-.3-3.6-1-5a8.2 8.2 0 0 0 -7.9-4.8 7 7 0 0 0 -5.2 2.2 8.4 8.4 0 0 0 -2 5.9c0 1.9.4 3.6 1.1 5.1a9 9 0 0 0 3.1 3.7c1.3.9 2.8 1.3 4.5 1.3 1.4 0 2.7-.3 3.8-1zm20.5-13.6-.1.1h-.2c0-1-.3-1.9-.8-2.5s-1.2-.9-2.1-.9h-2c-.8 0-1.4 0-1.7.2-.4 0-.6.2-.8.5l-.2 1.2v6.6h3.3c1 0 1.7-.2 2.1-.5.5-.3.7-.8.7-1.6h.3v5.1h-.2c0-1-.2-1.5-.7-1.9-.4-.4-1.2-.5-2.3-.5h-3.1v6.5c0 .7 0 1.1.3 1.4s.5.5 1 .6l2.5.2v.4h-8.1v-.4l1.8-.1c.3-.1.6-.3.7-.6.2-.3.2-.7.2-1.3v-14c0-.5 0-1-.2-1.3-.1-.2-.4-.4-.7-.5-.4-.2-1-.2-1.8-.2v-.4h12c.1 0 .2.1.2.3v3.6zm7.7 13.8c0 .3.3.5.7.6l1.7.1v.4h-7v-.4l1.8-.1c.3-.1.6-.3.7-.6.2-.3.2-.7.2-1.3v-14c0-.5 0-1-.2-1.3-.1-.2-.4-.4-.7-.5-.4-.2-1-.2-1.8-.2v-.4h1.5a44.4 44.4 0 0 0 4.1 0h1.4v.4c-.7 0-1.3 0-1.7.2s-.6.3-.8.6-.2.7-.2 1.3v13.8l.2 1.4zm9.3-1.5.1 1.3c.2.3.4.5.8.6l1.6.1h3.9c2 0 3.1-1.3 3.5-3.8h.3a35.8 35.8 0 0 0 -.2 4.3h-14.3v-.2l1.7-.1c.4-.1.7-.3.8-.6l.2-1.3v-14c0-.5 0-1-.2-1.3-.1-.2-.4-.4-.8-.5-.3-.2-1-.2-1.7-.2v-.5h1.5a44.1 44.1 0 0 0 4 0h1.4v.4c-.7 0-1.3 0-1.7.2-.4 0-.6.3-.7.6-.2.2-.2.7-.2 1.3zm24.8-1.9.2.1a27.6 27.6 0 0 0 -.4 4.3h-12.8v-.2l1.8-.1c.3-.1.6-.3.7-.6l.2-1.3v-14c0-.5 0-1-.2-1.3-.1-.2-.4-.4-.7-.5-.4-.2-1-.2-1.8-.2v-.5h11.9c.2 0 .3.1.3.3v3.6l-.1.1h-.2c0-1-.3-1.9-.8-2.5s-1.3-.9-2.1-.9h-2.1l-1.7.1c-.3.1-.6.3-.7.6-.2.3-.2.7-.2 1.3v6.1h4c.9 0 1.5-.1 1.9-.4.3-.3.5-.9.5-1.6l.2-.1h.2v5.1h-.4c0-.9-.2-1.5-.5-1.9-.4-.3-1-.5-2-.5h-4v7c0 .5.1 1 .3 1.2.1.3.3.5.7.6l1.7.1h2.7c.8 0 1.5-.3 2-1 .7-.7 1-1.7 1.2-2.8h.2z" fill="#505050"/></svg>