<svg xmlns="http://www.w3.org/2000/svg" viewBox="0 0 76.167 32.898">
  <g id="decoration_white" transform="translate(-0.02)">
    <path d="M50,46.46Z" transform="translate(-11.907 -33.335)" fill="#fff"/>
    <path d="M84.58,46.266c-2.9,0-8.682,3.066-10.048,3.808L52.4,34.26,30.887,50.053c-1.323-.721-7.154-3.819-10.08-3.819-3.421,0-6.2,1.99-6.2,4.443s2.776,4.443,6.2,4.443c2.872,0,8.606-3.012,10.016-3.8L52.4,67.158,74.532,51.344c1.366.753,7.143,3.808,10.048,3.808,3.421,0,6.2-1.99,6.2-4.443S88,46.266,84.58,46.266ZM20.785,54.044c-2.829,0-5.121-1.517-5.121-3.367s2.291-3.367,5.121-3.367c2.324,0,7.014,2.334,8.961,3.367-1.947,1.022-6.638,3.367-8.961,3.367Zm11.048-3.292.14-.075H31.9L52.4,35.616,73.489,50.677h-.1l.1.054L52.4,65.792Zm52.714,3.324c-2.324,0-7.014-2.334-8.951-3.367,1.936-1.022,6.627-3.367,8.951-3.367,2.819,0,5.121,1.517,5.121,3.367s-2.27,3.367-5.089,3.367Z" transform="translate(-14.59 -34.26)" fill="#fff"/>
  </g>
</svg>