<svg xmlns="http://www.w3.org/2000/svg" viewBox="0 0 263.475 294.759">
    <defs>
        <style>
            path {
            fill: rgba(0,0,0,0);
            stroke: #b57713;
            stroke-miterlimit: 10;
            }
        </style>
    </defs>
    <g transform="translate(-84.271 241.88) rotate(-68)">
        <g transform="translate(65.484 38.119)">
            <g>
                <g>
                    <g>
                        <path d="M127.23-29.5c8.57-8.864,7.635-24.053,9.122-35.376.588-7.537-.178-16.2,9.505-19.545,10.245-4.018,7.073,2.494,13.363,10.049,10.539,13.363,25.042,15.252,27.242,33.14,3.563,19.011,5.755,26.5-11.929,32.454,23.3-4.543,9.541,18.263,10.067,31.314.419,11.8,4.027,10.245-.508,22.494-2.494,7.073-8.018,8.187-5.345,17.3-10.984-5.835-15.831.383-22.565-16.615" transform="translate(29.31 105.356)"/>
                        <path d="M118.62,92.82c7.385,13.06,8.73,14.191-4.33,21.577-14.868,8.169-6.664,9.318-12.472,21.675-8.365,18.191-41.87,19.9-58.307,17.612-9.443-1.042-20.739-3.92-27.18-11.332-15.18-17.479-8.178-14.12-.285-23.537C27.627,106.744,39.431,103.43,48.83,97.435" transform="translate(42.393 85.879)"/>
                        <path d="M32.525,95.939c-20.49,8.018-21.051,18.476-60.489-6.86-8.864-5.684-9.4-14.744-14.664-24.882-.891-3.038-5.5-5.746-5.817-9.461-.552-6.183,4.4-6.619,5.2-11.679,1.381-12.6-4.223-19.6,9.06-24.5,5.514-1.1,11.581-6.236,18.022-4.312" transform="translate(48.488 94.501)"/>
                        <path d="M-10.778,3.879c-21.488-.2-35.527-25.5-.018-54.619,6.085-4.98,9.265.713,14.672-1.63,7.768-3.8,1.114-10.361,4.383-15.643,4.864-8.534,29.514-26.655,46.5-6.877" transform="translate(46.741 105.154)"/>
                        <path d="M84.888-72.92c-9.1-4.187-12.9-19.964-18.993-25.586s-8.187-8.018,4.187-9.1c6.753-1.22,13.488,4.454,19.893,6.352,15.955,4.2,23.839,1.639,27.946,19.982,2.325,12.267-4.2,39.127,3.43,47.8" transform="translate(36.534 107.771)"/>
                        <path d="M123.8,86.037c-14.735,2.548-13.194,13.015-23.893,18.949-6.53,3.688-29.024,3.18-35.634-1.22C41.023,87.73,60.568,69.823,85.111,58.688c2.673,2.254,7.127-2.949,12.989-6.236,7.706-13.087,5.158-13.969,17.434-18.708,12.534-4.855,21.532-22.031,40.16-10.334-2.512,13.933-1.648,23.839-9.211,36.971-7.127,11.234-14.254,15.6-22.788,24.463" transform="translate(37.318 93.891)"/>
                        <path d="M113.262,20.334c16.4-33.247-1.7-75.919-35.4-90.4C66.866-74.712,27.722-80,25.085-60.432c-1.71,8.909,15.145,16.125,20.2,16.926,5.737,1.363,2.673,2.254,10.69.891,5.506-1.1,8.436-3.234,13.176-6.147,10.022-6.494,6.548-10.557,20.49-8.018,7.528.588,12.062,5.657,17.559,11.4" transform="translate(40.472 104.129)"/>
                        <path d="M124.08,31.94" transform="translate(29.654 92.523)"/>
                        <path d="M56.68-38.285c28.819-3.8,42.2,8.561,49.585,21.63" transform="translate(37.01 100.263)"/>
                    </g>
                    <g transform="translate(32.314 61.421)">
                        <path d="M123.09,35.46" transform="translate(-2.552 30.718)"/>
                        <path d="M53.081,69.514C20.529,65.87,9.153,35.412,13.242,26.8c1.853-3.8,4.294-.08,8.312-.731,2.548-.419,4.071-3.563,5.621-7.127,2.192-5.016-.151-8.606,1.693-12.41,2.468-5.042,1.149-3.448,3.091-8.989,2.165-5.773,6.147-7.332,10.183-11.082,4.258-4.018,5.541-9.211,10.583-12.1,6-3.439,20.935-4.757,27.091-.935,3.849,2.334,8.57,3.617,11.314,7.252,3.011,3.857,5.773,6.334,8.018,10.69" transform="translate(9.524 37.741)"/>
                        <path d="M12.24,21.8" transform="translate(9.546 32.209)"/>
                        <path d="M15.387,1.37c-1.568-3.982-.552-6.236,1.6-9.363.659-.784,2.1-3.563,2.806-3.884,2.628-.472,2.842,1.933,4.543,2.022,4.116-.116,4.214-1.826,6.583,1.728,1.158,1.728.828,3.483,1.969,5.345" transform="translate(9.286 35.891)"/>
                        <path d="M25.871,7.135c-1.274-.624-1.523-3.51,0-5.345,2.8,1.452.561,3.563.294,6.04-.748-.169-.739-.837-1.22-.8" transform="translate(8.173 34.393)"/>
                        <path d="M24.381,1.166c-1.256-3.287,1.63-3.563,1.9-6,0-2.673-3.359-2.37-1.381-4.73" transform="translate(8.256 35.631)"/>
                        <path d="M76.709-28.362C71.9-30.607,65.832-36.139,60.1-37.823c-9.229-2.824-12.036,1.069-19.92,2.486s-13.176,1.889-19.537,6.824c-3.857,3-10.833,9.2-9.149,14.637,6.877-1.782,8.695-8.775,16.329-1.924,2.1,1.782,1.96,5.648,6.12,6.013,1.7.089,2.984-1.229,5.122-2.4" transform="translate(9.655 38.825)"/>
                        <path d="M-11.507,22.924c-1.737-3.252.151-6.566,1.078-9.8C-8.745,7.4-8.995,1.829-5.787-3.543c3.563-5.9,11.911-18.539,19.6-19.207" transform="translate(12.215 37.071)"/>
                        <path d="M10.234-10.53A15.412,15.412,0,0,0,3.917-5.782C2.3-3.457.737,5.595,2.18,5.47" transform="translate(10.706 35.737)"/>
                        <path d="M20.66,15.542c.437-3.831,4.089-6.61,5.042-8.151.294-.748,2.361-.695,3.02-1.479.463-.944-.223-5.345.6-6.3,1.122-1.737,2.334-2.753,3.947-.748" transform="translate(8.627 34.832)"/>
                        <path d="M24.91,1.759A3.688,3.688,0,0,0,25.961,1.3C27.235.583,27.476.565,29.2.895" transform="translate(8.164 34.513)"/>
                        <path d="M26.255,24.958c-6.664.775-2.129-11.822-10.913-4.134C12.313,23.648,8.09,31.515,12.58,34.9" transform="translate(9.723 32.588)"/>
                        <path d="M11.316,21.124c-.695.3.57.891-.214.267-3.367-2.379,1.318-4.249,1.933-5.514C15.147,12.3,18.051,6.7,23.352,8.937" transform="translate(9.802 33.668)"/>
                        <path d="M14.08,1.17C12.5,2.524,10.962,4.359,10.65,6.364" transform="translate(9.72 34.46)"/>
                        <path d="M15.207,10.916c-3.563,1.042-2.5-11.911,4.624-8.169C18.815,5,19.724,7.1,22.173,7.352" transform="translate(9.439 34.362)"/>
                    </g>
                    <path d="M65.94-106.938c3.938-1.149,9.416,0,13.363-.641,6.7-.321,11.581.321,17.47,2.762,4.454,2.29,11,2.8,14.69,4.891,5.131,3.314,2.886,8.356,5.158,12.73" transform="translate(35.999 107.759)"/>
                    <path d="M120.11-95.31c4.454,4.178,7.2,11.465,7.234,17.924.321,6.7-5.595,30.031-2.842,36.784" transform="translate(30.087 106.411)"/>
                    <path d="M183.695-56.452c-8.855-8.909-14.966-26.4-29.185-28.908" transform="translate(26.333 105.325)"/>
                    <path d="M175.621,2.24c-3.439,6.762-13.14,15.688-21.381,14" transform="translate(26.362 95.765)"/>
                    <path d="M103.188,132c-8.552,12.864-24.659,22.352-40.16,20.49-13.1-2.067-47.216,4.169-52.008-13.167" transform="translate(41.993 81.603)"/>
                    <path d="M19.11-71.16" transform="translate(41.11 103.775)"/>
                    <path d="M-28.93-2.062c-9.131-16.552-1.292-27.973,7.332-40.026C-17.652-47.683-15.879-55.1-10.561-58.8-4.432-62.569,3.39-61.215,8.2-66.07" transform="translate(46.799 103.22)"/>
                    <path d="M111.845,29.164c.445-4.071,2-9.461-.766-13.247-3.189-4.16-8.722-2.86-10.753-7.528C95.988.3,102.669,2.928,105.956-.992c3.661-4.365,3.51-5.96,4.624-11.706,0-4.454-1.167-26.94,2.673-28.9s11.581,17.14,12.383,21.514" transform="translate(32.402 100.564)"/>
                    <path d="M9.621,34.1C7,31.909,3.947,31.57,5.274,26h0c-2-1.639-4.668-5.033-6.539-5.479C-1.372,19.33.276,17.37.276,17.37-20.606,27.677-7.358,54.359,3.082,69.779c7.065,11.483,25.292,12.294,25.292,12.294,7.759-1.283,18.779-7.439,25.122-11.02" transform="translate(44.372 94.113)"/>
                    <path d="M65,45.315c10.922,13.6,31.67,15.385,38.485-3.385" transform="translate(36.102 91.433)"/>
                    <path d="M95.71,38.178c8.909,5.265,17.247,3.323,21.2-6.708" transform="translate(32.75 92.574)"/>
                    <path d="M135.77-1.833C146.46-3.989,158.1-20.951,169.382-16.8" transform="translate(28.378 97.914)"/>
                    <path d="M134.07-6.681c6.779-5.434,12.044-14.378,14.913-23.109" transform="translate(28.564 99.26)"/>
                    <path d="M91.75,91.64c9.7,7.011,21.381,9.007,32.962,3.145" transform="translate(33.183 86.007)"/>
                    <path d="M132.17,56.82c4.891,7.439,7.252,20.543,1.889,28.276" transform="translate(28.771 89.808)"/>
                    <path d="M121.2,78.85c5.122,3.18,7.5,9.63,6.628,13.363" transform="translate(29.968 87.403)"/>
                    <path d="M142.218,58.56c-1.657,8.615-2.566,18.993-7.938,26.726" transform="translate(28.541 89.618)"/>
                    <path d="M27.15,96.978A24.819,24.819,0,0,0,55.568,83" transform="translate(40.233 86.95)"/>
                    <path d="M48.36,136.2c.454-8.517,3.109-19.652,12.472-22.9" transform="translate(37.918 83.643)"/>
                    <path d="M168,39.39c1.63,4.7,6.236,8.534,11.768,9.853" transform="translate(24.861 91.71)"/>
                </g>
                <path d="M-3.673,113.25c-7.448,11.581-38.093-1.559-43.26,8.579-5.595,11.991,18.147,34.111,25.683,37.078,6.877,2.423,10.379.891,17.568,6.931C2.2,170.764,7.534,176.35,14.4,178.764c14.4,5.39,37.006.98,48.285-8.49-3.376-3.938-2.049-9.505,0-13.318" transform="translate(48.411 83.649)"/>
                <path d="M-47.454,130.47c-.891,10.37,16.739,25.71,24.686,33.479,6.637,6.681,13.363,14.557,23.314,17.309s18.779.169,28.053,2.37" transform="translate(48.379 81.77)"/>
            </g>
        </g>
    </g>
</svg>