<svg xmlns="http://www.w3.org/2000/svg" viewBox="0 0 333.87 268.785">
  <defs>
    <style>
      path {
      fill: rgba(0,0,0,0);
      stroke: #b57713;
      stroke-miterlimit: 10;
      }
    </style>
  </defs>
  <g transform="matrix(0.998, -0.07, 0.07, 0.998, -35.966, -12.261)">
    <g transform="translate(34.5 28.477)">
      <g transform="translate(0 0)">
        <g transform="translate(30.212)">
          <g>
            <path d="M221.093,176.2c10.649,10.326,29.043,9.251,42.7,10.972,9.143.645,19.577-.215,23.557,11.51,4.841,12.37-3.012,8.5-12.155,16.135-16.243,12.693-18.394,30.226-40.015,32.915-22.912,4.3-32.055,6.992-39.154-14.414,5.486,28.075-22.051,11.51-37.756,12.155-14.306.538-12.37,4.84-27.107-.645-8.605-3.012-9.9-9.681-20.868-6.454,6.992-13.231-.538-19.147,20.115-27.214" transform="translate(-22.405 12.843)"/>
            <path d="M103.037,190.643c-15.812,8.928-17.1,10.542-26.031-5.271-9.9-17.964-11.294-8.067-26.139-15.059-22.051-10-24.095-50.449-21.3-70.241C30.86,88.67,34.3,75.01,43.23,67.265c21.083-18.394,17-9.9,28.4-.43,14.629,13.984,18.609,28.29,25.923,39.584" transform="translate(-28.587 3.778)"/>
            <path d="M85.373,98.281C75.692,73.541,63.107,72.9,93.655,25.244c6.884-10.757,17.856-11.4,30.119-17.748C127.431,6.42,130.766.826,135.176.5c7.53-.645,7.96,5.271,14.091,6.239,15.167,1.721,23.665-5.056,29.581,10.972,1.291,6.669,7.53,13.984,5.163,21.728" transform="translate(-25.122 -0.454)"/>
            <path d="M176,42.743c.215-25.923,30.872-42.919,65.938,0,6.024,7.315-.861,11.187,1.936,17.748,4.625,9.358,12.478,1.291,18.932,5.271,10.326,5.916,32.162,35.6,8.283,56.15" transform="translate(-17.433 0.763)"/>
            <path d="M262.652,138.826c5.056-10.972,24.095-15.49,30.872-22.912s9.681-9.9,10.972,5.056c1.506,8.175-5.378,16.242-7.637,23.987-5.056,19.254-1.936,28.828-24.095,33.776-14.844,2.8-47.222-5.056-57.763,4.2" transform="translate(-14.483 7.836)"/>
            <path d="M98.223,187.339c-3.119-17.748-15.7-15.92-22.912-28.828-4.518-7.852-3.872-35.067,1.506-43.027,19.362-28.075,41.09-4.518,54.429,25.171-2.689,3.227,3.55,8.605,7.53,15.7,15.812,9.358,16.888,6.239,22.589,21.083,5.916,15.167,26.676,26.031,12.478,48.512-16.78-3.012-28.828-2.044-44.64-11.079-13.553-8.605-18.824-17.211-29.473-27.537" transform="translate(-25.279 7.297)"/>
            <path d="M158.7,180.593c40.122,19.792,91.646-2.044,109.18-42.7,5.593-13.231,11.94-60.56-11.617-63.679-10.757-2.044-19.469,18.286-20.438,24.418-1.613,6.884-2.689,3.227-1.076,12.908,1.291,6.669,3.872,10.219,7.422,15.92,7.852,12.155,12.8,7.852,9.681,24.74-.645,9.143-6.884,14.521-13.768,21.191" transform="translate(-18.742 5.115)"/>
            <path d="M158.7,173.1" transform="translate(-18.742 12.608)"/>
            <path d="M230.639,105.7c4.625,34.744-10.326,50.986-26.139,59.914" transform="translate(-15.277 7.509)"/>
          </g>
          <g transform="translate(86.605 39.083)">
            <path d="M155.2,172.1" transform="translate(-105.612 -26.55)"/>
            <path d="M109.1,110.55c4.41-39.262,41.2-53.03,51.632-48.082,4.625,2.259.108,5.163.861,10,.538,3.119,4.3,4.948,8.605,6.777,6.024,2.689,10.326-.215,14.952,2.044,6.024,3.012,4.2,1.4,10.864,3.765,6.992,2.582,8.82,7.422,13.338,12.263,4.84,5.163,11.187,6.669,14.629,12.8,4.2,7.315,5.7,25.278,1.076,32.7-2.8,4.625-4.3,10.326-8.713,13.661-4.625,3.657-7.637,6.992-12.908,9.681" transform="translate(-109.1 -34.918)"/>
            <path d="M168.8,61.2" transform="translate(-104.583 -34.941)"/>
            <path d="M187.6,64.566c4.84-1.936,7.53-.645,11.294,1.936.968.753,4.3,2.582,4.733,3.335.538,3.227-2.366,3.442-2.474,5.486.108,4.948,2.151,5.056-2.044,7.96-2.044,1.4-4.2.968-6.454,2.366" transform="translate(-103.16 -34.757)"/>
            <path d="M182.961,75.088c.753-1.506,4.2-1.829,6.454,0-1.721,3.335-4.3.645-7.315.323.215-.861,1.076-.861.968-1.506" transform="translate(-103.577 -33.985)"/>
            <path d="M188.2,73.427c3.98-1.506,4.3,1.936,7.207,2.259,3.227,0,2.9-4.088,5.7-1.721" transform="translate(-103.115 -34.044)"/>
            <path d="M219.282,139.26c2.689-5.809,9.358-13.123,11.4-20.007,3.442-11.079-1.291-14.521-3.012-24.095-1.721-9.466-2.259-15.92-8.283-23.557-3.657-4.625-11.079-13.123-17.641-11.079C203.9,68.8,212.4,71.063,204.115,80.207c-2.151,2.474-6.777,2.366-7.314,7.422-.108,2.044,1.506,3.657,2.9,6.239" transform="translate(-102.465 -35.016)"/>
            <path d="M162.1,37.661c3.872-2.151,7.96.215,11.832,1.291,6.884,2.044,13.661,1.721,20.115,5.593,7.1,4.3,22.374,14.414,23.234,23.772" transform="translate(-105.09 -36.788)"/>
            <path d="M202.555,61.033a19.067,19.067,0,0,0-5.7-7.637c-2.8-1.936-13.768-3.872-13.553-2.044" transform="translate(-103.486 -35.741)"/>
            <path d="M172.9,69.7c4.625.538,7.96,4.948,9.789,6.131.861.323.861,2.9,1.829,3.657,1.183.538,6.454-.323,7.637.753,2.151,1.291,3.335,2.8.861,4.733" transform="translate(-104.273 -34.298)"/>
            <path d="M188.7,73.9a6.58,6.58,0,0,0,.538,1.291c.861,1.506.861,1.829.43,3.872" transform="translate(-103.077 -33.98)"/>
            <path d="M165.747,78.53c-.968-8.067,14.306-2.582,4.948-13.231-3.442-3.657-12.908-8.713-17-3.335" transform="translate(-105.725 -35.06)"/>
            <path d="M167.945,60.618c-.323-.861-1.076.645-.323-.215,2.9-4.088,5.163,1.613,6.669,2.366,4.3,2.582,11.079,6.024,8.39,12.478" transform="translate(-104.697 -35.112)"/>
            <path d="M189.939,63.788c-1.613-1.936-3.872-3.765-6.239-4.088" transform="translate(-103.456 -35.054)"/>
            <path d="M178.605,64.668c-1.291-4.3,14.414-3.012,9.9,5.593-2.8-1.183-5.271-.108-5.593,2.8" transform="translate(-103.847 -34.859)"/>
          </g>
          <path d="M299.18,114.9c1.4,4.733,0,11.4.753,16.135.43,8.067-.43,13.984-3.335,21.083-2.8,5.486-3.335,13.231-5.916,17.748-3.98,6.239-10.111,3.442-15.382,6.239" transform="translate(-9.92 8.205)"/>
          <path d="M290.646,169.1c-5.056,5.271-13.876,8.713-21.621,8.713-8.067.43-36.25-6.777-44.425-3.442" transform="translate(-13.756 12.306)"/>
          <path d="M243.5,238.782c10.757-10.649,31.84-18.071,34.851-35.282" transform="translate(-12.326 14.909)"/>
          <path d="M189.606,229.016c-8.175-4.2-18.932-15.92-16.888-25.816" transform="translate(-17.701 14.886)"/>
          <path d="M60.36,171.331c-15.49-10.326-27-29.8-24.74-48.512C38.2,107.006,30.672,65.809,51.54,60" transform="translate(-28.076 4.051)"/>
          <path d="M261.8,68.1" transform="translate(-10.942 4.664)"/>
          <path d="M184.9,20.944c20.007-10.972,33.776-1.506,48.3,8.82,6.777,4.733,15.7,6.884,20.222,13.338,4.518,7.422,2.9,16.888,8.82,22.7" transform="translate(-16.76 0.725)"/>
          <path d="M152.8,163.5c4.948.538,11.4,2.366,16.027-.861,5.056-3.872,3.442-10.542,9.036-13.016,9.789-5.271,6.562,2.8,11.294,6.777,5.271,4.41,7.207,4.2,14.091,5.593,5.378,0,32.485-1.4,34.852,3.227s-20.653,13.984-25.924,14.952" transform="translate(-19.189 10.701)"/>
          <path d="M158.571,62.833c2.689-3.119,3.012-6.884,9.789-5.271h0c1.936-2.366,6.024-5.593,6.562-7.852,1.506-.108,3.872,1.829,3.872,1.829-12.478-25.171-44.748-9.251-63.249,3.335C101.668,63.37,100.7,85.421,100.7,85.421c1.613,9.358,8.928,22.7,13.338,30.334" transform="translate(-23.131 2.402)"/>
          <path d="M145.787,114c-16.35,13.123-18.609,38.186,4.088,46.469" transform="translate(-20.673 8.137)"/>
          <path d="M151.941,144.7c-6.346,10.757-3.98,20.868,8.067,25.6" transform="translate(-19.513 10.46)"/>
          <path d="M190.5,184.8c2.582,12.908,23.127,27,18.071,40.553" transform="translate(-16.336 13.494)"/>
          <path d="M194.5,183.1c6.562,8.175,17.318,14.521,27.86,17.964" transform="translate(-16.034 13.365)"/>
          <path d="M99.56,140.7c-8.5,11.725-10.864,25.816-3.765,39.8" transform="translate(-23.819 10.157)"/>
          <path d="M136.206,181.2c-9.036,5.916-24.848,8.713-34.206,2.259" transform="translate(-23.033 13.221)"/>
          <path d="M112.935,170.2c-3.872,6.239-11.617,9.036-16.135,7.96" transform="translate(-23.426 12.389)"/>
          <path d="M134.37,192.873c-10.434-1.936-22.912-3.119-32.27-9.573" transform="translate(-23.025 13.38)"/>
          <path d="M91.958,76.1a29.982,29.982,0,0,0,17,34.314" transform="translate(-23.854 5.269)"/>
          <path d="M51.7,97.4c10.219.538,23.665,3.765,27.645,15.059" transform="translate(-26.838 6.881)"/>
          <path d="M152.04,217c-5.7,1.936-10.326,7.53-11.94,14.2" transform="translate(-20.15 15.93)"/>
        </g>
        <path d="M83.165,54.447C69.182,45.412,85.1,8.409,72.839,2.17,58.318-4.5,31.641,24.114,27.984,33.257c-2.9,8.283-1.076,12.478-8.39,21.191C13.678,61.547,7.008,68,4,76.283c-6.454,17.426-1.183,44.64,10.219,58.3,4.733-4.088,11.51-2.474,16.135,0" transform="translate(-0.447 -0.4)"/>
        <path d="M64.717,1.6C52.239.527,33.63,21.825,24.272,31.4,16.2,39.466,6.739,47.534,3.4,59.581S3.189,82.17.5,93.357" transform="translate(-0.5 -0.37)"/>
      </g>
    </g>
  </g>
</svg>
