<svg viewBox="0 0 452.2 299.7" xmlns="http://www.w3.org/2000/svg"><path d="m452.1 56.6c-8.1-35.8-71.5-46-102.5-51.6-53.2-7-114.6-9.9-163.8 14.2a23.5 23.5 0 0 0 -13.5 21.1c0 1.6.8 3 .7 4.7l-1 4.6v.2c-1-1.2-1-3.3-.8-4.8-1 6.3-9.6 46-10.1 52.1 0 1.5.8 2.8.7 4.3l-1 4.4v.3c-1-1.1-.9-3.1-.8-4.6-3.1 11 1 12 5 17.9a468 468 0 0 0 -88.6 11.8c-23.1 6.6-52 13.8-63.6 37-5.1 21.5-8.8 55.8-12.8 78-1.7 30.8 43 45 67 53.5 1.4-9 7.3-47.5 9.7-58l.8.2 2.7-14.9c-12.5-3.8-25-8.6-36-14.4-4.6-1.8-.1-2 2.4-3.1a352.7 352.7 0 0 1 79-15.3c69.7-6.9 140.5 3 210-9.7 31-6 65.4-12.6 88.5-35.8 6.4-6.8 7.8-16.4 10.4-25-7 18-26.8 26.5-43.5 33.3a183 183 0 0 1 -5.2 1.9l11.8-43.2c17.1-6.1 35.5-13.6 46.3-29 2.2-3.2 3.4-7.2 4.3-11 1.6-6.1 4.6-12.6 3.9-19zm-24.8 84.2c.6-3.4 2.6-7 4.5-9.6-.7 2.9-1.7 6.4-3.6 8.8-.1.2-1 1.6-.9.8zm-7.6 7.6c.5-1.1 1.1-4.9 2.2-5.6 1.3-1 2.3-2.3 3.6-3.3l.1.1c-.8 4.2-1.8 6.4-5.3 9-.2.2-.7.4-.6-.2zm-9.2 6.5c.8-3 1-5.5 4.2-6.8.8-.4 1.6-1.5 2.5-1.4-.2 1.2-1 5.4-2.3 6-.8.2-4.4 3.5-4.4 2.2zm-10.4 5.6c.5-1.2.8-5 2.3-5.6 1.6-.6 3.2-1.8 4.9-2.2.2.6-1.1 4.8-1.6 5.4-.6.5-5.7 3.7-5.6 2.4zm-11.2 4.7c1.2-6.1 1.8-5.3 7.2-7.4 1.1-.5-1 5.5-1.2 5.5-.7.4-6.2 3.3-6 1.9zm51.7-114.2 1.3-4.5c.1-.5.7-.3.9 0 3.8 4.1 4 4.7 2.1 10-.8 1-2.8-3.4-3.8-4-.3-.3-.6-1-.5-1.5zm-9.7-8.2c.4-.5.8-6 2.3-4.6s4.6 2.4 4.8 4.6c-.4.5-.8 6.1-2.3 4.6-1.3-1.6-4.5-2.4-4.8-4.6zm-11.7-6.8c.5-.6.6-6 2.4-4.8 1.7 1.2 4.5 1.8 5.6 3.6l-1.3 4.9c-.1.5-.7.5-1.1.2-1.4-1.1-5.6-2-5.6-3.9zm-11.6-10c1.4-1.4 5 1.4 6.7 1.8 2 .5-.4 4.7-.4 5.8-.4 1.2-6.7-1.9-7.5-2.7-.3 0 1.2-4.7 1.2-5zm-26.7-8.3c1.7-1.4 5.1.8 7.2 1.1 1.2.4-.8 4.7-.7 5.4-1 1.4-6-.8-7.4-1.3-.7-.3 1-4.7 1-5.2zm-14-3.1c1.4-1.4 5.7.6 7.6.8 1.4.4-.7 4.7-.6 5.4-1.3 1.5-5.3-.7-7.2-.7 0 0-1-.4-1-1zm-13.8-2.6c1.6-1.6 5 .4 7 .4.7.1 1 .5 1 1-.1.1-1.2 4.9-1.4 4.8-2 .7-4.4-.6-6.5-.7-.4 0-.7-.2-1-.4-.7-.2 1-4.7 1-5.1zm-13.9-2c0-1.3 8.7-.1 8 1.1-.4.7-.6 5.4-2 5.2-7.3-1.3-8 1-6-6.3zm-13.9-1.6c1.4-1.6 5 .1 7 0 2.3 0-.2 4.5-.1 5.4-.5 1.4-6.5 0-7.8-.2-.6-.3 1-4.7 1-5.2zm-13.9-1.1c.2-.5.7-.7 1.4-.7 1.5.4 6.3-.4 6.6 1.3-1.3 7.3-1.7 4.9-8 4.8-2.3.2.2-4.6 0-5.4zm-13.9-.7c1.6-1.7 5-.2 7-.5 2.2-.2-.2 4.6 0 5.4-.4 1.3-6.6.6-7.8.2-.7-.2.9-4.7.8-5zm-14-.1c.4-1.3 3.1-.7 4-.8 1 .2 4-.7 4.1.8-.5 1-.4 5.7-2.3 5.3-7-.5-7.7 2.2-5.7-5.3zm-13.8.3c0-1.2 8.2-1.6 8-.2l-1.1 4.5c-.6 1.3-6.7 1.2-7.8.7-.5 0 .9-4.8.9-5zm-13.6.9c1.4-1.8 4.8-.8 6.8-1.3 2.1-.4-.2 4.6 0 5.3-1.1 1.5-5.7 1-7.6 1-.6 0 .9-4.7.8-5zm-13.3 1.3c.4-1.4 6.2-1.6 7.5-1.4l.2.5c-.2.5-.8 5-1.5 5.1-2.1.6-4.8 1-7 .8-.6 0 .8-4.7.8-5zm-13.2 2c1.4-1.9 4.5-1.2 6.6-1.9.6 0 .9.2.9.6-.3.6-.7 5-1.5 5.2-2 .7-4.7 1.2-6.8 1.1-.5-.1.9-4.7.8-5zm5.3 7.4c24.7-3.6 49.9-4.2 74.8-2.6l-10.4 43.6-7.6-.4c-19.6-.8-39.4-.3-58.9 2.2l-7.4 1zm76.7 57.6c1.4-1.6 5.6-1.2 7.7-1.2.5.7-1 4.2-1 5 0 1.3-8.2 2-7.8.7l1-4.5zm-1-7.1c.6-1 .4-5.5 2.4-5 1.6.5 6-.3 6.5 1.4l-1 4-1.7.1c-1.5-.2-5.7 1.3-6.2-.5zm2.6 15.4 10.2-1-8.4 33.6a730.1 730.1 0 0 1 -65.5 2.3c-3.7 0-7.3 0-11-.2l8.2-36.6c22 2.9 44.3 3.6 66.5 1.9zm8.3 38.1-1.1 4.6c-.4 1.3-6.4 1.5-7.6 1.2-.6-.1 1-4.7 1-5 .2-.5.6-.8 1.2-.9 1.5.2 6-1.2 6.5.1zm-13.7 1.3c-.4 1-.7 4.3-1.4 5-1 .4-7.9 1.4-7.8 0 .3-.7.8-4.1 1.3-4.8.8-.7 7.9-1.6 8-.2zm-14.2.9c-.3.7-.8 4.2-1.3 4.8-2 1-5 .6-7.2.7-1.4 0 .6-4.4.5-5.2 0-1.1 8.4-1.6 8-.3zm-14 .5c-.5 1.2-.5 4.7-1.8 5.2-1.2 0-7.5 1-7.5-.4l1-4.5c-.1-1.2 8.9-1.5 8.3-.3zm-14.2.4c-.4 1.2-.7 3.7-1.3 4.8-2 1-5.2.4-7.4.5-1.2-.2-.1-2.2-.1-2.8l.5-2.5c1-1.5 4.3-.5 5.8-.8.8 0 2.6-.3 2.5.8zm-14.4 0-1 4.6c-.2.5-.8.7-1.3.7-2 0-4.5.1-6.3-.1-1.3-.2.3-3.4.2-4 .2-1 .2-2 1.6-2 1.1.3 7-.6 6.8.8zm-7.3-53.2c1.4.6 5-.2 5.3 1.6-.2.4-.9 4.9-1.4 5-2.2.4-4.8-.6-7.1-.8-1.3-.2 0-2.9 0-3.5.4-2.6.7-2.9 3.2-2.3zm-.6-5.8.5-2.5c1.6-1.6 5.3-1.2 7.4-1 .6 0-.7 4.2-.7 4.5zm13.4 7.4c6.5 1.3 7.9-1.6 5.8 6a1 1 0 0 1 -.8.6c-1.4 0-7.3.2-7.4-1.4.5-.9.3-5.8 2.4-5.1zm-.5-6.4 1-4.4c0-1.2 8-1.6 7.8-.3-.6 1-.4 5.5-2.3 5.2-1.6-.3-6 1-6.5-.5zm14.7 7.7c2 .6 5.7-.7 6.8 1.1-.2.4-1 5-1.4 5-1.2.4-7.8.6-7.9-.9.6-1 .4-5.7 2.5-5.2zm-1-8 1-4.5c1-1.6 5.2-.4 7-.7 2-.3-.3 4.4-.1 5.1-.4 1.4-6 .5-7 .8-.5 0-1-.2-1-.8zm13.8 9.3c1.7-1.6 5.4-.3 7.6-.6.4.1.6.4.6.7-.2.4-1 5-1.5 5-2 .8-4.6.1-6.7.3-2.2.2.2-4.5 0-5.4zm-.2-9.3c.6-1 .4-5.5 2.4-5.1 1.6.4 5.8-.7 6.5 1-.8 2.2-.1 6-3.8 5-1.1-.2-5 .6-5-.9zm13.3 14 1-4.6c0-1.1 8.4-1.5 8-.3-.2.5-.9 5-1.5 5-1.3.4-7.3 1.3-7.5-.2zm8.2-12.8c-.8 1.3-2.8.4-4.1.4-1.1-.2-3.3.4-3.7-.8.4-1.1.4-5.6 2.3-5.3 6 1 7.6-1.6 5.5 5.7zm-72.8-4c1.3.3 5.8-1.4 6 .1 0 2.3-4.4-.1-6 0zm2.8 7.2c-.3 1-.7 4.1-1.1 4.9-2.2.7-4.8-.7-7.1-.9-2.2-.1.1-4.6 0-5.6 1-1.4 3.8.3 5.3.3.9.2 3 .1 3 1.3zm-18.1-57.9c0-1 7.5-3 7.4-1.6l-1 4.6c-.6 1.3-6 2.2-7.3 2-.3 0 1-4.7.9-5zm-12.5 3.5c-.2-1 7.5-3.6 7.1-2.1-1 6.9-1.5 5.3-7.6 7.2-1.2.3.6-4.7.5-5.1zm-12 4.5c.1-1.1 6.8-4.1 6.8-2.8-.8 6.4-1.4 5.4-6.9 7.7-1.8 1 .4-4.6.2-5zm-11.5 10.3c.4-1.1.5-5.2 1.9-5.9 1.2-.4 4.4-3.6 5.2-2.3-.4 1.2-.5 5.3-2 5.8-1.1.2-5 3.7-5.1 2.4zm-.6 4c13.9-9 30.4-13 46.6-16.2 4-3.8-8.5 42.1-7.6 41.7-7.7-1.5-56.7-16-39-25.5zm40.6 32.6c-.4 1-.6 4-1.3 5-1.1.2-7.7-1-7.6-2.5.6-.8.3-5.8 2.3-5 1.5.8 6.4.8 6.6 2.5zm-14-3.7-1 4.5c-1.4 1.4-5.3-1.3-7.1-1.5-2.1-.4 0-4.7 0-5.8 0-1.2 8.6 1.7 8 2.8zm-13.7-4.7c-1.3 7.4-1 5-7 2.6-2.2-.7 0-4.7-.1-6 .8-1 2.4.6 3.4.8 1 .9 3.6 1 3.7 2.6zm-12.5-6.7c-.2.1-.8 5-1.3 4.8-1.7-.5-4.8-3-4.9-5 .3-.2.6-6.1 1.7-4.7 1 1.8 4.1 2.8 4.5 4.9zm-6.8-18.1c.2-1.4 2.8-5 4-5.3 0 .8-.7 5-1 5.6-.8.7-2.7 3.9-2.9 2-.2-.8-.4-1.6-.1-2.3zm-11 62.8c-.6-.7 0-2.4 0-3.2 1.3-5.3 7-36.7 8.5-41.3 11.9 18.4 43.2 22.2 63.3 26.9l4.8.7-8.3 37.7c-10.1-.3-21-.4-31.3-.4-13.1-4.2-29.1-8-36.8-20.3zm74 27.2c-.4.8-.8 4.3-1.4 4.9-2 .8-4.7 0-7 .2-.4 0-1-.2-1-.8.5-1 .5-5.8 2.4-5.3 1.2.3 7-.5 7 1zm-14.5-.4-1 4.5c-1.6 1.6-5.6.5-7.8.6-1.2-.2.7-4.6.6-5.2-.1-1.2 8.6-1.2 8.2.1zm-14.4-.2c-.2.5-.7 5-1.4 5-.8.6-6.3.3-7.2.3-1.4-.1.5-4.7.4-5.3 0-.3.4-.5.8-.7.2-.2 3.9 0 4.2-.1 1 .2 3-.5 3.2.8zm-21-.6c1.3.3 6.5-1 6.7.7-.3 1-.7 3.9-1.2 4.8-1.1.9-2.8.4-4.1.5-1.1-.2-3.7.8-4-.7.6-1.3.2-5.7 2.5-5.3zm-.2-5.5c.3-1.1 1.7-.3 2.4 0zm-9.6.2c-5.2.9-3-2.7-2.6-5.7.9-1.2 4.7 1.9 6.2 2.1 1.4.5.4 2.5.3 3.5l-3.8.1zm2.1 6.2c-.3 1.2-.6 3.8-1.1 4.9-.8.7-8.2 1.3-8 0 .4-1 .1-5.7 2.2-5.5 1.8.4 6-1.1 7 .6zm-14-12.4c-3-2-1.7-4.7-1.2-7.5.6-1 1.7 1.3 2.4 1.6 3.9 2.5 2.5 3.7 1.9 7.5-.9 1-2.3-1.1-3-1.6zm-8.5 13.4c-.1-1.2 8.6-1.8 8.2-.4-.1.2-.9 5-1.2 5-.8.5-8.2 1.3-8 0zm-15.1 5.6c.5-1 .2-5.6 2.2-5.5 2.1 0 4.7-.8 6.7-.2.4.1-.8 4.8-.8 5 0 .3-.3.5-.5.7-1.4.1-7.3 1.4-7.6 0zm-13.4-3.2c-.3-1.2 8.8-2.2 8.2-.9-.5 1-.2 5.7-2.2 5.5-6 0-8 3.2-6-4.6zm-14.2 1.7c1.6-1.8 5.6-1.4 7.9-1.6.6.2-.7 4.8-.7 5.1-1.5 1.9-4.8 1-7 1.7-2.1.6 0-4.5-.2-5.2zm-13.8 2.1c-.3-1 8.6-2.7 8-1.3-.2.6-.6 5-1.3 5.2-2.1.8-4.7 1-7 1.3-1.4.1.4-4.7.3-5.2zm-13.6 2.7c1.5-1.9 5-1.5 7.2-2.1 1.4-.2-.4 4.6-.3 5.1-1 1.7-5.2 1.6-7.2 2.1-1.3.3.5-4.6.3-5zm-13.5 3.1c-.1-1.1 7.1-2.9 7.7-2.2.2 0-.8 4.7-.8 4.9-.4 1.1-1.8 1-2.8 1.4-6.2 1.7-5 1.5-4.1-4zm-13.2 3.8c1-1.7 2.7-1.4 4.3-2 .8-.1 3-1.5 3.2-.2-1 4.2.3 5.4-4.7 6.4-5.6 2.3-3-.5-2.8-4.2zm-12.8 4.7c1.1-2 4.3-2.2 6.3-3.2.6-.2 1 0 .9.4-.2.6-.6 5-1.2 5.3-1.8 1-4 1.5-5.8 2.4-2 1 0-4.4-.2-5zm-12.8 6c1.1-2 4.2-2.6 6.2-3.8.6-.3 1-.2 1 .3-.3.5-.7 4.9-1.2 5.2-1 .5-6.5 4.2-6.7 3l.7-4.6zm-10.2 6.8c.1-1.2 4.5-4.5 5.5-4.2-.4 4.9-.5 5.7-4.7 8.3-3.1 3-.6-3.2-.8-4.1zm-9 12.8c.1-.7.6-4.9 1-5.5a15 15 0 0 1 4.3-4.6c.3-.1-.7 4.8-.6 4.9-1 2-3.2 3.7-4.6 5.4zm-3.9 3.5c.6-1.4 1-3.3 2-4.4 0 2-2.1 12-2 4.4zm-1.8 12.6a27 27 0 0 1 1-6.1c0 1.8.4 3.4.6 5.2.1.4-.7 4.8-.7 5.3-.5 1.2-1-4-.9-4.4zm-7.2 56.2-.7 4.4c0 .3-.1.3-.2.3-1.3-3-.4-7.4.1-10.7 0-.4.1-.3.2 0-.1 2.1.6 4 .6 6zm4.6 14.9c-.9 1-3.3-4.2-3.6-5.2-.2-.7.4-4.8.7-5.5 1.1 1.6 3.2 4.3 3.6 6.3zm8.8 9c-.5 1.3-4.3-3-4.8-3.8-.5-.5.5-4.6.5-5.2.6-1.1 3.5 2.8 4.4 3.2 1.3.8-.1 4.7-.1 5.7zm9.8 6.8c-.9 1.2-4.9-2.4-5.8-3.2-.4-.6.5-4.7.7-5.3 1.7-.1 3.4 2.1 5 2.8 1.7.7 0 4.6 0 5.7zm12 6.6c-1.3 1.1-5.6-2.1-7-3-.5-.4.6-4.6.5-5.1.5-1.2 6.7 2.5 7.2 3.3.2-.1-.7 4.7-.7 4.8zm14.2 6.1c-1 1.2-7.1-2-8.2-3-.5-.1.6-4.5.5-4.8.3-1.3 8.7 2.4 8.5 3.4zm17.5-57.9c.6-1 2.2.1 3.2.3 2 1 4.8 1 6.4 2.6v.3l-.7 4.6c0 .2-.4.4-.7.4-3-.7-6.3-1.5-8.8-3.1-.5-.2.6-4.7.6-5zm-1 58.4c.4.2.6.4.6.8-.3.5-.4 5-1.5 4.8-1.5-.3-8.9-2.1-8.9-3.6.4-.4.4-5 1.4-4.8a52 52 0 0 1 8.4 2.8zm-7.9-6.2c-21.9-8.7-49-18.1-57.4-41.9l6.9-43.8c8.7 24 36 33.4 58.3 42.2l-7.9 43.5zm-48.1-85c.1 0 .5-5.5 1-4.8 2.9 5 4.2 4.8 2.7 10.9-.8 1.1-4-5-3.7-6zm7.6 10.5c1-7 .6-5.2 5.3-1.3.8.6.5 1.7.3 2.5-.3.4 0 4.7-1.3 3.6-1.5-1.5-4-2.6-4.3-4.8zm12.8 4.2c4.3 2 2.7 3.6 2.3 7.3-1 1.2-3.1-1.5-4.3-1.9-2.6-1-1.4-3.7-1.2-5.7 0-2.7 2-.3 3.2.3zm-.9-6.8c.5-.1.7 0 .6.5zm22.1 18.9c.2-1.3 8.9 2.4 8.6 3.5-.3.4-.5 5-1.3 5a20 20 0 0 1 -8-3.6c-.2.1.7-4.8.7-5zm-10.8-6c1.4 1 4.5 1.4 5 3.3-.5.7-.2 6-2 4.8-2-1.3-5.4-1.7-6.2-4 .7-1.9-.3-6.9 3.2-4.1zm1.2-13.4c.4.8-7.6 4.2-7 2.8.6-4.6.3-5.4 5-6.9 4.7-2.4 2 1.8 2 4.1zm4.8-9.5c-6.6 2.3-13.5 5-19.7 8.3a45.2 45.2 0 0 1 -16.5-19.7c-1.5-16 33-28.7 46-33.3-.8.9-6 47.4-9.8 44.7zm8 5.3c-.5 1.4-2.5 1.3-3.6 1.9-1.2 0-3 1.6-3.7.4.7-4.6.1-5.3 5-6.5 1-.1 2-.8 2.8-.6.7 0-.6 4.5-.5 4.8zm13.2-3.4c-1.2 1.8-4.6 1.5-6.6 2.3-.7.2-1 0-1-.4.5-1.1.2-5.4 2-5.5 5.9-1 7.4-4 5.6 3.6zm13.3-2.9c.3 1-8.1 2.9-7.6 1.6.8-3.1-.3-5.6 4-5.8 5.9-1.6 4.4-.5 3.6 4.2zm13.8-2.4c-1.5 1.9-4.8 1.1-7 2-2 .5 0-4.4-.2-5 1.4-2 5-1.2 7-2 2-.5 0 4.3.2 5zm13.6-1.9c.2 1-8.5 2.4-8 1 .9-3.9 0-5.5 5-5.6 5.7-1.3 3.4.8 3 4.6zm14-1.5c-.5 1.2-2.3.8-3.4 1-1.3-.1-4 1.3-4.7-.2 1-5 .3-5.4 5.8-5.7 5.2-1 2.4 1.9 2.3 4.9zm5.6-8.7a394 394 0 0 0 -69.6 11.8l-2.8.8c.9-.4 6.2-46 9-44.2 23.8-6.7 48.4-10.1 73-12.2 3.6-2.7-8.2 43.7-7.3 43.6-.8 0-1.5 0-2.3.2zm8.4 7.5c-1.2 1.7-5 .7-7 1.3-2.2.4 0-4.3-.2-5 .6-1.5 6.4-1.4 7.9-1.2.5.1-.8 4.5-.7 4.9zm14-.9c-.2.5-.8.8-1.3.8-5.8-.2-8 2.8-6-4.7 1.6-1.8 5.1-.7 7.3-1.2 2-.3-.2 4.4 0 5.1zm14-.6c-1.2 1.6-5 .6-7 1-2.2.4 0-4.3-.2-5 .3-1.2 8.3-1.7 8.2-.4zm14.1-.3c-1.5 1.6-5 .4-7.1.9-2.2.3 0-4.3-.1-5.1 0-1.2 8.3-1.5 8.2-.2zm14.1 0c-.7 1.3-3.2.4-4.5.7-5.6.5-3-1.5-2.6-5.2.3-1.4 6.1-.5 7-.7 2.2-.2 0 4.3.1 5.1zm14.2 0c-1.7 1.7-5 .3-7.1.7-1 0-1.1-.5-1-.7l.9-4.4c1.3-1.7 5-.4 7.1-.7 2.2-.2 0 4.3 0 5.2zm5-8.2c-22.1-.5-44.4-.2-66.5 1.1l-7.6.5 8.6-43.6 13.4-.8c21.6-1.1 43.4-1.2 65-.6-.7 1.8-9 40.3-9.7 43.5h-3.3zm9.1 8.6c-.8 1.3-2.9.5-4.2.6-1.2-.1-2.8.3-3.8-.3-.4-.1.9-4.6.9-4.9.2-.7.9-.7 1.3-.7l5.8.1c2.1-.3 0 4.3 0 5.2zm14 0c-.7 1.5-4.7.6-6 .8-.6 0-2 .2-2-.8l1-4.3c.8-1.5 5.5-.5 7-.8 2.2-.3-.1 4.4 0 5.2zm14.1 0c-1.2 1.5-3.9.5-5.6.8-.6 0-2.6.3-2.5-.7l1-4.4c1.6-1.6 5-.4 7.1-.8 2.3-.4-.2 4.3 0 5zm14-.4c-1.7 1.7-4.9.5-7.1 1-2.1.4.1-4.3 0-5.1 1.8-1.8 4.8-.5 7.2-1 2.1-.3-.2 4.3-.1 5.1zm13.8-.6c-1.6 1.7-4.8.6-7 1-2 .4.3-4.2.2-5 1.4-1.7 4.8-.6 6.9-1 2.2-.5-.3 4.3-.1 5zm14-1c0 1.1-8.6 2-8 .6 1-4 .1-5.6 5.2-5.4 5.7-.9 3.3 1 2.7 4.9zm-1.7-8a749 749 0 0 1 -66.7 1.6l9.5-42.4.2-1h8.8a772 772 0 0 0 68.8-2.2l-1 3.9c-.7 2.2-8.9 36.1-9.8 39.4l-9.8.8zm15 6.9c-.8 1.4-3.1.8-4.6 1.2-.9-.1-2.9.7-3-.5 1-3.2 0-5.6 4.4-5.4 6.1-1 4.1 0 3.3 4.7zm13.8-1.6c.1 1-8.3 2.2-7.9 1 1-4 .4-5.6 5.3-5.6 5.7-1.3 3.1 1 2.6 4.6zm13.2-2c.2 1-8.1 2.5-7.5 1.2 1-3.7.3-5.5 5-5.6 5.6-1.5 3 1.1 2.5 4.5zm13.2-2.2c-.2 1-8 2.7-7.7 1.4 1-3.8.5-5.5 5.2-5.8 5.7-1.6 3 1 2.5 4.4zm12.8-2.8c0 1-7.7 3-7.3 1.6 1-3.6.5-5.5 5-5.9 5.6-1.8 2.7 1.1 2.3 4.3zm12.3-3.2c0 1-7.3 3.2-7.2 2 1-3.7.5-5.5 5-6.1 5.6-2 2.7 1 2.2 4zm13.4-8.2c-.5 1-.8 5.3-2.4 5.5-1.8.4-3.9 1.5-5.6 1.6-.3 0-.3-.3-.2-.4.2-.7 1-4.8 1.6-5 .7-.4 7-3 6.6-1.7zm-5.7-1.7c-15.5 4.8-31.3 8-47.3 10.5-7.9 1.2-16 2.1-24 3 1.7-6.7 9.4-37.5 11-43.4a414.4 414.4 0 0 0 72-13.3l-11.7 43.3zm-53-34.5 1-4.5c.1-1.1 8.4-2.3 8-1-.4 1.2-.6 4-1.5 5-.8.5-7.7 1.9-7.6.5zm13.7-1.7 1.2-4.5c.8-1.5 3.4-1 5-1.5.6 0 2.6-.8 2.6.4-.5 1.2-.7 4-1.6 5-1 .5-7 2-7.2.6zm13.2-2c.6-1.1.6-5.5 2.6-5.5 1.6.1 5.7-2 6.4-.4-.2.5-1 4.9-1.6 5-1.2.5-7 2.3-7.4.9zm13.5-2.5 1.2-4.5c0-1 7.6-3 7.3-1.6-.2.5-1 4.8-1.6 5-1.2.5-6.7 2.5-7 1zm12.6-2.9c.3-.6 1-5 1.7-5.2 1-.3 6.7-2.6 6.8-1.2-.2.5-1 4.9-1.7 5.1-1 .5-6.5 2.7-6.8 1.3zm19.6-5.7c-.4 1.2-2 1.3-3 1.7-1.3.3-2.6 1-3.9 1-.6 0 1-4.6 1-5 1.4-1.8 4.7-1.8 6.8-2.7 1.2-.2-1 4.6-.9 5zm3-10.7c-15.2 4.6-33 9.8-47.8 10.9-9.9 2.9-21.7 3.1-32.3 4.5l8.5-34c11.3-2.5 28-3.6 35-13.8.3-1.2 4.5-16 4-16.8-5.1-10.7-22-11.9-32.7-15.1l-3.7 14.9.8.1-3.5 14.3-.6 2.2-4.4.5c-1.3.7.2-2.3 0-2.6.8-1.3 3-.2 4.2-.2l.7-3.2a348 348 0 0 0 -23.8-2.6l10.6-43.6a393.5 393.5 0 0 1 75.5 13.6l-11.5 43.5a229 229 0 0 0 -15.8-4.3l-3.7 14.3 5.9 1.5c4.5 1.1 47.4 13.8 34.5 15.9zm-78-21.6c.5-1.4.6-4 1.6-5.1 2-.8 4.5-.8 6.6-1.1 1.6-.3-.5 4.1-.4 4.7 0 .7-.7 1.2-1.4 1.3-1.1 0-6.4 1.7-6.4.2zm28.2-22.6c2.3 1.2 7.3 2.4 7.9 4.1-6.6 2.8-13.7 4.4-20.7 5.8 4.6-14.7-.8-14.3 12.8-9.9zm-2.1-5 1.1-4.6c.4-1.3 7.3 1.3 6.8 2.5-.5.7-.6 5.9-2.2 5-1.7-1.2-5.1-1-5.7-3zm8 15.5c-.5 1.4-.7 4.1-1.6 5.2-.8.6-6.5 3.3-6.5 1.8.5-1.1.6-5.4 2.4-5.6 1 0 6-2.7 5.7-1.4zm-12.2 4c-.5 1.2-.6 4-1.6 5-2 1-4.6 1.5-6.8 1.5-.6-.1 1-4.2.9-4.5 0-.7.5-1.3 1.4-1.5 1.1.1 6.1-2 6.1-.6zm-2-21.4c.1 1.3-9-1.2-9.5-2-.2 0 1-4.7 1.1-4.8.1-.3.6-.5 1-.5 2.5.2 5 1.1 7.5 1.7 2.4.2-.1 4.5 0 5.6zm22.5 7.4c-1 .5-2.3 2.3-3.2 1.4-.8-.6-2.2-1.1-2.1-2.3.5-.7.5-6.1 2.4-4.6 1.6 1.2 5.8 3.7 2.9 5.5zm.9 3.2c-.6 2.7-1.2 6.8-3.9 8.3-.4.3-2 2-2 .8 1.6-7.2 1.5-4.4 5.9-9zm11.3 21.8c-.4-.3 1-4.6 1-5 .1-.2.4-.3.6-.4 1.6.3 6.7 1.2 7 3-.3.3-1 4.8-1.7 4.7-2.2-.4-5-1.2-6.9-2.3zm-4.7-6.6c-.9 2-.3 6.2-3.8 4.4-1.5-.5-3.3-.6-4.7-1.4-.6-.3 1-4.6 1-5 .1-.5.6-.6 1.2-.5 1.6.8 6 .6 6.3 2.5zm17.5 10.4 1.1-4.4c.4-1.3 8 2 7.5 3.1-.6.7-.5 5.8-2.4 4.7-1.8-1.3-5.4-1.3-6.2-3.4zm12.5 5.5c.5-.6.7-5.8 2.4-4.6 1.6 1.2 5 1.8 5.5 3.9-.6.6-.6 5.8-2.4 4.6-1.4-1.3-5.3-2-5.5-3.9zm7.9 11.5c-.3.6-1 4.5-1.6 4.8-.8.4-6.2 3.3-6 2 .4-1.2.7-5.4 2.3-5.7 1 0 6.2-3.3 5.3-1.1zm9.9-1c-1.1 1.8-3.8 2.2-5.6 3.3-1.7 1 .8-4.5.6-4.8 1.1-1.9 3.8-2.2 5.5-3.4 1.8-1-.7 4.6-.6 4.8zm-5.4-6.8.3-1.3c.2-.4.6-.5 1.1-.1 1.5.6-.8 1-1.4 1.4zm16.6-3.9c-.5 1.3-1 5.4-2.6 6-.6.3-4.4 3.6-4.3 2.1.8-1.7.7-4.8 2.5-5.8.7-.2 4.5-3.5 4.4-2.3zm8.5-7.3c-.4 1.2-1.1 5.2-2.1 6.1a52 52 0 0 1 -3.5 3.2c-.1 0-.3.1-.4 0 .4-1.3 1-5.3 2.2-6.2l3.6-3.2s.2-.1.2 0zm6.2-8.1c-.8 3.2-2 7.4-4.5 9.7.3-2.4 1.6-6.1 3.2-8 .3-.3 1.5-2.7 1.3-1.7zm-.6-2.5a68.9 68.9 0 0 1 -25.6 19.4c-9.8-7.8-21.6-13-33.5-17.2l11.6-43.4 5 1.9c16 6.5 44.8 19 42.5 39.3zm1.8-6.7h-.2c-.3-1.9-1-3.5-1.4-5.3 0-.7 1-5 1.5-5.6 1 1 1.2 3.1 1.6 4.5.2 1.4-1.1 5-1.5 6.4zm1.7-.4c0 1.1-.5 2.1-1 3.1l.9-3.1c0-.3.2-.3.1 0z" fill="#303030" opacity=".08"/></svg>