<svg viewBox="0 0 952.4 978.7" xmlns="http://www.w3.org/2000/svg"><path d="M930.5 0c18.2 4.7 18.5 19.8 19.3 34 6.8 116.5 1.8 231.8-37.7 342.9-22.8 63.9-58.2 119-118.1 154.8-42 25-87.5 34.2-136.3 32.4-60-2.3-115.6-20-170.3-42.7l-8-2.9c-.5-.2-1.2 0-4 0 1.6 13.5 2.3 26.9 5 39.8 9 41.6 17.8 83.2 28.2 124.5 12.5 50 11.6 100.5 5.2 150.7-5.3 41.8-15 83-23.3 124.3-2.1 10.4-6.4 20.3-19.9 20.9-13.2.5-23-9.5-20.6-22.6 6.9-38 15-76 21.1-114.1a432.5 432.5 0 0 0-13.4-190c-10.9-38.1-15.2-78.1-22.5-117.3-.5-2.5-1.2-5-2.2-8.8-6.7 4-12.6 7.4-18.1 11.1-31.9 21.5-65.5 39.6-103.5 47-74.6 14.3-136.6-10.9-188.3-64.2-51.9-53.5-83.6-118.8-108.3-188C10 318 5.5 304 1.3 290c-4.2-14 2-25.8 16.4-27.9 28.4-4.1 57-8 85.6-9.6 66.1-3.9 132-2.7 197 12.5 46 10.9 88.5 29 123.4 62.1 2.7 2.6 6 4.5 9.9 7.3l8-22.6c29.7-83.7 87.3-144.4 159.8-192.4 82.1-54.6 174.2-84.8 269.3-107.1C888.9 8 907.2 4 925.5 0zm-454 469.7c5 3 6.1 4 7.5 4.5 58 26 116.9 48.5 181.9 50.3 48.5 1.4 92.4-9.8 129.7-41.7 44.4-37.8 68.5-88.1 85-142.5 27.9-91.9 32.2-186.4 29-281.6-.2-3.7-1.3-7.4-2-11-1.4 0-2-.2-2.7 0-12.1 2.6-24.3 5.2-36.5 8-91.3 21.7-179.7 51.3-257.6 105.4-68.5 47.6-120.2 108.4-138.3 192.6-3.8 18-5.2 36.4-7.7 54.6 5-1.4 6.8-3.5 8.4-5.7 30.2-40.2 64-76.2 111-97.2 24.8-11 50.6-20.5 73.7-34.4 42.6-25.6 83.6-53.8 125.2-81 9.4-6.1 19.6-4.2 26.1 5 7.2 10 5.7 20.9-5.3 29.6a748 748 0 0 1-183.2 110.6c-31.6 13-60.7 29.5-82.8 55.6-21.3 25.2-40.6 52-61.4 79zM48.3 299.3c.2 2.1.1 3.2.4 4 24.6 70 54.8 136.7 107.3 190.8 38.7 40 84.2 62.3 141.6 51.7 47-8.7 84.6-35 120.9-63.9.3-.2.3-.8.7-2-2.2-1.4-4.3-3.5-6.7-4.5-24.4-10.1-48-23.2-73.3-29.4-40.8-9.9-82.6-15-124-22.4-11.4-2-16.9-9.7-16.4-21 .4-11 9.3-19 20.4-18.6 67.2 3 131.9 17.8 193.8 44.2l9 3.7c.6-1.5 1-2.1 1-2.8.2-1.3.2-2.6.3-4 3.4-30.6-12.1-53-33-72.4-33.3-31-75-43.9-118.5-52.1-60.3-11.5-121-11-182-5.9-13.7 1.2-27.5 3-41.5 4.6z" fill="#505050"/></svg>