<svg xmlns="http://www.w3.org/2000/svg" width="279.651" height="291.217" viewBox="0 0 279.651 291.217">
  <g transform="translate(-0.12 -0.24)">
    <g>
      <path d="M57.87-86.85l-7.65,6.69L41.71-67.51v9.61l6.44,9.77-13.37-.7L28.25-48l-3.9,3.35s-4.55,11.8-5.67,13.17a20.28,20.28,0,0,1-3.67,3l-4,3.13-1,3.94,1,7L12.2,4l1.86,6L31.07,32l-6.61,1.3L10,28.49,0,22.77l-6.44.33-3.18,2.72-1.71,7.48v8.08l10,26.41L4.16,80,10,88.24,24.39,95.5l12.47,5.44,7.77,2.21,8.1,1.18,9.7-.51,4.31-1,.36-5.7,4.31-5.44,19.78,1.66,8.06-1.83,6.4-3.9,3.7-4.16,4.47-6.89,4.35-1.88,15.1-3.09,2.79-4-1.3-10.36,20.4-8.2,9.73-6.39v6.21L167,55l10.17,8.59,3.16-5.35,8.12-6.4,5.09-6.9,3.18-11.75,9.93-14.76,2.17-8L205.7,5.75l-6.5-2.31,9.62-.6L215-1.45,220-17l1.53-11.43-1.11-7.68-5.2-20.64L208.38-67.5l-4.68-2.43h-6.5l-5.9,4.85L178-40.78l-9.47,9.54.2-8.27,5.7-16.05L183-67.21l3.7-10.86-2.55-8.78-2.9-5.49-6.79-5.4-5.7-5.77-11.56-5.12-9.87-3.63-3-.37-3.57.37,3.57,6.28,2,7.14,1,12,3.87,8.65-6.84-4.75-7.66-4.82-4.6-8.36-9.41-6.1-9.48-1.26-8.53,1.21L92-97.45,79.8-98.83l-5.64,1.21L64.7-90.45Z" transform="translate(12.59 113.13)" fill="#fff"/>
      <path d="M57.34-86.42l-7.65,6.69-8.5,12.64v9.61l6.45,9.78-13.38-.71-6.55.82L23.8-44.24s-4.55,11.81-5.66,13.18a20.57,20.57,0,0,1-3.68,3l-4,3.13-1,3.95,1,7L11.67,4.38l1.86,6.09,17,21.92-6.61,1.33L9.51,28.91l-10-5.72-6.45.33-3.18,2.73-1.71,7.47v8.09l10,26.4L3.63,80.38l5.88,8.28,14.36,7.27,12.46,5.44,7.77,2.2,8.1,1.19,9.7-.52,4.31-1,.36-5.71,4.31-5.43,19.79,1.65,8-1.83L105.13,88l3.69-4.17L113.29,77l4.35-1.88L132.74,72l2.79-4-1.3-10.36,20.4-8.19,9.73-6.4v6.22l2.15,6.08L176.68,64l3.15-5.35L188,52.22l5.09-6.9,3.18-11.76L206.2,18.8l2.17-8L205.2,6.15l-6.5-2.31,9.62-.6L214.46-1l5-15.57L221-28l-1.11-7.68L214.7-56.31l-6.85-10.76-4.68-2.42h-6.49l-5.91,4.85-13.29,24.3L168-30.82l.2-8.27,5.7-16,8.54-11.64,3.71-10.86-2.56-8.78-2.9-5.5-6.79-5.39-5.7-5.77-11.56-5.12-9.87-3.64-3-.36-3.56.36,3.56,6.28,2,7.15,1,12,3.87,8.65-6.84-4.76-7.66-4.81-4.6-8.36-9.41-6.11L112.66-103l-8.54,1.21L91.43-97,79.28-98.4l-5.65,1.21L64.17-90Z" transform="translate(12.59 113.13)" fill="#fff"/>
    </g>
    <g>
      <g>
        <g>
          <g>
            <g>
              <path d="M166.86-30.42c10.26-4.43,14.75-17.45,20-26.43,3.11-6.11,5.49-13.63,14.77-13.06,10,.21,5,4.56,7.68,13.07,4.14,14.9,15.65,21.49,11.26,37.24-3.66,17.15-4.43,24.19-21.3,23,21.09,4.31,1.62,18.62-2.48,29.73-3.77,10-.2,10-8.27,18.65-4.55,5.06-9.55,4.07-10.49,12.63-7.17-8.72-13.39-5.19-13.1-21.77" transform="translate(12.59 113.13)" fill="none" stroke="#d8c501" stroke-miterlimit="10" stroke-width="0.7"/>
              <path d="M134.76,57.24c1.63,13.51,2.37,14.93-11.14,16.56-15.3,1.66-8.83,5.48-18,13.81C92.3,99.93,63.64,89.68,50.7,82c-7.54-4.16-16-10.51-18.81-19-6.64-19.93-2-14.68,7.94-19.82,13.89-6.08,24.94-4.74,34.9-6.51" transform="translate(12.59 113.13)" fill="none" stroke="#d8c501" stroke-miterlimit="10" stroke-width="0.7"/>
              <path d="M63.69,39.21c-20-.41-24.07,8.13-48.26-26.82C10,4.53,12.7-3.25,11.83-13.56c.31-2.86-2.6-6.73-1.58-10,1.7-5.37,6-4,8.43-8C24.23-41.54,22-49.35,34.81-48.83c5,1,11.9-1.18,16.59,2.66" transform="translate(12.59 113.13)" fill="none" stroke="#d8c501" stroke-miterlimit="10" stroke-width="0.7"/>
              <path d="M54.34-44.66c-17.92-7.65-20.87-33.77,19-45.73,6.83-2,7.5,3.82,12.85,3.74,7.83-.47,4.54-8.29,9.12-11.56,7-5.45,34-12,41.33,10.44" transform="translate(12.59 113.13)" fill="none" stroke="#d8c501" stroke-miterlimit="10" stroke-width="0.7"/>
              <path d="M151.75-77c-6.16-6.67-3.86-21.21-7-28s-4.06-9.56,6.68-6.16c6.08,1.33,9.75,8.4,14.44,12.25,11.9,9.08,19.39,9.68,16.44,26.47-2.31,11.06-17.15,31.27-13.79,41.2" transform="translate(12.59 113.13)" fill="none" stroke="#d8c501" stroke-miterlimit="10" stroke-width="0.7"/>
              <path d="M134.42,58.31c-13.23-3-15.58,6.3-26.6,7.54-6.76.81-25.41-7.45-29.43-13.45-13.86-21.52,8.75-29.73,33.17-30.47,1.47,2.82,7,0,13-.71,11-8.27,9.19-9.89,21.13-9.6C157.92,11.92,171.44.67,183,17c-7,10.79-9.69,19.39-20.6,27.75-9.87,6.92-17.34,8.1-27.6,12.53" transform="translate(12.59 113.13)" fill="none" stroke="#d8c501" stroke-miterlimit="10" stroke-width="0.7"/>
              <path d="M147.57,9.3c25.31-22.12,25-64.16,1.86-88-7.6-7.72-38.51-25.78-47.54-10.32-4.53,6.84,7,18.78,11,21.21,4.32,3.14,1.47,2.83,8.62,4.5,5,1,8.2.23,13.17-.55,10.66-2,9.17-6.56,20,.4,6.11,3.12,8.13,8.94,10.73,15.67" transform="translate(12.59 113.13)" fill="none" stroke="#d8c501" stroke-miterlimit="10" stroke-width="0.7"/>
              <path d="M147.57,9.3" transform="translate(12.59 113.13)" fill="none" stroke="#d8c501" stroke-miterlimit="10" stroke-width="0.7"/>
              <path d="M119.07-63.94c25.45,6.86,32.35,21.88,34,35.39" transform="translate(12.59 113.13)" fill="none" stroke="#d8c501" stroke-miterlimit="10" stroke-width="0.7"/>
            </g>
            <g>
              <path d="M145.74,11.62" transform="translate(12.59 113.13)" fill="none" stroke="#d8c501" stroke-miterlimit="10" stroke-width="0.7"/>
              <path d="M82.92,25.82C56.93,11.43,58-18,64.45-23.83c2.88-2.54,3.62,1.43,7.21,2.29,2.28.54,4.66-1.57,7.19-4,3.58-3.43,2.87-7.25,5.74-9.79,3.83-3.38,2.18-2.53,5.72-6.47,3.82-4.07,7.71-4,12.39-5.73,5-1.88,7.82-5.8,13.08-6.44,6.23-.79,19.18,3.31,23,8.66,2.4,3.29,5.91,6,6.94,10,1.18,4.28,2.63,7.31,3,11.74" transform="translate(12.59 113.13)" fill="none" stroke="#d8c501" stroke-miterlimit="10" stroke-width="0.7"/>
              <path d="M67.3-33" transform="translate(12.59 113.13)" fill="none" stroke="#d8c501" stroke-miterlimit="10" stroke-width="0.7"/>
              <path d="M75.55-46c.08-3.88,1.72-5.43,4.6-7.28.83-.42,3-2.26,3.71-2.27,2.37.52,1.71,2.61,3.1,3.28,3.49,1.33,4.16-.06,4.91,3.74.37,1.85-.52,3.2-.21,5.14" transform="translate(12.59 113.13)" fill="none" stroke="#d8c501" stroke-miterlimit="10" stroke-width="0.7"/>
              <path d="M81.89-39.17c-.84-1,0-3.47,1.88-4.47,1.83,2.19-.79,3.2-1.87,5.16-.56-.41-.32-1-.74-1.09" transform="translate(12.59 113.13)" fill="none" stroke="#d8c501" stroke-miterlimit="10" stroke-width="0.7"/>
              <path d="M82.38-43.62C82.47-46.81,85-46,86.06-48c.94-2.23-2-3.16.49-4.44" transform="translate(12.59 113.13)" fill="none" stroke="#d8c501" stroke-miterlimit="10" stroke-width="0.7"/>
              <path d="M136.54-46.94c-3.24-3.55-6.4-10.3-10.61-13.7-6.74-5.58-10.45-3.31-17.54-4.86s-11.69-3-18.74-1.1c-4.27,1.17-12.27,3.93-12.75,9.07,6.39.87,10.33-4.32,14.34,4.08,1.14,2.2-.33,5.41,3,7.16,1.4.67,2.94,0,5.13-.22" transform="translate(12.59 113.13)" fill="none" stroke="#d8c501" stroke-miterlimit="10" stroke-width="0.7"/>
              <path d="M47.57-35.32c-.33-3.32,2.41-5.44,4.32-7.83,3.4-4.21,5.13-9,9.65-12.35C66.61-59.18,78-66.84,84.69-64.72" transform="translate(12.59 113.13)" fill="none" stroke="#d8c501" stroke-miterlimit="10" stroke-width="0.7"/>
              <path d="M76.62-57.39a14.06,14.06,0,0,0-6.94,1.77c-2.16,1.38-6.63,8.42-5.37,8.81" transform="translate(12.59 113.13)" fill="none" stroke="#d8c501" stroke-miterlimit="10" stroke-width="0.7"/>
              <path d="M74.84-33.41c1.7-3.06,5.73-4.11,7.06-5.07.52-.52,2.23.25,3-.18.72-.64,1.67-4.54,2.7-5.07,1.54-1.06,2.89-1.5,3.54.78" transform="translate(12.59 113.13)" fill="none" stroke="#d8c501" stroke-miterlimit="10" stroke-width="0.7"/>
              <path d="M82.93-43.9a3.29,3.29,0,0,0,1,0c1.31-.16,1.52-.09,2.85.79" transform="translate(12.59 113.13)" fill="none" stroke="#d8c501" stroke-miterlimit="10" stroke-width="0.7"/>
              <path d="M78-25.07c-5.85-1.68,2.33-10.64-7.7-7.27C66.73-31,60.47-25.95,63-21.52" transform="translate(12.59 113.13)" fill="none" stroke="#d8c501" stroke-miterlimit="10" stroke-width="0.7"/>
              <path d="M66.47-32.56c-.7,0,.15,1-.28.15-2-3.16,2.59-3.09,3.55-3.94,3-2.27,7.39-5.94,11.05-2.25" transform="translate(12.59 113.13)" fill="none" stroke="#d8c501" stroke-miterlimit="10" stroke-width="0.7"/>
              <path d="M75.39-47.67a8.51,8.51,0,0,0-4.67,3.12" transform="translate(12.59 113.13)" fill="none" stroke="#d8c501" stroke-miterlimit="10" stroke-width="0.7"/>
              <path d="M72.74-39.31c-3.33-.36,2.05-10.84,6.71-5.23-1.64,1.55-1.6,3.63.35,4.71" transform="translate(12.59 113.13)" fill="none" stroke="#d8c501" stroke-miterlimit="10" stroke-width="0.7"/>
            </g>
            <path d="M147.29-112.26c3.7.4,7.89,3.26,11.44,4.12a33.68,33.68,0,0,1,13.66,8.4c3,3.49,8.24,6.18,10.59,9.22,3.15,4.56-.49,8-.11,12.45" transform="translate(12.59 113.13)" fill="none" stroke="#d8c501" stroke-miterlimit="10" stroke-width="0.7"/>
            <path d="M184.11-86.85c2.23,5,2,12.12-.19,17.53-2.07,5.72-15.15,23.2-15.2,29.81" transform="translate(12.59 113.13)" fill="none" stroke="#d8c501" stroke-miterlimit="10" stroke-width="0.7"/>
            <path d="M221-34.37c-4.31-10.54-3.34-27.32-14.36-34.37" transform="translate(12.59 113.13)" fill="none" stroke="#d8c501" stroke-miterlimit="10" stroke-width="0.7"/>
            <path d="M197.18,4c-5.23,4.46-16.47,8.56-22.76,4.27" transform="translate(12.59 113.13)" fill="none" stroke="#d8c501" stroke-miterlimit="10" stroke-width="0.7"/>
            <path d="M109.35,80.94C97.71,88.73,80.91,91.06,68.58,84.1c-10.24-6.3-41-13-38.95-29.15" transform="translate(12.59 113.13)" fill="none" stroke="#d8c501" stroke-miterlimit="10" stroke-width="0.7"/>
            <path d="M101.28-100.18" transform="translate(12.59 113.13)" fill="none" stroke="#d8c501" stroke-miterlimit="10" stroke-width="0.7"/>
            <path d="M41.93-57.56c-1.87-17,8.67-23.87,20.1-31,5.25-3.31,9.31-8.9,15.06-10.14,6.44-1,12.51,2.84,18.24.45" transform="translate(12.59 113.13)" fill="none" stroke="#d8c501" stroke-miterlimit="10" stroke-width="0.7"/>
            <path d="M137.79,10.4c1.79-3.25,5-7.22,4-11.36-1.23-4.59-6.31-5.43-6.38-10-.82-8.28,3.86-3.75,8-5.88,4.58-2.38,5-3.77,7.94-8.19,1.56-3.72,8.42-23,12.33-23.25s3.74,18.39,2.88,22.32" transform="translate(12.59 113.13)" fill="none" stroke="#d8c501" stroke-miterlimit="10" stroke-width="0.7"/>
            <path d="M62.75-22.32c-1.42-2.75-3.86-4.09-.82-8.29h0c-1.07-2.06-2.16-5.85-3.56-6.86.33-1.05,2.39-2.11,2.39-2.11C39.68-38.23,41.48-11.28,44.84,5.28c1.92,12.07,16.9,19.11,16.9,19.11,6.94,1.62,18.31.31,24.87-.48" transform="translate(12.59 113.13)" fill="none" stroke="#d8c501" stroke-miterlimit="10" stroke-width="0.7"/>
            <path d="M99.25,1.26c4.39,15.15,21.12,23.89,33.37,10.56" transform="translate(12.59 113.13)" fill="none" stroke="#d8c501" stroke-miterlimit="10" stroke-width="0.7"/>
            <path d="M124.23,5.72c5.65,7.52,13.28,8.79,20.09,1.77" transform="translate(12.59 113.13)" fill="none" stroke="#d8c501" stroke-miterlimit="10" stroke-width="0.7"/>
            <path d="M166.18-10.83c9.71,1.92,25.36-8.22,33.35-.82" transform="translate(12.59 113.13)" fill="none" stroke="#d8c501" stroke-miterlimit="10" stroke-width="0.7"/>
            <path d="M166.12-14.29c7.58-2.19,15.11-7.84,20.54-14.15" transform="translate(12.59 113.13)" fill="none" stroke="#d8c501" stroke-miterlimit="10" stroke-width="0.7"/>
            <path d="M104.92,43.79c5.68,9.25,14.76,15,26.5,14.12" transform="translate(12.59 113.13)" fill="none" stroke="#d8c501" stroke-miterlimit="10" stroke-width="0.7"/>
            <path d="M145.88,30.36c1.5,7.94-1.09,19.73-8.28,24.34" transform="translate(12.59 113.13)" fill="none" stroke="#d8c501" stroke-miterlimit="10" stroke-width="0.7"/>
            <path d="M130.86,43.39c3.18,4.45,2.92,10.68.9,13.48" transform="translate(12.59 113.13)" fill="none" stroke="#d8c501" stroke-miterlimit="10" stroke-width="0.7"/>
            <path d="M153.56,35.09c-4.4,6.63-8.77,15-16,19.61" transform="translate(12.59 113.13)" fill="none" stroke="#d8c501" stroke-miterlimit="10" stroke-width="0.7"/>
            <path d="M54.54,29a22.5,22.5,0,0,0,28.68-1.82" transform="translate(12.59 113.13)" fill="none" stroke="#d8c501" stroke-miterlimit="10" stroke-width="0.7"/>
            <path d="M57.87,65.6c3.35-7,9.45-15.36,18.45-14.81" transform="translate(12.59 113.13)" fill="none" stroke="#d8c501" stroke-miterlimit="10" stroke-width="0.7"/>
            <path d="M178,28.49c-.27,4.5,2.22,9.31,6.42,12.35" transform="translate(12.59 113.13)" fill="none" stroke="#d8c501" stroke-miterlimit="10" stroke-width="0.7"/>
          </g>
          <path d="M31.07,32C20.8,39-.28,17.38-8.14,24.07-17,32.16-4.83,59,.43,64.06,5.34,68.48,8.8,68.43,12.72,76c3.21,6.17,5.73,12.71,10.64,17.13,10.17,9.53,30.64,13.71,43.38,9.71-1.45-4.47,1.6-8.67,4.67-11.14" transform="translate(12.59 113.13)" fill="none" stroke="#d8c501" stroke-miterlimit="10" stroke-width="0.7"/>
          <path d="M-11,29.54c-4.36,8.37,5.06,27.35,9,36.63C1.28,74.08,4.18,83,11.53,88.79s15.67,6.68,22.66,11.76" transform="translate(12.59 113.13)" fill="none" stroke="#d8c501" stroke-miterlimit="10" stroke-width="0.7"/>
        </g>
      </g>
      <path d="M171.39,34.65,164,36.51l-10.1,5.55-3.28,6.46,1,8.77-8.73-5.07-4.68-1.71-3.77.91s-7.11,6.35-8.33,6.89a15.65,15.65,0,0,1-3.52.77l-3.73.74-2,2.3-1.72,5-5.54,12.7-.85,4.72,3.87,20.55-4.89-1.38-8-8.18L95,88.26l-4.43-2L87.4,87l-3.71,4.43-2.78,5.42L78.52,118,78,128l1.09,7.58,7.13,9.81,6.49,7.94,4.45,4.15,5,3.58,6.68,3,3.24.81,2.2-3.7,4.76-2.16,12.7,7.91,6,1.55,5.64-.42,3.91-1.52,5.36-3.08,3.57.24,11.19,3.12,3.24-1.72,2.69-7.39,16.51,1.51,8.72-.94-2.15,4.16-.65,4.82,3.87,9.27,4-2.51,7.65-1.49,5.79-2.88,6.17-6.79L235,156.41l4.2-4.61-.48-4.21-3.57-3.78,6.66,2.9,5.58-.75,8.7-8.72,5-7.14,1.9-5.53L266.56,109l-.89-9.57-2.3-3.24L259,93.91l-5.63,1.22L236.1,106.86,226.48,110l3-5.48,9.35-8.8,9.73-4.87,6.22-6,1.31-6.77L256,73.39l-2.7-6-1.84-5.83-6-7.41-5.37-5.83-1.86-1.27-2.52-1,.23,5.44L234.81,57l-3.45,8.39L231,72.54,228,67l-3.48-5.87L224.34,54l-4.21-7.33-5.93-4.11-6.14-2.12L197.9,39.27l-7.68-5.11L186,33l-8.81,1.55Z" transform="translate(12.59 113.13)" fill="#fff"/>
      <path d="M170.89,34.76l-7.43,1.85L153.4,42.17l-3.28,6.45,1,8.77-8.73-5.07-4.68-1.71-3.77.91s-7.11,6.36-8.33,6.89a15.181,15.181,0,0,1-3.52.77l-3.73.75-2,2.29-1.72,5L109,80l-.85,4.72,3.87,20.55-4.89-1.38-8-8.18L94.4,88.44l-4.43-2-3.08.74L83.18,91.6,80.41,97,78,118.12l-.52,10,1.09,7.57,7.13,9.81,6.49,7.94,4.45,4.15,5,3.58,6.68,3,3.24.82,2.2-3.71,4.76-2.16,12.7,7.92,6,1.54,5.64-.41,3.91-1.53,5.36-3.08,3.57.24L167,167l3.24-1.72,2.69-7.39,16.51,1.52,8.72-1L196,162.58l-.65,4.82,3.87,9.26,4-2.5,7.65-1.5,5.78-2.88,6.18-6.79,11.73-6.48,4.2-4.61-.48-4.21-3.57-3.78,6.66,2.9,5.58-.74,8.7-8.72,5-7.14,1.9-5.54,3.61-15.62-.89-9.57-2.3-3.24L258.51,94l-5.63,1.22L235.61,107,226,110.1l3-5.47,9.35-8.81L248,91l6.22-6,1.31-6.77-.06-4.68-2.7-5.95L251,61.71l-6-7.41-5.37-5.84-1.86-1.26-2.52-1,.23,5.44-1.14,5.47-3.45,8.39-.38,7.13-2.95-5.54-3.48-5.86-.21-7.19-4.21-7.33-5.93-4.11-6.14-2.12L197.4,39.37l-7.68-5.11-4.2-1.12-8.81,1.54Z" transform="translate(12.59 113.13)" fill="#fff"/>
      <g>
        <g>
          <g>
            <g>
              <path d="M225.08,110c8.4.56,15.9-6.63,22.48-10.86,4.19-3,8.37-7.25,14.39-3.68,6.63,3.57,1.83,4.8.66,11.41-2.34,11.42,3.1,19.79-5.26,28.84-8.35,10.25-11.28,14.71-22.2,8.12,12.67,10.14-5.31,13-11.88,19.08-6,5.43-3.57,6.62-12,9.67-4.8,1.82-7.81-.56-11.38,4.86-1.81-8.31-7.2-8.09-1.3-19.11" transform="translate(12.59 113.13)" fill="none" stroke="#d8c501" stroke-miterlimit="10" stroke-width="0.7"/>
              <path d="M173.4,157.74c-3.55,9.62-3.54,10.82-13.17,7.27-10.82-4.15-7.8.64-16.79,3.08-13.19,3.67-28.89-13.06-34.94-22.63-3.63-5.39-7.12-12.55-6.1-19.19,2.4-15.65,3.74-10.52,12.14-10.56,11.41.7,18.35,5.4,25.65,7.64" transform="translate(12.59 113.13)" fill="none" stroke="#d8c501" stroke-miterlimit="10" stroke-width="0.7"/>
              <path d="M131.94,121.2c-13.25-7.14-18.94-2.82-23.14-34.59-1-7.14,3.54-11.42,6.51-18.64,1.19-1.81.57-5.41,2.36-7.22,3-3,5.4-.63,8.4-2.44,7.18-4.84,8.35-10.85,16.78-6.09,3,2.38,8.39,3.3,10.21,7.49" transform="translate(12.59 113.13)" fill="none" stroke="#d8c501" stroke-miterlimit="10" stroke-width="0.7"/>
              <path d="M154.51,61.73C145.12,50.44,152.13,31.9,183,37.6c5.28,1,3.71,5.15,7.33,6.93,5.41,2.38,5.89-4,10.09-4.62,6.6-1.23,26.93,3.64,24.13,21.22" transform="translate(12.59 113.13)" fill="none" stroke="#d8c501" stroke-miterlimit="10" stroke-width="0.7"/>
              <path d="M231,73.55C229.12,67,235.67,58,235.91,52.34s.56-7.81,6.6-1.83c3.62,3,3.64,9,5.47,13.18,4.86,10.18,9.67,13.16,1.92,23.41-5.37,6.63-22.26,15.09-23.42,22.9" transform="translate(12.59 113.13)" fill="none" stroke="#d8c501" stroke-miterlimit="10" stroke-width="0.7"/>
              <path d="M172.81,158.34c-7.84-6.56-12.62-1.14-20.44-4.1-4.81-1.78-14.48-13.74-15.11-19.14-1.9-19.2,16.09-16.93,32.73-9,0,2.4,4.67,2.41,9,4,10.23-1.76,9.56-3.48,17.46.82,8.07,4.39,21,1.5,23.13,16.38-8.38,4.85-13.16,9.68-23.35,11.53-9,1.25-14.42-.53-22.83-1.09" transform="translate(12.59 113.13)" fill="none" stroke="#d8c501" stroke-miterlimit="10" stroke-width="0.7"/>
              <path d="M198.48,130c24.59-6.13,38.85-34.42,31.53-58.4-2.44-7.8-17-30.54-28.34-23.28-5.39,3-1.73,15,.09,18,1.82,3.59,0,2.4,4.23,6,3,2.39,5.42,3,9,4.16,7.82,2.36,8.4-1.25,13.25,7.14,3,4.18,2.37,8.79,1.8,14.19" transform="translate(12.59 113.13)" fill="none" stroke="#d8c501" stroke-miterlimit="10" stroke-width="0.7"/>
              <path d="M198.48,130" transform="translate(12.59 113.13)" fill="none" stroke="#d8c501" stroke-miterlimit="10" stroke-width="0.7"/>
              <path d="M204.56,71.07c14.7,13.35,14.17,25.79,10.61,35.42" transform="translate(12.59 113.13)" fill="none" stroke="#d8c501" stroke-miterlimit="10" stroke-width="0.7"/>
            </g>
            <g>
              <path d="M196.46,130.91" transform="translate(12.59 113.13)" fill="none" stroke="#d8c501" stroke-miterlimit="10" stroke-width="0.7"/>
              <path d="M149.44,118.83c-12.48-18.59-1.61-38,4.69-39.65,2.8-.71,1.94,2.21,4.05,4,1.34,1.15,3.66.55,6.19-.2,3.59-1.07,4.42-3.88,7.22-4.6,3.73-1,2.33-.94,6.06-2.36,4-1.43,6.55,0,10.29.41,4,.45,7.23-1.2,11,.18,4.45,1.61,11.73,8.82,12.45,13.72.49,3,1.9,6.07,1.22,9.11-.69,3.27-.76,5.81-2.06,8.89" transform="translate(12.59 113.13)" fill="none" stroke="#d8c501" stroke-miterlimit="10" stroke-width="0.7"/>
              <path d="M159.19,74" transform="translate(12.59 113.13)" fill="none" stroke="#d8c501" stroke-miterlimit="10" stroke-width="0.7"/>
              <path d="M169.2,68.13c1.39-2.58,3-3.06,5.59-3.3.7,0,2.8-.49,3.27-.25,1.41,1.16.25,2.33.95,3.26,1.88,2.09,2.81,1.39,2,4.2-.39,1.36-1.45,2-1.91,3.37" transform="translate(12.59 113.13)" fill="none" stroke="#d8c501" stroke-miterlimit="10" stroke-width="0.7"/>
              <path d="M171.1,74.89c-.23-.93,1.16-2.34,2.8-2.35.47,2.1-1.63,1.88-3,2.82-.23-.47.12-.76-.12-1" transform="translate(12.59 113.13)" fill="none" stroke="#d8c501" stroke-miterlimit="10" stroke-width="0.7"/>
              <path d="M173,72.08c1.16-2.11,2.57-.72,4-1.66,1.4-1.17-.24-2.8,1.86-2.81" transform="translate(12.59 113.13)" fill="none" stroke="#d8c501" stroke-miterlimit="10" stroke-width="0.7"/>
              <path d="M210.43,88.48c-1-3.5-.75-9.11-2.4-12.84-2.61-6.06-5.88-5.81-10.1-9.3s-6.81-6-12.19-7.18c-3.27-.68-9.58-1.58-11.67,1.7,4,2.78,8.42.65,8.22,7.67,0,1.86-2.09,3.51-.44,5.84.71.93,2,1,3.51,1.62" transform="translate(12.59 113.13)" fill="none" stroke="#d8c501" stroke-miterlimit="10" stroke-width="0.7"/>
              <path d="M146.76,65.67c.92-2.34,3.49-2.82,5.59-3.77,3.73-1.65,6.52-4.24,10.72-5,4.67-.72,14.94-1.94,18.7,1.78" transform="translate(12.59 113.13)" fill="none" stroke="#d8c501" stroke-miterlimit="10" stroke-width="0.7"/>
              <path d="M173.84,60.86a10.63,10.63,0,0,0-5.27-1.2c-1.92.18-7.34,3.37-6.64,4.06" transform="translate(12.59 113.13)" fill="none" stroke="#d8c501" stroke-miterlimit="10" stroke-width="0.7"/>
              <path d="M164.39,76.33c2.19-1.47,5.26-.79,6.48-1,.53-.18,1.41.93,2.11.92.7-.18,2.68-2.46,3.55-2.47,1.4-.18,2.45,0,2.11,1.74" transform="translate(12.59 113.13)" fill="none" stroke="#d8c501" stroke-miterlimit="10" stroke-width="0.7"/>
              <path d="M173.43,72.08a2.52,2.52,0,0,0,.7.34c.94.35,1.05.46,1.64,1.51" transform="translate(12.59 113.13)" fill="none" stroke="#d8c501" stroke-miterlimit="10" stroke-width="0.7"/>
              <path d="M163.61,83c-3.35-3.14,5.23-6.34-2.67-7.52-2.8-.34-8.75.92-8.56,4.77" transform="translate(12.59 113.13)" fill="none" stroke="#d8c501" stroke-miterlimit="10" stroke-width="0.7"/>
              <path d="M158.48,74c-.46-.23-.23.7-.23,0-.25-2.8,2.8-1.18,3.73-1.42,2.8-.48,7-1.44,8.19,2.29" transform="translate(12.59 113.13)" fill="none" stroke="#d8c501" stroke-miterlimit="10" stroke-width="0.7"/>
              <path d="M169.66,67a6.5,6.5,0,0,0-4.2.49" transform="translate(12.59 113.13)" fill="none" stroke="#d8c501" stroke-miterlimit="10" stroke-width="0.7"/>
              <path d="M165,71.65c-2.11-1.39,5.11-6.57,6.31-1.2-1.64.48-2.33,1.88-1.39,3.28" transform="translate(12.59 113.13)" fill="none" stroke="#d8c501" stroke-miterlimit="10" stroke-width="0.7"/>
            </g>
            <path d="M240.1,48.36c2.34,1.54,4.17,4.9,6.26,6.7a25.34,25.34,0,0,1,6.27,10.33c.79,3.37,3.4,7,3.94,9.83.53,4.14-3.09,5.2-4.37,8.31" transform="translate(12.59 113.13)" fill="none" stroke="#d8c501" stroke-miterlimit="10" stroke-width="0.7"/>
            <path d="M256.06,78.07c-.24,4.15-2.81,8.82-6.16,11.69-3.35,3.13-18.14,10.35-20.45,14.76" transform="translate(12.59 113.13)" fill="none" stroke="#d8c501" stroke-miterlimit="10" stroke-width="0.7"/>
            <path d="M262.78,126c.73-8.55,7.15-19.46,2.19-28" transform="translate(12.59 113.13)" fill="none" stroke="#d8c501" stroke-miterlimit="10" stroke-width="0.7"/>
            <path d="M233.59,143.47c-5,1.19-14,.07-16.73-5" transform="translate(12.59 113.13)" fill="none" stroke="#d8c501" stroke-miterlimit="10" stroke-width="0.7"/>
            <path d="M148.21,164.89c-10.49,1.22-22.55-3-28.43-11.9-4.7-7.75-23-22.81-16.1-32.95" transform="translate(12.59 113.13)" fill="none" stroke="#d8c501" stroke-miterlimit="10" stroke-width="0.7"/>
            <path d="M205.09,40.64" transform="translate(12.59 113.13)" fill="none" stroke="#d8c501" stroke-miterlimit="10" stroke-width="0.7"/>
            <path d="M150.63,48.82c4.6-12.08,14-13,24.12-13.86,4.66-.41,9.31-2.77,13.59-1.62,4.67,1.53,7.42,6.21,12.08,6.57" transform="translate(12.59 113.13)" fill="none" stroke="#d8c501" stroke-miterlimit="10" stroke-width="0.7"/>
            <path d="M191.54,127.36c2.33-1.56,5.82-3.14,6.58-6.25.76-3.5-2.36-5.81-.83-8.93,2.31-5.84,3.89-1.19,7.38-1.21,3.89,0,4.66-.8,8.15-2.76,2.32-1.95,13.54-12.5,16.26-11.35s-3.81,13.62-5.75,16" transform="translate(12.59 113.13)" fill="none" stroke="#d8c501" stroke-miterlimit="10" stroke-width="0.7"/>
            <path d="M152.47,79.61c0-2.33-1.18-4.08,2.3-5.84h0c0-1.75.56-4.67,0-5.83.58-.59,2.33-.6,2.33-.6C142.47,61,134.4,79.7,131,92c-2.87,8.76,4.76,18.63,4.76,18.63,4.09,3.47,12.17,6.5,16.84,8.23" transform="translate(12.59 113.13)" fill="none" stroke="#d8c501" stroke-miterlimit="10" stroke-width="0.7"/>
            <path d="M168.84,108c-2.27,11.67,5.95,23.29,18.75,18.56" transform="translate(12.59 113.13)" fill="none" stroke="#d8c501" stroke-miterlimit="10" stroke-width="0.7"/>
            <path d="M184.06,119.56c1.2,7,5.88,10.46,12.87,8.09" transform="translate(12.59 113.13)" fill="none" stroke="#d8c501" stroke-miterlimit="10" stroke-width="0.7"/>
            <path d="M217.89,122.88c5.85,4.64,19.83,3.21,22.65,10.93" transform="translate(12.59 113.13)" fill="none" stroke="#d8c501" stroke-miterlimit="10" stroke-width="0.7"/>
            <path d="M219,120.55c5.84,1.13,12.83-.07,18.64-2.43" transform="translate(12.59 113.13)" fill="none" stroke="#d8c501" stroke-miterlimit="10" stroke-width="0.7"/>
            <path d="M158,138.45c.62,8.16,4.74,15.13,12.92,18.59" transform="translate(12.59 113.13)" fill="none" stroke="#d8c501" stroke-miterlimit="10" stroke-width="0.7"/>
            <path d="M190.1,143.53c-1.72,5.84-7.51,12.86-13.92,13.48" transform="translate(12.59 113.13)" fill="none" stroke="#d8c501" stroke-miterlimit="10" stroke-width="0.7"/>
            <path d="M175.55,147.1c.6,4.08-1.71,8.17-4,9.35" transform="translate(12.59 113.13)" fill="none" stroke="#d8c501" stroke-miterlimit="10" stroke-width="0.7"/>
            <path d="M193.63,149.34c-5.23,2.94-11,7-17.45,7.67" transform="translate(12.59 113.13)" fill="none" stroke="#d8c501" stroke-miterlimit="10" stroke-width="0.7"/>
            <path d="M129.32,111.2a17,17,0,0,0,19.86,8.64" transform="translate(12.59 113.13)" fill="none" stroke="#d8c501" stroke-miterlimit="10" stroke-width="0.7"/>
            <path d="M119,136.9c4.64-3.52,11.62-7.05,17.47-3.59" transform="translate(12.59 113.13)" fill="none" stroke="#d8c501" stroke-miterlimit="10" stroke-width="0.7"/>
            <path d="M212.3,153.33a11.16,11.16,0,0,0,0,10.49" transform="translate(12.59 113.13)" fill="none" stroke="#d8c501" stroke-miterlimit="10" stroke-width="0.7"/>
          </g>
          <path d="M112.55,105.12c-9.32,1.21-16-20.56-23.58-18.78-8.73,2.38-9.78,24.53-8,29.77,1.78,4.65,4.11,5.81,4.15,12.22,0,5.24-.53,10.49,1.24,15.15,3.55,9.89,15.84,19.73,25.76,21.43.56-3.5,4-5.26,7-5.86" transform="translate(12.59 113.13)" fill="none" stroke="#d8c501" stroke-miterlimit="10" stroke-width="0.7"/>
          <path d="M85.2,89c-5.81,4.11-6,20.08-6.56,27.66-.55,6.42-1.68,13.42,1.26,19.81s8.21,9.87,11.16,15.68" transform="translate(12.59 113.13)" fill="none" stroke="#d8c501" stroke-miterlimit="10" stroke-width="0.7"/>
        </g>
      </g>
    </g>
  </g>
</svg>
