<svg xmlns="http://www.w3.org/2000/svg" width="335.373" height="274.032" viewBox="0 0 335.373 274.032">
  <g transform="translate(-0.178 80.714) rotate(-20)">
    <path d="M216.53,149.93l2.68-5.85,1.62-9.53L218.31,129,212,125l8-3,3.57-2.18,1.38-3s-.45-8-.16-9.09a13.1,13.1,0,0,1,1.33-2.71l1.47-2.84-.44-2.55-2.41-3.76L219.3,85.56l-2.66-3L201,74.31l3.48-2.5,9.58-1,7.26.7L225,69.66l1.13-2.4-1-4.77-2.1-4.67L210.41,45.16l-6.33-5.6-5.55-3.25-10.19-.46-8.62.11-5.07.75-5,1.43L164.19,41,162,42.66l1.28,3.39-1.07,4.27-11.86,4.2-4.18,3.16-2.68,3.92-1,3.37-.79,5.14-2,2.22-7.91,5.72-.57,3,3.45,5.64-9.77,10.1L121,103l-1.62-3.6-2.83-3-8.12-2.31L108,98.07l-3,5.81-1.14,5.32,1.23,7.62-1.89,11.11.82,5.18,3,1.89,4.36-.36-5.4,2.85-2.43,4.06,1.17,10.3,2.09,7,2.65,4.15,8.38,10.56,6.76,4.43,3.33.19,3.76-1.7,2.14-4.34,1.34-17.51,3-8,2,4.83.89,10.76-1.9,9,.69,7.24,3.77,4.4,3.11,2.42,5.33,1.35,4.79,1.85,8-.06,6.66-.47,1.81-.56,2-1.14-3.69-2.7-3-3.62-3.71-6.67-4.49-4,5.19,1,5.68.79,4.84,3.63,7,1.07,5.81-1.74,4.61-2.93L199.6,165l7.38-2.38,3-2.17,3.6-6.6Z" transform="translate(40.79 55.24)" fill="#fff"/>
    <path d="M216.73,149.55l2.67-5.86,1.62-9.52-2.52-5.55-6.27-4,7.91-3.08,3.57-2.19,1.39-3s-.45-8-.17-9.09a13.119,13.119,0,0,1,1.34-2.72l1.46-2.84-.44-2.54-2.4-3.76-5.45-10.31-2.66-3-15.54-8.23,3.47-2.49,9.59-1,7.25.7,3.64-1.87,1.13-2.41-1-4.76-2.11-4.67L210.6,44.78l-6.33-5.6-5.55-3.25-10.19-.46-8.62.11-5.06.75-5,1.43-5.47,2.82-2.23,1.7,1.28,3.39-1.08,4.26-11.86,4.2-4.18,3.16-2.68,3.92-1,3.37-.79,5.15-2,2.22-7.92,5.72-.57,3,3.45,5.65L125.09,96.4l-4,6.23L119.53,99l-2.83-3-8.12-2.31-.43,3.91-3,5.81-1.15,5.4,1.23,7.62-1.89,11.12.83,5.17,3,1.9,4.36-.37-5.4,2.86-2.44,4.06,1.17,10.29,2.1,7,2.64,4.15,8.4,10.57,6.76,4.43,3.34.18,3.75-1.69,2.15-4.34,1.34-17.51,3-8,2,4.83.89,10.76-1.89,8.95.69,7.24,3.76,4.41,3.11,2.42,5.33,1.35,4.8,1.84h8l6.65-.47,1.81-.57,2-1.14-3.7-2.7-3-3.61-3.71-6.67-4.48-4,5.19,1,5.68.78,4.83,3.63,7,1.08,5.8-1.75,4.62-2.92,6.06-6.1,7.39-2.37,2.94-2.17,3.6-6.6Z" transform="translate(40.79 55.24)" fill="#fff"/>
    <g>
      <g>
        <g>
          <g>
            <path d="M138.86,145.74c-4.78,5.24-4,13.93-4.65,20.48-.2,4.34.38,9.31-5.13,11.39-5.82,2.49-4.11-1.31-7.84-5.54-6.28-7.53-14.64-8.34-16.21-18.58-2.36-10.87-3.76-15.14,6.3-18.85-13.31,3-5.79-10.33-6.31-17.82-.44-6.78-2.49-5.82-.09-12.94,1.31-4.1,4.46-4.84,2.77-10,6.41,3.17,9.09-.49,13.25,9.17" transform="translate(40.79 55.24)" fill="none" stroke="#b8c3c9" stroke-miterlimit="10" stroke-width="0.7"/>
            <path d="M134.55,86.73c-4.47-7.38-5.26-8,2.12-12.47,8.4-5,3.67-5.47,6.78-12.66,4.5-10.6,23.73-12.15,33.2-11.11,5.44.44,12,1.9,15.81,6,9,9.79,5,8,.58,13.52-6.44,7.14-13.17,9.24-18.47,12.86" transform="translate(40.79 55.24)" fill="none" stroke="#b8c3c9" stroke-miterlimit="10" stroke-width="0.7"/>
            <path d="M180.31,78.62c11.64-5,11.78-11,34.87,2.92,5.19,3.12,5.66,8.32,8.85,14,.56,1.73,3.25,3.21,3.5,5.34.42,3.55-2.42,3.88-2.79,6.8C224.16,115,227.5,118.91,220,122c-3.15.73-6.57,3.78-10.28,2.78" transform="translate(40.79 55.24)" fill="none" stroke="#b8c3c9" stroke-miterlimit="10" stroke-width="0.7"/>
            <path d="M207.58,124.64c12.34-.25,20.86,14.07.93,31.38-3.41,3-5.33-.25-8.4,1.19-4.4,2.31-.47,6-2.26,9.06-2.65,5-16.5,15.79-26.6,4.74" transform="translate(40.79 55.24)" fill="none" stroke="#b8c3c9" stroke-miterlimit="10" stroke-width="0.7"/>
            <path d="M159.73,168.71C165,171,167.48,180,171.07,183.09s4.84,4.46-2.25,5.29c-3.86.82-7.82-2.31-11.53-3.31-9.24-2.14-13.73-.54-16.4-11-1.54-7,1.75-22.55-2.78-27.41" transform="translate(40.79 55.24)" fill="none" stroke="#b8c3c9" stroke-miterlimit="10" stroke-width="0.7"/>
            <path d="M134.46,86c8.43-1.71,7.36-7.7,13.41-11.29,3.69-2.23,16.62-2.31,20.5.1,13.63,8.82,2.7,19.46-11.21,26.26-1.59-1.26-4,1.81-7.36,3.81-4.21,7.65-2.73,8.11-9.7,11-7.12,3-12,13-22.9,6.62,1.21-8,.54-13.73,4.67-21.4,3.9-6.57,7.9-9.2,12.68-14.44" transform="translate(40.79 55.24)" fill="none" stroke="#b8c3c9" stroke-miterlimit="10" stroke-width="0.7"/>
            <path d="M139.64,117.77c-8.86,19.38,2.27,43.59,21.88,51.34,6.4,2.48,29,4.86,30.16-6.43.83-5.13-9-9-11.9-9.38-3.31-.69-1.58-1.25-6.15-.36-3.15.74-4.8,2-7.47,3.76-5.65,3.9-3.58,6.18-11.63,5-4.34-.21-7-3-10.28-6.26" transform="translate(40.79 55.24)" fill="none" stroke="#b8c3c9" stroke-miterlimit="10" stroke-width="0.7"/>
            <path d="M139.64,117.77" transform="translate(40.79 55.24)" fill="none" stroke="#b8c3c9" stroke-miterlimit="10" stroke-width="0.7"/>
            <path d="M175.2,152.65c-16.49,2.67-24.39-4.2-28.85-11.59" transform="translate(40.79 55.24)" fill="none" stroke="#b8c3c9" stroke-miterlimit="10" stroke-width="0.7"/>
          </g>
          <g>
            <path d="M140.1,116" transform="translate(40.79 55.24)" fill="none" stroke="#b8c3c9" stroke-miterlimit="10" stroke-width="0.7"/>
            <path d="M172.69,91.37c18.76,1.54,25.82,18.85,23.61,23.87-1,2.22-2.46.12-4.76.56-1.46.28-2.28,2.12-3.11,4.18-1.17,2.92.23,4.94-.76,7.16-1.33,3-.6,2-1.63,5.22-1.14,3.36-3.4,4.32-5.66,6.55s-3,5.39-5.87,7.12c-3.4,2.08-11.95,3.09-15.56,1-2.24-1.27-5-1.93-6.62-4-1.79-2.16-3.42-3.54-4.77-6" transform="translate(40.79 55.24)" fill="none" stroke="#b8c3c9" stroke-miterlimit="10" stroke-width="0.7"/>
            <path d="M197.05,121.27" transform="translate(40.79 55.24)" fill="none" stroke="#b8c3c9" stroke-miterlimit="10" stroke-width="0.7"/>
            <path d="M195.67,131c1,2.26.42,3.58-.76,5.4-.37.47-1.15,2.1-1.55,2.28-1.5.32-1.67-1.06-2.65-1.08-2.36.14-2.38,1.12-3.81-.88-.69-1-.53-2-1.21-3" transform="translate(40.79 55.24)" fill="none" stroke="#b8c3c9" stroke-miterlimit="10" stroke-width="0.7"/>
            <path d="M190.22,128.65c.74.33.94,2,.09,3.07-1.63-.79-.39-2.05-.27-3.47.43.09.44.48.71.44" transform="translate(40.79 55.24)" fill="none" stroke="#b8c3c9" stroke-miterlimit="10" stroke-width="0.7"/>
            <path d="M191.1,131.35c.78,1.86-.88,2.06-1,3.47s2,1.31.88,2.7" transform="translate(40.79 55.24)" fill="none" stroke="#b8c3c9" stroke-miterlimit="10" stroke-width="0.7"/>
            <path d="M160.68,147.38c2.8,1.21,6.38,4.29,9.7,5.16,5.35,1.46,6.9-.82,11.4-1.77s7.54-1.31,11.11-4.25c2.17-1.79,6.07-5.47,5-8.56-3.92,1.16-4.85,5.19-9.35,1.38-1.24-1-1.22-3.21-3.62-3.35-1,0-1.69.76-2.9,1.46" transform="translate(40.79 55.24)" fill="none" stroke="#b8c3c9" stroke-miterlimit="10" stroke-width="0.7"/>
            <path d="M209.05,117.48c1.06,1.83,0,3.77-.45,5.65-.87,3.32-.63,6.51-2.36,9.65-2,3.45-6.56,10.84-11,11.36" transform="translate(40.79 55.24)" fill="none" stroke="#b8c3c9" stroke-miterlimit="10" stroke-width="0.7"/>
            <path d="M198,137.8a8.84,8.84,0,0,0,3.55-2.83c.89-1.36,1.63-6.59.81-6.49" transform="translate(40.79 55.24)" fill="none" stroke="#b8c3c9" stroke-miterlimit="10" stroke-width="0.7"/>
            <path d="M192.8,123.49c-.19,2.2-2.24,3.86-2.76,4.76-.16.44-1.35.44-1.71.9s.22,3.06-.24,3.64c-.61,1-1.28,1.62-2.25.47" transform="translate(40.79 55.24)" fill="none" stroke="#b8c3c9" stroke-miterlimit="10" stroke-width="0.7"/>
            <path d="M190.86,131.65a2.729,2.729,0,0,0-.6.28,1.92,1.92,0,0,1-1.85.29" transform="translate(40.79 55.24)" fill="none" stroke="#b8c3c9" stroke-miterlimit="10" stroke-width="0.7"/>
            <path d="M188.83,119.48c3.81-.56,1.42,6.75,6.34,2.19,1.69-1.67,4-6.24,1.35-8.14" transform="translate(40.79 55.24)" fill="none" stroke="#b8c3c9" stroke-miterlimit="10" stroke-width="0.7"/>
            <path d="M197.41,120.81c.4-.19-.34-.52.13-.16,2,1.31-.69,2.46-1,3.2-1.15,2.1-2.72,5.36-5.8,4.19" transform="translate(40.79 55.24)" fill="none" stroke="#b8c3c9" stroke-miterlimit="10" stroke-width="0.7"/>
            <path d="M196.2,131.86a5.37,5.37,0,0,0,1.88-3" transform="translate(40.79 55.24)" fill="none" stroke="#b8c3c9" stroke-miterlimit="10" stroke-width="0.7"/>
            <path d="M195.55,126.34c2-.65,1.64,6.81-2.52,4.78.55-1.32,0-2.52-1.43-2.63" transform="translate(40.79 55.24)" fill="none" stroke="#b8c3c9" stroke-miterlimit="10" stroke-width="0.7"/>
          </g>
          <path d="M171.5,187.93c-2.24.73-5.41.17-7.69.6a21.15,21.15,0,0,1-10.08-1.3c-2.63-1.24-6.37-1.42-8.52-2.56-3-1.82-1.81-4.75-3.18-7.22" transform="translate(40.79 55.24)" fill="none" stroke="#b8c3c9" stroke-miterlimit="10" stroke-width="0.7"/>
          <path d="M143.6,182.84a15.09,15.09,0,0,1-4.46-10.17c-.3-3.85,2.7-17.35,1-21.19" transform="translate(40.79 55.24)" fill="none" stroke="#b8c3c9" stroke-miterlimit="10" stroke-width="0.7"/>
          <path d="M108.58,162.15c5.24,5,9,14.92,17.26,16.12" transform="translate(40.79 55.24)" fill="none" stroke="#b8c3c9" stroke-miterlimit="10" stroke-width="0.7"/>
          <path d="M112.37,133.79c1.86-3.95,7.29-9.24,12-8.4" transform="translate(40.79 55.24)" fill="none" stroke="#b8c3c9" stroke-miterlimit="10" stroke-width="0.7"/>
          <path d="M143.05,66.42c4.7-7.54,13.79-13.26,22.73-12.46,7.56,1,27.08-3.19,30.11,6.69" transform="translate(40.79 55.24)" fill="none" stroke="#b8c3c9" stroke-miterlimit="10" stroke-width="0.7"/>
          <path d="M194.93,169" transform="translate(40.79 55.24)" fill="none" stroke="#b8c3c9" stroke-miterlimit="10" stroke-width="0.7"/>
          <path d="M218.11,128.86c5.52,9.35,1.21,16-3.54,23.12-2.18,3.28-3.06,7.58-6.06,9.79-3.46,2.27-8,1.62-10.66,4.5" transform="translate(40.79 55.24)" fill="none" stroke="#b8c3c9" stroke-miterlimit="10" stroke-width="0.7"/>
          <path d="M145,114.58c-.19,2.35-1,5.47.66,7.6,1.9,2.34,5.06,1.5,6.31,4.14,2.63,4.58-1.26,3.18-3.08,5.49-2,2.56-1.92,3.48-2.46,6.8.07,2.55,1.13,15.46-1.06,16.65s-6.95-9.65-7.48-12.15" transform="translate(40.79 55.24)" fill="none" stroke="#b8c3c9" stroke-miterlimit="10" stroke-width="0.7"/>
          <path d="M196.89,113.93c1.54,1.21,3.3,1.35,2.64,4.57h0c1.15.91,2.77,2.82,3.84,3,.08.69-.83,1.84-.83,1.84,11.83-6.28,3.76-21.38-2.5-30.07-4.25-6.47-14.74-6.63-14.74-6.63-4.43.87-10.66,4.59-14.24,6.76" transform="translate(40.79 55.24)" fill="none" stroke="#b8c3c9" stroke-miterlimit="10" stroke-width="0.7"/>
          <path d="M169.66,109.82c-6.49-7.61-18.44-8.3-22,2.6" transform="translate(40.79 55.24)" fill="none" stroke="#b8c3c9" stroke-miterlimit="10" stroke-width="0.7"/>
          <path d="M154.06,113.75c-5.22-2.87-10-1.62-12.07,4.22" transform="translate(40.79 55.24)" fill="none" stroke="#b8c3c9" stroke-miterlimit="10" stroke-width="0.7"/>
          <path d="M134.14,134.25c-6.11,1.42-12.51,11.36-19.06,9.17" transform="translate(40.79 55.24)" fill="none" stroke="#b8c3c9" stroke-miterlimit="10" stroke-width="0.7"/>
          <path d="M135.07,136.24c-3.8,3.24-6.68,8.46-8.17,13.53" transform="translate(40.79 55.24)" fill="none" stroke="#b8c3c9" stroke-miterlimit="10" stroke-width="0.7"/>
          <path d="M155.29,86.73c-5.69-3.87-12.43-4.82-19-1.25" transform="translate(40.79 55.24)" fill="none" stroke="#b8c3c9" stroke-miterlimit="10" stroke-width="0.7"/>
          <path d="M135.13,105.16c-2.93-4.19-4.52-11.68-1.56-16.22" transform="translate(40.79 55.24)" fill="none" stroke="#b8c3c9" stroke-miterlimit="10" stroke-width="0.7"/>
          <path d="M140.41,93.71c-3-1.73-4.47-5.4-4-7.54" transform="translate(40.79 55.24)" fill="none" stroke="#b8c3c9" stroke-miterlimit="10" stroke-width="0.7"/>
          <path d="M129.46,104.43c.81-5,1.15-11,4.11-15.49" transform="translate(40.79 55.24)" fill="none" stroke="#b8c3c9" stroke-miterlimit="10" stroke-width="0.7"/>
          <path d="M188.26,82.14a14.28,14.28,0,0,0-16.1,8.53" transform="translate(40.79 55.24)" fill="none" stroke="#b8c3c9" stroke-miterlimit="10" stroke-width="0.7"/>
          <path d="M176.79,61.85c-.12,4.9-1.45,11.34-6.8,13.37" transform="translate(40.79 55.24)" fill="none" stroke="#b8c3c9" stroke-miterlimit="10" stroke-width="0.7"/>
          <path d="M117.05,114.62a9.34,9.34,0,0,0-6.92-5.47" transform="translate(40.79 55.24)" fill="none" stroke="#b8c3c9" stroke-miterlimit="10" stroke-width="0.7"/>
        </g>
        <path d="M201,74.31c4.09-6.77,21.92.25,24.71-5.67,3-7-11-19.29-15.37-20.87-4-1.27-6-.34-10.21-3.68-3.46-2.73-6.62-5.85-10.61-7.12-8.36-2.86-21.28.06-27.6,5.69,2,2.21,1.34,5.43.21,7.66" transform="translate(40.79 55.24)" fill="none" stroke="#b8c3c9" stroke-miterlimit="10" stroke-width="0.7"/>
        <path d="M226,64.75c.34-6-10.05-14.49-14.75-18.82-3.93-3.72-7.94-8.14-13.69-9.55s-10.79.22-16.16-.89" transform="translate(40.79 55.24)" fill="none" stroke="#b8c3c9" stroke-miterlimit="10" stroke-width="0.7"/>
      </g>
    </g>
    <path d="M145.26-25l-8.72-5.21-14.65-4.2-9.14,3-7.31,9.13L102-35.24l-2.8-6L94.8-43.9s-12.64-.69-14.28-1.33a20.49,20.49,0,0,1-4-2.56l-4.2-2.8-4.06.25-6.32,3.11L44.8-40.48l-5.21,3.64L24-13.9l-3.31-5.88L20.8-35l2.36-11.26-2.3-6-3.57-2.19-7.64.68L2-51.29-20-33.66l-10,8.94-6,8.15L-38.53-.68l-1.34,13.54.3,8.07L-38.2,29l3.47,9.07,2.28,3.8,5.54-1.42,6.5,2.43,4.52,19.33,4.22,7.1L-6,74.2l5.1,2.23L7,78.56l3.13,3.57,7.59,13.4L22.42,97l9.45-4.42L46,109.42l9,7.28-5.92,1.9L44,122.52l-5,12.33,6,1.36L53.61,142l8.13,2.72,12.16-.6L91,149l8.26-.4,3.49-4.4.19-6.9,3.54,9,5.94,4.52h16.35l11.34-2.07,7-3.42,18-11.3,8.12-9.83.87-5.19-2-6.18-6.44-4.13-27.22-5.15-12-6.07L134.38,95l17,.48L165.11,100l11.48.18,7.56-5.13,4.34-4.45,3-8.13,3.73-7.2,1.31-12.57L197,52.23l-.57-2.94L195,46l-4.88,5.33-6.19,4.07-11.1,4.65-7,6.35,2.42-8,2.22-8.77L177,42.71l2.9-10.83-1.72-9.4-3.78-7.75L165.9,4.16l-2.44-12-2.89-5-9.72-6.79Z" transform="translate(40.79 55.24)" fill="#fff"/>
    <path d="M144.69-25.38,136-30.6l-14.65-4.19-9.13,3-7.32,9.14-3.45-12.94-2.8-6-4.39-2.68S81.6-45,80-45.6a20.85,20.85,0,0,1-4-2.57L71.73-51l-4.07.25L61.34-47.6,44.23-40.85,39-37.21,23.41-14.27,20.1-20.15l.13-15.2L22.6-46.61l-2.3-6L16.72-54.8l-7.63.68L1.4-51.66-20.65-34l-9.9,9-6.06,8.14L-39.1-1l-1.33,13.54.29,8.07,1.37,8.07,3.48,9.07L-33,41.49l5.54-1.42,6.5,2.44,4.52,19.33,4.23,7.1,5.67,4.89,5.11,2.23,7.92,2.13L9.6,81.75l7.59,13.41,4.66,1.43,9.46-4.43L45.39,109l9.08,7.29-5.92,1.9-5.12,3.92-5,12.33,6.07,1.35,8.5,5.8,8.13,2.72,12.17-.6,17.09,4.9,8.26-.4,3.5-4.4.19-6.9,3.53,9,6,4.53h16.34l11.35-2.07,7-3.42,18-11.3,8.12-9.83.87-5.2-2-6.18-6.43-4.12-27.22-5.15-12-6.08,7.92-2.35,17,.48,13.71,4.53,11.47.18,7.57-5.13,4.33-4.45,3-8.13,3.74-7.2L196,62.37l.41-10.51-.56-2.94-1.45-3.28L189.53,51l-6.19,4-11.1,4.65-7,6.34,2.41-8,2.22-8.77,6.54-6.95,2.91-10.83-1.73-9.41-3.78-7.74-8.5-10.57-2.43-12-2.89-5L150.23-20Z" transform="translate(40.79 55.24)" fill="#fff"/>
    <g>
      <g>
        <g>
          <g>
            <path d="M125.16,96.06c7.37,8.4,21.14,8.66,31.3,10.85,6.76,1.08,14.65,1,17,10,2.88,9.56-2.77,6.22-10.06,11.34-12.9,8.53-15.63,21.51-32,22.18-17.4,1.83-24.4,3.27-28.46-13.15,2.4,21.39-17.21,7.28-29,6.8-10.7-.49-9.56,2.88-20.29-2.12-6.22-2.77-6.81-7.84-15.25-6.09,6.09-9.5.82-14.34,16.68-19.17" transform="translate(40.79 55.24)" fill="none" stroke="#d8c501" stroke-miterlimit="10" stroke-width="0.7"/>
            <path d="M31.87,92.54C19.52,98.25,18.4,99.39,12.68,87,6.39,73,4.75,80.33-6,74.2c-15.83-8.9-14.91-39.33-11.63-54C-16,11.74-12.56,1.74-5.38-3.54,11.54-16,8-9.92,15.92-2.09,26,9.26,28.11,20.18,32.87,29.11" transform="translate(40.79 55.24)" fill="none" stroke="#d8c501" stroke-miterlimit="10" stroke-width="0.7"/>
            <path d="M27.13,19.36C21.36.25,12-1,37.78-34.81c5.8-7.6,14-7.42,23.58-11.42,2.81-.58,5.6-4.55,9-4.57,5.63,0,5.66,4.47,10.18,5.57,11.28,2.17,18-2.38,21.47,10,.6,5.07,4.79,11,2.58,16.61" transform="translate(40.79 55.24)" fill="none" stroke="#d8c501" stroke-miterlimit="10" stroke-width="0.7"/>
            <path d="M104-15.37c1.75-19.41,25.7-30.26,49.37,4C157.46-5.5,152.08-3,153.8,2c2.87,7.3,9.29,1.77,13.81,5.12,7.36,5,21.9,28.63,2.8,42.53" transform="translate(40.79 55.24)" fill="none" stroke="#d8c501" stroke-miterlimit="10" stroke-width="0.7"/>
            <path d="M164.8,67.34c4.45-7.92,19-10.2,24.52-15.29s7.84-6.82,7.92,4.45c.6,6.19-5,11.86-7.21,17.51-5,14.12-3.23,21.43-20.12,23.79-11.25,1.2-35-6.67-43.46-.41" transform="translate(40.79 55.24)" fill="none" stroke="#d8c501" stroke-miterlimit="10" stroke-width="0.7"/>
            <path d="M30.75,92.54C29.53,79,20,79.66,15.38,69.55c-2.85-6.17-.74-26.47,3.73-32.13,16.2-19.83,31-.84,39.21,22.16-2.24,2.27,2.14,6.64,4.69,12.2,11.26,7.93,12.25,5.69,15.64,17.14C82.12,100.6,97,110,85.05,126c-12.42-3.29-21.43-3.23-32.75-11-9.62-7.26-13-14-20.43-22.4" transform="translate(40.79 55.24)" fill="none" stroke="#d8c501" stroke-miterlimit="10" stroke-width="0.7"/>
            <path d="M81.42,90c28.85,17.27,68.75,4,84.33-25.35,5-9.61,12.66-44.59-4.83-48.41-7.9-2.2-15.69,12.49-16.79,17-1.65,5.08-2.24,2.27-1.63,9.59.6,5.06,2.31,7.87,4.59,12.36,5.14,9.54,9.06,6.7,5.76,19.11-1.08,6.77-6,10.49-11.6,15" transform="translate(40.79 55.24)" fill="none" stroke="#d8c501" stroke-miterlimit="10" stroke-width="0.7"/>
            <path d="M81.42,90" transform="translate(40.79 55.24)" fill="none" stroke="#d8c501" stroke-miterlimit="10" stroke-width="0.7"/>
            <path d="M142.32,40.27c1.31,26.32-10.84,37.52-23.2,43.23" transform="translate(40.79 55.24)" fill="none" stroke="#d8c501" stroke-miterlimit="10" stroke-width="0.7"/>
          </g>
          <g>
            <path d="M78.65,88.92" transform="translate(40.79 55.24)" fill="none" stroke="#d8c501" stroke-miterlimit="10" stroke-width="0.7"/>
            <path d="M45.79,33.53C51.47,4.38,79.85-3.67,87.33.67c3.3,2-.24,3.89,0,7.56.19,2.34,2.93,3.94,6,5.61,4.37,2.35,7.78.49,11.08,2.44,4.4,2.6,3.08,1.29,7.92,3.46,5,2.37,6.17,6.09,9.27,10,3.31,4.14,7.93,5.64,10.15,10.45,2.67,5.68,2.76,19.27-1.15,24.56-2.39,3.3-3.89,7.48-7.39,9.69-3.7,2.44-6.14,4.75-10.25,6.43" transform="translate(40.79 55.24)" fill="none" stroke="#d8c501" stroke-miterlimit="10" stroke-width="0.7"/>
            <path d="M96.92.55" transform="translate(40.79 55.24)" fill="none" stroke="#d8c501" stroke-miterlimit="10" stroke-width="0.7"/>
            <path d="M111.85,4.39c3.72-1.12,5.7,0,8.35,2.14.66.65,3.08,2.17,3.3,2.83.24,2.41-2,2.42-2.16,4-.2,3.72,1.34,3.93-2,5.82-1.65.92-3.21.49-5,1.38" transform="translate(40.79 55.24)" fill="none" stroke="#d8c501" stroke-miterlimit="10" stroke-width="0.7"/>
            <path d="M107.3,12.53c.66-1.1,3.28-1.11,4.83.41-1.52,2.42-3.29.24-5.48-.18.21-.66.82-.61.81-1" transform="translate(40.79 55.24)" fill="none" stroke="#d8c501" stroke-miterlimit="10" stroke-width="0.7"/>
            <path d="M111.68,11.63c3.07-.9,3.08,1.73,5.28,2.16,2.41.2,2.39-2.87,4.38-.91" transform="translate(40.79 55.24)" fill="none" stroke="#d8c501" stroke-miterlimit="10" stroke-width="0.7"/>
            <path d="M131.53,62.13c2.38-4.18,7.83-9.26,9.77-14.31,3.23-8.14-.08-11-.78-18.19s-.74-12-4.73-18.17c-2.43-3.7-7.52-10.46-12.55-9.34,1.13,6.35,7.29,8.5.53,14.91-1.74,1.76-5.25,1.35-5.88,5.08-.21,1.53.89,2.79,1.79,4.81" transform="translate(40.79 55.24)" fill="none" stroke="#d8c501" stroke-miterlimit="10" stroke-width="0.7"/>
            <path d="M93.06-18.93c3.06-1.34,5.93.61,8.78,1.69,5.06,1.94,10.1,2.12,14.72,5.38C121.63-8.17,132.43.31,132.48,7.32" transform="translate(40.79 55.24)" fill="none" stroke="#d8c501" stroke-miterlimit="10" stroke-width="0.7"/>
            <path d="M123,1.91a13.88,13.88,0,0,0-3.82-6.06c-2-1.63-10-3.71-10-2.4" transform="translate(40.79 55.24)" fill="none" stroke="#d8c501" stroke-miterlimit="10" stroke-width="0.7"/>
            <path d="M99.65,7.6c3.43.67,5.68,4.18,7,5.16.66.32.45,2.19,1.11,2.84.83.49,4.83.19,5.65,1,1.49,1.14,2.32,2.29.36,3.62" transform="translate(40.79 55.24)" fill="none" stroke="#d8c501" stroke-miterlimit="10" stroke-width="0.7"/>
            <path d="M112.12,12.06a3.42,3.42,0,0,0,.34,1c.56,1.2.56,1.42.13,2.95" transform="translate(40.79 55.24)" fill="none" stroke="#d8c501" stroke-miterlimit="10" stroke-width="0.7"/>
            <path d="M92.68,13.12c-.21-6.08,10.84-1,4.54-9.56C94.89.62,88.12-3.78,84.7,0" transform="translate(40.79 55.24)" fill="none" stroke="#d8c501" stroke-miterlimit="10" stroke-width="0.7"/>
            <path d="M96.26-.11C96-.76,95.38.34,96-.32c2.39-2.87,3.74,1.51,4.84,2.16C104,4,108.8,7,106.42,11.66" transform="translate(40.79 55.24)" fill="none" stroke="#d8c501" stroke-miterlimit="10" stroke-width="0.7"/>
            <path d="M113.38,3.73A8.47,8.47,0,0,0,109,.25" transform="translate(40.79 55.24)" fill="none" stroke="#d8c501" stroke-miterlimit="10" stroke-width="0.7"/>
            <path d="M104.61,3.78c-.67-3.28,11-1.39,7,4.78-2-1.08-4-.41-4.37,1.78" transform="translate(40.79 55.24)" fill="none" stroke="#d8c501" stroke-miterlimit="10" stroke-width="0.7"/>
          </g>
          <path d="M197,52.23c.75,3.64-.67,8.51-.4,12.15A33.65,33.65,0,0,1,192.81,80c-2.41,3.9-3.34,9.74-5.51,12.92-3.37,4.39-7.76,2-11.88,3.72" transform="translate(40.79 55.24)" fill="none" stroke="#d8c501" stroke-miterlimit="10" stroke-width="0.7"/>
          <path d="M184.15,95.09c-4.1,3.67-10.89,5.66-16.73,5.22-6.08-.2-26.74-7.27-33-5.28" transform="translate(40.79 55.24)" fill="none" stroke="#d8c501" stroke-miterlimit="10" stroke-width="0.7"/>
          <path d="M145.61,146.39c8.7-7.35,25-11.59,28.28-24.25" transform="translate(40.79 55.24)" fill="none" stroke="#d8c501" stroke-miterlimit="10" stroke-width="0.7"/>
          <path d="M101.79,135.5c-5.86-3.6-13.21-13-11.07-20.34" transform="translate(40.79 55.24)" fill="none" stroke="#d8c501" stroke-miterlimit="10" stroke-width="0.7"/>
          <path d="M1.5,75.66C-9.5,67-16.89,51.72-14.07,37.85c2.84-11.68-.29-43,15.73-46" transform="translate(40.79 55.24)" fill="none" stroke="#d8c501" stroke-miterlimit="10" stroke-width="0.7"/>
          <path d="M171.32,12.18" transform="translate(40.79 55.24)" fill="none" stroke="#d8c501" stroke-miterlimit="10" stroke-width="0.7"/>
          <path d="M112.48-31.15c15.64-7,25.38.9,35.65,9.58,4.77,4,11.34,6.12,14.29,11.21,3,5.81,1.15,12.78,5.19,17.49" transform="translate(40.79 55.24)" fill="none" stroke="#d8c501" stroke-miterlimit="10" stroke-width="0.7"/>
          <path d="M77.36,81c3.65.71,8.41,2.5,12,.29,4-2.58,3.23-7.68,7.59-9.17,7.63-3.33,4.76,2.52,8.06,5.78,3.67,3.62,5.13,3.61,10.24,5,4,.33,24.43.93,25.92,4.56s-16.34,9.22-20.35,9.62" transform="translate(40.79 55.24)" fill="none" stroke="#d8c501" stroke-miterlimit="10" stroke-width="0.7"/>
          <path d="M85.38-.49c2.17-2.2,2.7-4.93,7.63-3.33h0c1.63-1.65,4.9-3.86,5.43-5.5,1.1,0,2.75,1.62,2.75,1.62C93.4-27.33,68.31-17.32,53.61-9c-10.91,5.54-13,22-13,22,.61,7,5.39,17.46,8.14,23.46" transform="translate(40.79 55.24)" fill="none" stroke="#d8c501" stroke-miterlimit="10" stroke-width="0.7"/>
          <path d="M74.19,41.51C61.12,50.34,58,69,74.42,76.51" transform="translate(40.79 55.24)" fill="none" stroke="#d8c501" stroke-miterlimit="10" stroke-width="0.7"/>
          <path d="M77.64,66.64C72.22,74.33,73.37,82,82.15,86.3" transform="translate(40.79 55.24)" fill="none" stroke="#d8c501" stroke-miterlimit="10" stroke-width="0.7"/>
          <path d="M106.31,101.45c1.16,9.84,15.64,21.59,11.06,31.48" transform="translate(40.79 55.24)" fill="none" stroke="#d8c501" stroke-miterlimit="10" stroke-width="0.7"/>
          <path d="M109.59,100.33c4.42,6.54,12.11,12,19.79,15.18" transform="translate(40.79 55.24)" fill="none" stroke="#d8c501" stroke-miterlimit="10" stroke-width="0.7"/>
          <path d="M35.48,60c-7.06,8.25-9.72,18.66-5.27,29.56" transform="translate(40.79 55.24)" fill="none" stroke="#d8c501" stroke-miterlimit="10" stroke-width="0.7"/>
          <path d="M60.86,94.83c-7.08,3.87-19.1,5-25.7-.38" transform="translate(40.79 55.24)" fill="none" stroke="#d8c501" stroke-miterlimit="10" stroke-width="0.7"/>
          <path d="M43.84,84.55c-3.25,4.4-9.25,6.08-12.54,5" transform="translate(40.79 55.24)" fill="none" stroke="#d8c501" stroke-miterlimit="10" stroke-width="0.7"/>
          <path d="M58.74,103.59c-7.67-2.14-17-3.71-23.58-9.14" transform="translate(40.79 55.24)" fill="none" stroke="#d8c501" stroke-miterlimit="10" stroke-width="0.7"/>
          <path d="M34,7.52A22.51,22.51,0,0,0,44.6,34.24" transform="translate(40.79 55.24)" fill="none" stroke="#d8c501" stroke-miterlimit="10" stroke-width="0.7"/>
          <path d="M.22,22C7.89,23,17.75,26.22,20,35" transform="translate(40.79 55.24)" fill="none" stroke="#d8c501" stroke-miterlimit="10" stroke-width="0.7"/>
          <path d="M72.55,124.82c-4.37,1.13-8.17,5-9.78,9.91" transform="translate(40.79 55.24)" fill="none" stroke="#d8c501" stroke-miterlimit="10" stroke-width="0.7"/>
        </g>
        <path d="M24-13.9c-9.89-7.59,4.22-34.32-4.57-39.73C9-59.58-12.77-39.74-16-33.16c-2.7,6-1.58,9.31-7.56,15.36-4.88,5-10.32,9.37-13,15.4-5.93,12.62-3.6,33.38,4.13,44.27,3.81-2.76,8.74-1.16,12,1" transform="translate(40.79 55.24)" fill="none" stroke="#d8c501" stroke-miterlimit="10" stroke-width="0.7"/>
        <path d="M13.33-54.63C4-56.21-11.14-41.4-18.75-34.78c-6.52,5.51-14.14,11-17.36,19.8S-37.64,2-40.32,10.2" transform="translate(40.79 55.24)" fill="none" stroke="#d8c501" stroke-miterlimit="10" stroke-width="0.7"/>
      </g>
    </g>
  </g>
</svg>
