<svg viewBox="0 0 315.6 20.1" xmlns="http://www.w3.org/2000/svg"><path d="m28.4 1v.2c-.8 0-1.3.2-1.8.5-.4.2-.8.8-1.2 1.6l-6.6 16.3-.3.1-.3-.1-4-8.6-3.4 8.6-.4.1-.3-.1-7.4-16.2c-.3-.8-.7-1.4-1-1.7-.5-.3-1-.5-1.6-.5l-.1-.2h1.4a19.4 19.4 0 0 0 3.3 0h1.3v.2l-1.4.2c-.4.1-.5.4-.5.8 0 .2 0 .5.2.9l6.7 14.3 2.9-7.2-3.1-6.8c-.4-.8-.7-1.4-1.1-1.7s-1-.5-1.5-.5l-.2-.1v-.2h1.4a19.4 19.4 0 0 0 2.7 0h.8l.1.2v.1l-1 .1-.2.4.5 1.4 2.4 5.1 2-5c.3-.5.4-.8.4-1.1s-.2-.5-.4-.7l-1-.2-.1-.1v-.2h.9a11.5 11.5 0 0 0 2.5 0h1.3v.3c-.7 0-1.3.2-1.7.5-.5.3-.9.8-1.2 1.6l-2.2 5.7 3.9 8.4 5.7-14.4c.2-.3.2-.6.2-.8 0-.4-.1-.7-.5-.8s-1-.3-1.8-.3l-.1-.1v-.1h1.4a31 31 0 0 0 3.2 0h1.2l.1.2zm14.1 14.2h.2a27.6 27.6 0 0 0 -.4 4.3l-.4.1h-12.4v-.3c.8 0 1.4 0 1.8-.2.3 0 .6-.3.7-.6l.2-1.3v-13.9c0-.6 0-1-.2-1.3s-.4-.5-.7-.6l-1.8-.2v-.2h12c.1 0 .2 0 .2.2v3.7h-.2c0-1-.3-1.9-.8-2.5s-1.3-.9-2.1-.9h-2.1c-.8 0-1.3 0-1.7.2a1 1 0 0 0 -.7.6l-.2 1.3v6h4c.9 0 1.5 0 1.9-.4.3-.3.5-.8.5-1.6h.4v5.1h-.4c0-1-.2-1.6-.5-2-.4-.3-1-.5-2-.5h-4v7c0 .5.1 1 .3 1.2.1.3.4.5.7.6l1.7.2h2.8c.8 0 1.5-.4 2-1.1.6-.7 1-1.6 1.1-2.8h.2zm8.7 4.4a47.9 47.9 0 0 0 -2.4 0h-3.5v-.3c.8 0 1.3 0 1.7-.2.4 0 .6-.3.8-.6s.2-.7.2-1.3v-13.9c0-.6 0-1-.2-1.3-.1-.3-.4-.5-.8-.6l-1.7-.2v-.2h1.5a44.1 44.1 0 0 0 5.9 0c2 0 4 .3 5.6 1.1s2.9 1.9 3.7 3.3c1 1.4 1.4 3 1.4 4.6a9.4 9.4 0 0 1 -5.2 8.6 11 11 0 0 1 -5 1.2h-2zm6.1-1.3a7.3 7.3 0 0 0 3-3c.8-1.3 1.1-2.9 1.1-4.7s-.3-3.4-1-4.8-1.7-2.5-3-3.4-2.8-1.2-4.4-1.2l-2 .1c-.5.1-.9.3-1.1.7-.2.3-.3.7-.3 1.3v13.5c0 .6 0 1.1.2 1.5.2.3.5.6 1 .8s1.1.2 2 .2c1.7 0 3.2-.3 4.5-1zm14.5 1.3a47.9 47.9 0 0 0 -2.4 0h-3.4v-.3c.8 0 1.4 0 1.7-.2.4 0 .7-.3.8-.6l.2-1.3v-13.9c0-.6 0-1-.2-1.3-.1-.3-.4-.5-.7-.6l-1.8-.2v-.2h1.5a44.1 44.1 0 0 0 6 0c2 0 3.9.3 5.5 1.1s2.9 1.9 3.8 3.3a9.4 9.4 0 0 1 -3.8 13.2 11 11 0 0 1 -5.2 1.2h-1.9zm6.1-1.3a7.3 7.3 0 0 0 3-3c.8-1.3 1.2-2.9 1.2-4.7s-.4-3.4-1-4.8c-.8-1.4-1.7-2.5-3-3.4s-2.8-1.2-4.5-1.2l-2 .1c-.4.1-.8.3-1 .7-.3.3-.4.7-.4 1.3v13.5c0 .6.1 1.1.3 1.5.2.3.5.6 1 .8s1 .2 2 .2c1.6 0 3.1-.3 4.4-1zm13.6.2c0 .3.3.5.7.6l1.7.2v.3h-7v-.3c.8 0 1.4 0 1.8-.2.3 0 .6-.3.7-.6l.2-1.3v-13.9c0-.6 0-1-.2-1.3s-.4-.5-.7-.6l-1.8-.2v-.2h1.5a44.4 44.4 0 0 0 4.1 0h1.5v.2a6 6 0 0 0 -1.7.2c-.4.1-.6.3-.8.6l-.2 1.4v13.8zm25-17.5-.1.2c-.9 0-1.5.2-1.9.7-.3.4-.5 1.1-.5 2.1v16h-.3l-13.7-16.7-.5-.5v13.7c0 1 .2 1.7.5 2.1.4.5 1 .7 1.8.7v.3h-5.2v-.3c.8 0 1.4-.2 1.8-.6.3-.4.4-1.2.4-2.2v-14.4c-.7-.6-1.4-.9-2.1-.9l-.1-.2h4l.3.5.7 1 11.9 14.8v-13.3c0-1-.2-1.7-.5-2.1-.3-.5-1-.7-1.8-.7v-.2h1.2a22.7 22.7 0 0 0 2.9 0zm7.1 17.6a9.4 9.4 0 0 1 -5-8.5 8.8 8.8 0 0 1 5.5-8.4 13.5 13.5 0 0 1 11 .1l.2.2.1.5.4 3.3-.2.1h-.2c-.4-1.7-1.1-3-2-3.7s-2.4-1.2-4.1-1.2-3.2.3-4.5 1a7.8 7.8 0 0 0 -3.2 3 9 9 0 0 0 -1.1 4.7c0 1.7.3 3.2 1 4.7a8.8 8.8 0 0 0 8.5 5.2c1.5 0 2.5-.3 3.1-.9s1-1.5 1-2.8c0-1-.1-1.8-.3-2.2-.1-.4-.4-.7-.9-.8-.4-.2-1.2-.2-2.4-.2l-.1-.3v-.1l.1-.1a60.1 60.1 0 0 0 6.8.3l-.2.2c-.5 0-.9 0-1.1.2-.2.1-.4.4-.4.9a21.5 21.5 0 0 0 0 5.3h-.2c-2.5.6-4.5.9-6.2.9-2.2 0-4.1-.5-5.7-1.3zm27.8-.1c.1.3.4.5.7.6l1.8.2v.3h-7l-.1-.2v-.1c.9 0 1.4 0 1.8-.2.4 0 .6-.3.8-.6l.2-1.3v-13.9c0-.6 0-1-.2-1.3s-.4-.5-.8-.6l-1.7-.2-.1-.1v-.2h1.6a44.4 44.4 0 0 0 4 0h1.5v.3c-.8 0-1.4 0-1.8.2s-.6.3-.7.6l-.2 1.4v13.8c0 .6 0 1 .2 1.3zm25-17.5v.2c-1 0-1.6.2-2 .7-.3.4-.4 1.1-.4 2.1v16h-.4l-13.6-16.7-.5-.5v13.7c0 1 .2 1.7.5 2.1.4.5 1 .7 1.8.7l.1.1v.2h-5.3v-.3c.9 0 1.5-.2 1.8-.6s.5-1.2.5-2.2v-14.4c-.7-.6-1.4-.9-2.2-.9v-.2h3.7l.3.5.8 1 11.8 14.8v-13.3c0-1-.2-1.7-.5-2.1-.3-.5-.9-.7-1.7-.7v-.2h1.1a22.7 22.7 0 0 0 3 0h1.1zm20.9 0-.1.2c-.7 0-1.3.2-1.7.5-.5.2-.8.8-1.2 1.6l-6.6 16.3-.3.1-.4-.1-7.4-16.2c-.3-.8-.7-1.4-1-1.7-.4-.3-1-.5-1.6-.5v-.2h1.3a19.4 19.4 0 0 0 3.4 0h1.2l.1.1v.2l-1.5.2c-.3.2-.4.4-.4.8 0 .2 0 .5.3.9l6.5 14.4 5.8-14.6.2-.9c0-.3-.2-.6-.6-.7s-1-.3-1.8-.3v-.1h1.2a31 31 0 0 0 3.2 0h1.3l.1.1zm5.7 17.5c.2.3.4.5.8.6l1.7.2v.3h-7v-.3c.8 0 1.4 0 1.8-.2.3 0 .6-.3.7-.6.2-.3.2-.7.2-1.3v-13.9c0-.6 0-1-.2-1.3-.1-.3-.4-.5-.7-.6l-1.8-.2v-.2h1.5a44.4 44.4 0 0 0 4.1 0h1.4v.2c-.7 0-1.3 0-1.7.2s-.6.3-.7.6l-.2 1.4v13.8c0 .6 0 1 .2 1.3zm6.6-16.2c-.5.6-1 1.6-1.1 3.2h-.4a46 46 0 0 0 .6-5.4l.2.1c0 .5.5.7 1.6.7a175.7 175.7 0 0 0 9.8 0h2c.7 0 1.3 0 1.6-.2.3 0 .6-.3.7-.6l.1-.1.2.1a52.1 52.1 0 0 0 -.5 5.5l-.1-.1c0-1-.2-1.9-.4-2.5-.2-.5-.6-1-1-1.2s-1.3-.4-2.3-.4h-2.2a1 1 0 0 0 -.8.6 3 3 0 0 0 -.3 1.4v13.8c0 .6.1 1 .3 1.4.1.2.4.4.8.5l2 .2v.3h-7.7v-.3c.9 0 1.5 0 2-.2.4 0 .7-.3.8-.6.2-.2.2-.7.2-1.3v-13.9c0-.7 0-1.1-.2-1.4-.2-.2-.5-.4-.9-.4l-2.2-.1c-1.3 0-2.2.3-2.8.9zm35.2 17.1-.1.2a39.3 39.3 0 0 1 -3.4-.1 29.4 29.4 0 0 0 -3.1.1c-.1 0-.2 0-.2-.2s0-.1.2-.1a5 5 0 0 0 1.7-.3c.4-.1.6-.4.6-.7s-.1-.7-.4-1.2l-2.8-6h-7.1l-2 4.8c-.3.7-.5 1.3-.5 1.7 0 .6.3 1 .8 1.3a5 5 0 0 0 2.2.4l.2.1-.2.2a28.7 28.7 0 0 1 -3.5-.1 30.7 30.7 0 0 0 -3.3.1l-.1-.2c0-.2 0-.1.1-.1.6 0 1-.1 1.4-.3s.8-.6 1.1-1.1c.4-.5.8-1.3 1.2-2.2l6.2-15.1.2-.1h.2l7 15c.4 1 .8 1.8 1.2 2.3.4.6.7 1 1 1.1.4.3.8.4 1.3.4zm-14.4-9h6.7l-3.5-7.4-3.2 7.6zm14.9-8.1c-.5.6-1 1.6-1.1 3.2h-.4a46 46 0 0 0 .6-5.4l.2.1c0 .5.5.7 1.6.7a175.7 175.7 0 0 0 9.8 0h2c.7 0 1.3 0 1.6-.2.3 0 .6-.3.7-.6l.1-.1.2.1a52.1 52.1 0 0 0 -.5 5.5l-.1-.1c0-1-.2-1.9-.4-2.5s-.6-1-1-1.2a5 5 0 0 0 -2.3-.4h-2.2c-.4.2-.7.3-.8.6s-.2.7-.2 1.4v13.8c0 .6 0 1 .2 1.4.1.2.4.4.8.5l2 .2v.3h-7.7v-.3c.9 0 1.5 0 2-.2.4 0 .7-.3.8-.6.2-.2.2-.7.2-1.3v-13.9c0-.7 0-1.1-.2-1.4s-.5-.4-.9-.4l-2.2-.1c-1.3 0-2.2.3-2.8.9zm22.3 16.2c.1.3.4.5.7.6l1.8.2v.3h-7v-.3c.8 0 1.3 0 1.7-.2.4 0 .6-.3.8-.6l.2-1.3v-13.9c0-.6 0-1-.2-1.3s-.4-.5-.8-.6l-1.7-.2v-.2h1.5a44.4 44.4 0 0 0 4 0h1.5v.2c-.8 0-1.4 0-1.7.2s-.7.3-.8.6l-.2 1.4v13.8c0 .6 0 1 .2 1.3zm10 .2c-1.5-.9-2.6-2-3.4-3.6s-1.2-3-1.2-4.8c0-2.1.5-3.9 1.6-5.3 1-1.5 2.4-2.6 4-3.3a12 12 0 0 1 5-1.2c1.9 0 3.6.5 5 1.4s2.5 2 3.3 3.5a9.8 9.8 0 0 1 -.3 9.7 10.7 10.7 0 0 1 -14 3.6zm9.8-.3a7 7 0 0 0 2.8-3 11.3 11.3 0 0 0 -.1-9.6 8.2 8.2 0 0 0 -7.8-4.6c-2.3 0-4.1.7-5.4 2.2s-2 3.4-2 5.8c0 1.9.4 3.6 1.1 5.2a8.9 8.9 0 0 0 3.1 3.6c1.3 1 2.8 1.4 4.5 1.4 1.4 0 2.7-.3 3.9-1zm28.2-17.4v.2c-1 0-1.5.2-2 .7-.3.4-.4 1.1-.4 2.1v16h-.4l-13.5-16.7-.6-.5v13.7c0 1 .2 1.7.6 2.1.3.5.9.7 1.7.7l.1.1v.2h-5.3v-.3c.9 0 1.5-.2 1.8-.6s.5-1.2.5-2.2v-14.4c-.7-.6-1.4-.9-2.2-.9v-.2h3.7l.3.5.7 1 11.9 14.8v-13.3c0-1-.2-1.7-.5-2.1-.3-.5-.9-.7-1.7-.7v-.2h1.1a22.7 22.7 0 0 0 3 0h1.1z" fill="#fff"/></svg>