<svg xmlns="http://www.w3.org/2000/svg" width="520" height="95.1"><path d="M188 90.7a41.5 41.5 0 0 1-14.6-11.3 47.1 47.1 0 0 1-8.4-15.3 53.7 53.7 0 0 1-2.6-16.7 48.5 48.5 0 0 1 2.7-15.7 51.4 51.4 0 0 1 3.6-8 48.4 48.4 0 0 1 5-7.4A45.4 45.4 0 0 1 210.1 0a56 56 0 0 1 19 3.1 44 44 0 0 1 15 9 40.7 40.7 0 0 1 10 14.4 49 49 0 0 1 3.7 19c0 13.4-4.7 25.9-13.2 35a45.2 45.2 0 0 1-15.3 10.7 53.3 53.3 0 0 1-41.2-.5Zm-3.4-75.9a33.4 33.4 0 0 0-7.2 12.2 52 52 0 0 0-2.6 17 58.3 58.3 0 0 0 2.9 18.9 43 43 0 0 0 8 14.3 35 35 0 0 0 27 12.3 30.7 30.7 0 0 0 29-19.7 55.3 55.3 0 0 0 3.6-21 56.8 56.8 0 0 0-3-18.8 40.2 40.2 0 0 0-8-13.7 33.8 33.8 0 0 0-11.5-8.4 33.2 33.2 0 0 0-13.5-2.8 33 33 0 0 0-24.7 9.7Zm313 78.7a457.2 457.2 0 0 0-8.3-.2l-10.4-.3-3.7.2a53.6 53.6 0 0 1-5.1.2c-.8 0-2.5 0-2.5-1.5 0-.4.3-1 1.8-1.2h.9a9 9 0 0 0 1.8-.3 3.5 3.5 0 0 0 2.7-2.2c.7-1.7 1.1-4.4 1.2-8.6.2-4.7.3-10.8.3-21.5V37c0-18.7 0-22-.3-26a8.4 8.4 0 0 0-1-4.3 5.5 5.5 0 0 0-3.7-2 12.2 12.2 0 0 0-2.2-.2l-1.3-.1a6.1 6.1 0 0 1-1.2-.3 1 1 0 0 1-.8-1c0-1.4 1.7-1.4 2.5-1.4 2.8 0 6 0 13.5.3h27.5a20.2 20.2 0 0 0 5.3-.7 3.3 3.3 0 0 1 1.5-.6c.4 0 1 .2 1 1.6a6 6 0 0 1-.2 1.4 23 23 0 0 0-.7 4.3 372.6 372.6 0 0 0-.5 7.2c-.2 1.6-.7 2.5-1.5 2.5a1.3 1.3 0 0 1-1.2-.7 2.8 2.8 0 0 1-.2-1.4 11.6 11.6 0 0 0-.6-3.8 4.4 4.4 0 0 0-2.4-2.8 16.5 16.5 0 0 0-5.8-1.3 404.7 404.7 0 0 0-16.5-.3 1.3 1.3 0 0 0-.1.7v33.8a.4.4 0 0 0 .2 0c2.7 0 16.4 0 19-.3 3.1-.2 4.6-.5 5.7-1.8l.1-.2c.6-.7 1-1.2 1.7-1.2.3 0 1.1.1 1.1 1.5a9.9 9.9 0 0 1-.2 1.4l-.8 5.3a100.7 100.7 0 0 0-.4 8.2 5 5 0 0 1-.4 1.5 1 1 0 0 1-1 .7 1.2 1.2 0 0 1-1.1-.9 4.8 4.8 0 0 1-.2-1.5 10.2 10.2 0 0 0-.5-3.2c-.3-1.3-1.3-3.1-5.8-3.6-3.2-.4-15-.6-17-.6-.4 0-.4 0-.4.3v10.6a1176.2 1176.2 0 0 1 0 20.5 17.4 17.4 0 0 0 .9 5.6A4.6 4.6 0 0 0 491 87c1.8.8 4.6 1 9.8 1a39.2 39.2 0 0 0 10.6-1 6.6 6.6 0 0 0 3.9-2.8 15.6 15.6 0 0 0 2-5.7c0-1 .3-2.2 1.5-2.2a1.1 1.1 0 0 1 1 1 5.6 5.6 0 0 1 .2 1.3 116 116 0 0 1-1.6 11.8c-.4 1.5-.9 2.5-2 3-1 .5-2.5.5-5 .5-6.5 0-10.4-.2-13.8-.3Zm-68.3 0a490.5 490.5 0 0 0-22.4-.3l-6.4.2c-.8 0-2.5 0-2.5-1.5 0-.5.4-1.2 1.5-1.2a17.8 17.8 0 0 0 3.5-.5 2.9 2.9 0 0 0 2.1-1.8 16.8 16.8 0 0 0 1-4.3c.6-5 .6-14.8.6-26V37c0-18.7 0-22-.3-26a8.4 8.4 0 0 0-1-4.3 5.5 5.5 0 0 0-3.7-2 22 22 0 0 0-4-.3 1.3 1.3 0 0 1-1.5-1.3c0-1.4 1.7-1.4 2.5-1.4l12 .3h3.8l10.7-.3c.7 0 2.4 0 2.4 1.4a1.3 1.3 0 0 1-1.5 1.3 27.7 27.7 0 0 0-3.8.3c-3 .5-4 2-4.3 6.4-.2 3.8-.2 7.2-.2 25.9v21.3c0 16.4.3 25 2.5 27.2 1.7 1.7 4.4 2.6 14 2.6a48.2 48.2 0 0 0 8.5-.5 9 9 0 0 0 5.6-3 16.2 16.2 0 0 0 3-6.9c.1-.6.3-2 1.6-2a1 1 0 0 1 1 .8 4.9 4.9 0 0 1 .2 1.5 77.2 77.2 0 0 1-1.8 12.2c-.4 1.4-.8 2.4-2 3-1 .5-3 .6-6 .6-5 0-10-.2-15.1-.4Zm-68.4-.4a81.5 81.5 0 0 0-3.5 0l-9.7.3c-.8 0-2.5 0-2.5-1.5 0-.4.3-1.2 1.9-1.2a16.2 16.2 0 0 0 3-.3c2-.4 2.7-2.7 3.2-6.3.6-5 .6-14.8.6-26V37c0-18.7 0-22-.3-26a9.8 9.8 0 0 0-1-4.3 3.8 3.8 0 0 0-2.6-1.9 15.3 15.3 0 0 0-3.7-.4A1.3 1.3 0 0 1 345 3c0-1.4 1.7-1.4 2.4-1.4a314 314 0 0 1 14.1.3l9.8-.3c.7 0 2.4 0 2.4 1.4a1.3 1.3 0 0 1-1.5 1.3 17.5 17.5 0 0 0-2.9.3 4 4 0 0 0-3 1.8 9.9 9.9 0 0 0-1 4.6c-.2 3.8-.2 7.2-.2 25.9V58c0 11.3 0 21 .6 26a10.9 10.9 0 0 0 1 4.2 4 4 0 0 0 3.2 2l4.9.4c1.8 0 2 1 2 1.2a1.3 1.3 0 0 1-.7 1.2 3.3 3.3 0 0 1-1.7.3c-5 0-10.7-.2-13.4-.3Zm-70 0h-2.3l-10.8.3c-.7 0-2.4 0-2.4-1.5 0-1 1.2-1.1 1.8-1.2a18.7 18.7 0 0 0 3-.4 3.3 3.3 0 0 0 2.4-2 16 16 0 0 0 1-5.4c.3-4.7.4-12.4.4-24.8V37c0-18.7 0-22-.2-26a8.4 8.4 0 0 0-1.1-4.3 5.5 5.5 0 0 0-3.7-2l-1.4-.1-1.5-.1a8.2 8.2 0 0 1-1.5-.3c-.8-.2-1-.7-1-1 0-1.5 1.7-1.5 2.4-1.5 2.4 0 4.8 0 7 .2l6.6.1H319l1-.1c2-.1 3.9-.2 4.6-.6a3.1 3.1 0 0 1 1.4-.6c.7 0 1.2.7 1.2 1.6a11.4 11.4 0 0 1-.4 2l-.3 1.8c-.4 2.5-.5 4.1-.6 6.1l-.2 2.6a4.5 4.5 0 0 1-.4 2 1.4 1.4 0 0 1-1.1.9 1 1 0 0 1-1-.7 4.4 4.4 0 0 1-.4-1.3c0-1.3-.4-4.3-2-5.7a10.8 10.8 0 0 0-6.8-2.2l-18.4-.3c-.3 0-.6 0-.6.8v33.1a1.2 1.2 0 0 0 0 .6h.4l16.6-.1c6.5-.1 7.8-.3 9.3-2.1 0-.2.2-.3.3-.4.4-.6.7-1 1.4-1a1 1 0 0 1 .9.5 2 2 0 0 1 .2 1 9.9 9.9 0 0 1-.3 1.4c-.2 1.2-.5 2.9-.7 5.3l-.4 6.2v2.1a7.2 7.2 0 0 1-.3 1.6 1.1 1.1 0 0 1-1.1.9 1.2 1.2 0 0 1-1.2-.9 6.8 6.8 0 0 1-.3-1.6 9.7 9.7 0 0 0-1-4.3c-1-1.6-2.8-2.6-5.4-3a301.7 301.7 0 0 0-18.3-.2V58c0 10 0 18.7.3 24.2a14.1 14.1 0 0 0 1.3 5.9 3.8 3.8 0 0 0 3.2 2 53.3 53.3 0 0 0 4.9.5c.6 0 1.9.2 1.9 1.4 0 1.3-1.8 1.3-2.5 1.3-5.1 0-10.7-.2-13.3-.3Zm-136.6.3c-6.6 0-9.7-.6-13-2.3a54.5 54.5 0 0 1-14.9-15.8l-1.5-2c-3-3.8-6-8.2-8.6-11.7-1.8-2.5-3.4-4.7-4.5-6a1.4 1.4 0 0 0-1.1-.6l-14.8-.2c-.2 0-.3 0-.3.4v2.9c0 11.3 0 21 .6 26a10.9 10.9 0 0 0 1 4.2 4 4 0 0 0 3.2 2 51.7 51.7 0 0 0 5.3.4c1.1 0 1.5.7 1.5 1.2 0 .6-.3 1.5-2.4 1.5-5 0-10.7-.2-13.4-.3h-1.9l-10.8.3c-.7 0-2.4 0-2.4-1.5 0-.5.4-1.2 1.5-1.2a17.8 17.8 0 0 0 3.5-.4 2.9 2.9 0 0 0 2-2 16.8 16.8 0 0 0 1-4.2c.7-5 .7-14.8.7-26V37c0-18.7 0-22-.3-26a8.4 8.4 0 0 0-1-4.3 5.5 5.5 0 0 0-3.7-2 22 22 0 0 0-4-.3A1.3 1.3 0 0 1 74.5 3c0-1.4 1.7-1.4 2.4-1.4 4.1 0 9.4.2 12 .3h5.6c3.3-.2 7.8-.3 10.2-.3 7.3 0 15.6.6 22.2 5.3a21 21 0 0 1 5.4 6 20.3 20.3 0 0 1 3.1 10.8 30 30 0 0 1-3.3 13.7 50.3 50.3 0 0 1-11 14l3.2 4.2A416.5 416.5 0 0 0 145.7 82c6.2 6.5 11.2 8 14.4 8.5a28.3 28.3 0 0 0 4.6.3 1.5 1.5 0 0 1 1.5 1.2 1.2 1.2 0 0 1-1 1.3 8 8 0 0 1-2.3.2ZM96.2 7.2a1 1 0 0 0-.6 1v39.2a1 1 0 0 0 .6 1 15.6 15.6 0 0 0 4.8 1.3 51.6 51.6 0 0 0 7.5.6c2.4 0 5.9-.2 8.7-2.2a15 15 0 0 0 5-6.7 29.5 29.5 0 0 0 2.1-11.4 32.7 32.7 0 0 0-1.4-10 20.8 20.8 0 0 0-4-7.3 17.2 17.2 0 0 0-6.4-4.6 21.6 21.6 0 0 0-8.4-1.6 36 36 0 0 0-8 .7Zm-79 85.9h-2.8l-10.2.3c-.7 0-2.4 0-2.4-1.5 0-.5.4-1.2 1.5-1.2a17.8 17.8 0 0 0 3.5-.4 2.9 2.9 0 0 0 2-2 16.8 16.8 0 0 0 1-4.2c.6-5 .6-14.7.6-26V37c0-18.7 0-22-.2-26a8.4 8.4 0 0 0-1.1-4.3 5.5 5.5 0 0 0-3.7-2 22 22 0 0 0-4-.3A1.3 1.3 0 0 1 0 3c0-1.4 1.7-1.4 2.4-1.4 3.8 0 8.5.2 11.3.3H21c3-.2 6.8-.3 10.1-.3 6.5 0 12 1 16.3 2.8a20.4 20.4 0 0 1 6.4 4.2 19.3 19.3 0 0 1 4 6 24.6 24.6 0 0 1 2.1 10 27.3 27.3 0 0 1-2.2 11 26 26 0 0 1-6.3 8.8 28.7 28.7 0 0 1-9.5 5.8 34.3 34.3 0 0 1-12 2 18.6 18.6 0 0 1-2.6 0c-1 0-1.7-.6-1.7-1.4 0-1.6 1.5-1.6 3.7-1.6a22.5 22.5 0 0 0 8-1.4 19 19 0 0 0 6.4-4 18.2 18.2 0 0 0 4.3-6.3 21.7 21.7 0 0 0 1.6-8.3c0-6.8-2.3-12.8-6.6-17.2a19.6 19.6 0 0 0-14.8-5.8h-1.3a14.3 14.3 0 0 0-5 .6c-.2.1-.6.3-.6 1.9V58c0 11.3 0 21 .6 26a10.9 10.9 0 0 0 1 4.2 4 4 0 0 0 3.2 2 51.7 51.7 0 0 0 5.4.4c1 0 1.4.7 1.4 1.2 0 .6-.3 1.5-2.4 1.5-5 0-10.7-.2-13.3-.3Z" fill="#444"/></svg>