<svg xmlns="http://www.w3.org/2000/svg" width="583.6" height="95.1"><path d="M458.7 93a51 51 0 0 1-21.5-10.9 41.4 41.4 0 0 1-10-14 50.3 50.3 0 0 1-4.4-20.6 54.2 54.2 0 0 1 1.6-13.4 47.4 47.4 0 0 1 4.4-11.2A42 42 0 0 1 443 7.6a45.8 45.8 0 0 1 8.4-4 53.3 53.3 0 0 1 8.3-2.3A81.6 81.6 0 0 1 475.2 0a103.7 103.7 0 0 1 18.5 2 59.5 59.5 0 0 0 9.6 1.2c1.6.2 2 1 2 1.6l-.2 2a128.5 128.5 0 0 0-.7 15 5.8 5.8 0 0 1-.3 2.2 1.3 1.3 0 0 1-1.3.9c-1 0-1.2-1.3-1.3-2.3A18 18 0 0 0 499 15c-1.5-2.4-4.9-4.7-9.1-6.3a51.7 51.7 0 0 0-18.6-3.2A49.5 49.5 0 0 0 459 6.7a34.4 34.4 0 0 0-13.2 6.5 28.8 28.8 0 0 0-8.4 11.9 43.4 43.4 0 0 0-2.4 8.4 54.2 54.2 0 0 0-1 9.8 49.8 49.8 0 0 0 1.5 11.7 50.8 50.8 0 0 0 3.3 9.6 40.4 40.4 0 0 0 7.9 11.6 43.2 43.2 0 0 0 31 12.7 47 47 0 0 0 7.3-.6 19.3 19.3 0 0 0 6.2-1.8 3.9 3.9 0 0 0 2.1-3.8V62.3c0-4.7-.1-7.5-.8-9.1-.7-1.6-2-2.2-4.2-2.8a22 22 0 0 0-4-.3 1.3 1.3 0 0 1-1.4-1.2c0-1.5 1.7-1.5 2.4-1.5l12 .3h3.6l9.7-.3c.8 0 2.5 0 2.5 1.5a1.3 1.3 0 0 1-1.5 1.2 17.5 17.5 0 0 0-3 .3 4 4 0 0 0-3 1.9 10 10 0 0 0-1 4.5c-.2 3.8-.2 7.5-.2 12.5v13.4a24.7 24.7 0 0 1-.2 5 2.6 2.6 0 0 1-1.6 2 46 46 0 0 1-13.1 4.2 71 71 0 0 1-12.6 1.2 75.1 75.1 0 0 1-18.3-2Zm-184.6-1.2c-2-1-2-1.8-2-5 0-4.9.2-9 .4-11.3l.1-1.5c.1-.8.3-2.4 1.5-2.4 1.3 0 1.3 1.2 1.3 1.9a20.6 20.6 0 0 0 .4 4.3 13.3 13.3 0 0 0 6.3 9.1 21.1 21.1 0 0 0 11 2.7c5.1 0 9.5-1.7 12.5-4.9a15.5 15.5 0 0 0 4.1-10.5 17.7 17.7 0 0 0-3-10.5c-1.9-3-5-6.2-10.6-10.7l-5.4-4.5c-6-5-10.2-9.6-12.7-14a24.4 24.4 0 0 1-3-12.4 22.5 22.5 0 0 1 1.7-9 19.7 19.7 0 0 1 5-7c4.6-4 11-6.1 18.6-6.1a47.3 47.3 0 0 1 11.2 1.2 18.9 18.9 0 0 0 4.1.6c.8 0 1.7.2 1.7 1.3v1c-.2 1.6-.5 5.4-.5 11.8a8.3 8.3 0 0 1-.2 2.2c-.2.8-.7 1-1.1 1-1.2 0-1.4-1.1-1.5-2a20.8 20.8 0 0 0-1.5-5.8 9.7 9.7 0 0 0-3.4-3.5A20.9 20.9 0 0 0 298 5.2a17 17 0 0 0-5.7 1 13.3 13.3 0 0 0-4.5 2.5 12.8 12.8 0 0 0-4 10 14.2 14.2 0 0 0 2.8 8.9c2.1 2.9 5.6 6 11.6 10.8l3.3 2.6c7 5.5 11.5 10.2 14.2 14.9a26.9 26.9 0 0 1 1.5 23.5 24 24 0 0 1-8.4 10.5 32 32 0 0 1-18.4 5.2c-6.4 0-11.7-1.1-16.3-3.3Zm-67 0c-2-1-2-1.8-2-5 0-4.9.3-9 .5-11.3V74c.2-.8.3-2.4 1.5-2.4 1.4 0 1.4 1.2 1.4 1.9a20.6 20.6 0 0 0 .3 4.3 13.3 13.3 0 0 0 6.3 9.1 21.1 21.1 0 0 0 11 2.7c5.2 0 9.5-1.7 12.5-4.9a15.5 15.5 0 0 0 4.2-10.5 17.7 17.7 0 0 0-3-10.5c-2-3-5.1-6.2-10.7-10.7l-5.4-4.5c-6-5-10.2-9.6-12.6-14a24.4 24.4 0 0 1-3.1-12.4 22.5 22.5 0 0 1 1.7-9 19.7 19.7 0 0 1 5.1-7c4.6-4 11-6.1 18.5-6.1a47.3 47.3 0 0 1 11.3 1.2 18.9 18.9 0 0 0 4 .6c.9 0 1.8.2 1.8 1.3l-.1 1c-.1 1.6-.4 5.4-.4 11.8a8.3 8.3 0 0 1-.2 2.2c-.3.8-.8 1-1.2 1-1.2 0-1.3-1.1-1.4-2a20.8 20.8 0 0 0-1.5-5.8 9.7 9.7 0 0 0-3.5-3.5 20.9 20.9 0 0 0-11-2.6 17 17 0 0 0-5.7 1 13.3 13.3 0 0 0-4.5 2.5 12.8 12.8 0 0 0-4.1 10 14.2 14.2 0 0 0 2.9 8.9c2 2.9 5.5 6 11.5 10.8l3.4 2.6c7 5.5 11.5 10.2 14.2 14.9a26.9 26.9 0 0 1 1.4 23.5A24 24 0 0 1 242 90a32 32 0 0 1-18.4 5.2c-6.5 0-11.8-1.1-16.3-3.3Zm354 1.7a458.7 458.7 0 0 0-8.2-.2l-10.4-.3-3.7.2a53.6 53.6 0 0 1-5.1.2c-.8 0-2.5 0-2.5-1.5 0-.4.3-1 1.8-1.2h.9a9 9 0 0 0 1.8-.3 3.5 3.5 0 0 0 2.7-2.2c.7-1.7 1.1-4.4 1.2-8.6.2-4.6.3-10.8.3-21.5V37c0-18.7 0-22-.3-26a8.4 8.4 0 0 0-1-4.3 5.5 5.5 0 0 0-3.7-2 12.2 12.2 0 0 0-2.2-.2l-1.3-.1a6.1 6.1 0 0 1-1.2-.3 1 1 0 0 1-.8-1c0-1.4 1.7-1.4 2.5-1.4 2.8 0 6 0 13.5.3H573a20.2 20.2 0 0 0 5.3-.7 3.3 3.3 0 0 1 1.5-.6c.4 0 1 .2 1 1.6a6 6 0 0 1-.2 1.4 22.8 22.8 0 0 0-.7 4.3 373.5 373.5 0 0 0-.5 7.2c-.2 1.6-.7 2.5-1.5 2.5a1.3 1.3 0 0 1-1.2-.7 2.8 2.8 0 0 1-.2-1.4 11.6 11.6 0 0 0-.6-3.8 4.4 4.4 0 0 0-2.4-2.8 16.5 16.5 0 0 0-5.8-1.3 404.8 404.8 0 0 0-16.5-.3 1.3 1.3 0 0 0-.1.7v33a1.5 1.5 0 0 0 0 .8.4.4 0 0 0 .2 0c2.7 0 16.4 0 19-.3 3.1-.2 4.6-.5 5.7-1.8l.1-.2c.6-.7 1-1.2 1.7-1.2.3 0 1.1.1 1.1 1.5a10 10 0 0 1-.2 1.4l-.8 5.3-.3 6.1-.1 2c-.1.8-.3 2.3-1.4 2.3a1.2 1.2 0 0 1-1.1-.9 4.8 4.8 0 0 1-.2-1.5 10.2 10.2 0 0 0-.5-3.2c-.3-1.3-1.3-3.1-5.8-3.6-3.2-.4-15-.6-17-.6-.4 0-.4 0-.4.3V78.6a17.4 17.4 0 0 0 .9 5.6 4.6 4.6 0 0 0 2.7 2.7c1.8.8 4.7 1 9.8 1a39.2 39.2 0 0 0 10.6-1 6.6 6.6 0 0 0 3.9-2.7 15.7 15.7 0 0 0 2-5.8c0-1 .3-2.2 1.5-2.2a1.1 1.1 0 0 1 1 1 5.6 5.6 0 0 1 .2 1.3 116 116 0 0 1-1.6 11.8c-.4 1.5-.9 2.5-2 3-1 .5-2.5.5-5 .5-6.5 0-10.4-.2-13.8-.3Zm-398.5 0a458.7 458.7 0 0 0-8.3-.2L144 93l-3.7.2a53.6 53.6 0 0 1-5.2.2c-.7 0-2.4 0-2.4-1.5 0-.4.3-1 1.8-1.2h.8a9 9 0 0 0 1.9-.3 3.5 3.5 0 0 0 2.7-2.2c.7-1.7 1.1-4.4 1.2-8.6.1-4.7.3-10.8.3-21.5V37c0-18.7 0-22-.3-26a8.4 8.4 0 0 0-1-4.3 5.5 5.5 0 0 0-3.7-2 12.2 12.2 0 0 0-2.2-.2l-1.3-.1a6.1 6.1 0 0 1-1.2-.3 1 1 0 0 1-.8-1c0-1.4 1.7-1.4 2.4-1.4 2.9 0 6 0 13.6.3h27.5a20.1 20.1 0 0 0 5.3-.7 3.3 3.3 0 0 1 1.5-.6c.4 0 1 .2 1 1.6a6 6 0 0 1-.3 1.4 22.8 22.8 0 0 0-.7 4.3 373.5 373.5 0 0 0-.4 7.2c-.2 1.6-.7 2.5-1.5 2.5a1.3 1.3 0 0 1-1.2-.7 2.8 2.8 0 0 1-.3-1.4 11.6 11.6 0 0 0-.5-3.8 4.4 4.4 0 0 0-2.4-2.8 16.5 16.5 0 0 0-5.8-1.3 404.8 404.8 0 0 0-16.5-.3 1.3 1.3 0 0 0-.2.7v33a1.5 1.5 0 0 0 .1.8.4.4 0 0 0 .2 0c2.7 0 16.4 0 19-.3 3-.2 4.6-.5 5.7-1.8v-.2c.7-.7 1.1-1.2 1.8-1.2.3 0 1 .1 1 1.5a10 10 0 0 1-.1 1.4l-.8 5.3-.4 6.1v2a5 5 0 0 1-.4 1.6 1 1 0 0 1-1 .7 1.2 1.2 0 0 1-1.2-1 4.7 4.7 0 0 1-.1-1.4 10.2 10.2 0 0 0-.5-3.2c-.3-1.3-1.3-3.1-5.8-3.6-3.2-.4-15-.6-17.1-.6-.3 0-.3 0-.3.3V78.6a17.4 17.4 0 0 0 .9 5.6A4.6 4.6 0 0 0 156 87c1.8.8 4.6 1 9.8 1a39.2 39.2 0 0 0 10.6-1 6.6 6.6 0 0 0 3.9-2.7 15.7 15.7 0 0 0 1.9-5.8c.2-1 .4-2.2 1.6-2.2a1.1 1.1 0 0 1 1 1 5.6 5.6 0 0 1 .2 1.3 116 116 0 0 1-1.6 11.8c-.4 1.5-.9 2.5-2 3s-2.6.5-5 .5c-6.5 0-10.4-.2-13.9-.3Zm236-.3h-.6a17.2 17.2 0 0 1-2.4-.3c-.8-.1-1.2-.5-1.2-1s.2-1.1 1.2-1.4a1 1 0 0 0 .5-.5 2.8 2.8 0 0 0 0-2l-11.2-29.6c-.2-.3-.3-.4-.6-.4h-25.8c-.3 0-.5 0-.8.6L350.5 80a24.7 24.7 0 0 0-1.6 7.8c0 2.1 2 3 3.8 3h1c.7 0 2.1 0 2.1 1.2 0 .5-.2 1.5-2.6 1.5l-6.1-.2-3-.2-2.7.1c-2.8.1-7 .3-10.8.3-.9 0-2.8 0-2.8-1.5a1 1 0 0 1 .8-1 3.8 3.8 0 0 1 1.4-.2 25.1 25.1 0 0 0 2.8-.2 8.6 8.6 0 0 0 6-3.5 27.4 27.4 0 0 0 3.7-7.5L369.8 5a27.3 27.3 0 0 1 1.6-3.9 1.8 1.8 0 0 1 1.5-1.1 1.7 1.7 0 0 1 1.4 1 23.2 23.2 0 0 1 1.7 3.6l5 13.2c6.6 17.3 17.7 46.2 23 59.2 1.8 4.7 3.7 8.1 5.7 10.2a8.6 8.6 0 0 0 4.2 2.8 15.4 15.4 0 0 0 4.6.7 2.8 2.8 0 0 1 1 .2 1 1 0 0 1 .8 1c0 .4-.2 1-1 1.3a5.9 5.9 0 0 1-2 .2c-6.7 0-13.4 0-18.8-.2ZM370.4 20l-10.6 32.4a1 1 0 0 0 0 .2h22.8a1.7 1.7 0 0 0 0-.2L371.3 20a3.5 3.5 0 0 0-.4-1 3.5 3.5 0 0 0-.4 1ZM97.8 92.7a11 11 0 0 1-2.9-.5 1.3 1.3 0 0 1-1-1.2c0-.9.6-1.1 1.2-1.3.2-.1.3-.5.3-1a17.5 17.5 0 0 0-.1-2.8L89.7 25l-29 61.4-.8 1.8a39 39 0 0 1-2 3.7 2 2 0 0 1-1.6 1.2c-.7 0-1.2-.5-1.7-1.3l-2.2-4-.3-.5-13.6-27-.4-.9c-1-2-12.2-26-15.4-33.2l-4.8 54.5v.6l-.2 5a4.1 4.1 0 0 0 .8 2.8 3.5 3.5 0 0 0 2 1 17.5 17.5 0 0 0 4.2.5c1.3 0 1.7.6 1.7 1.1a1.4 1.4 0 0 1-.7 1.3 3.3 3.3 0 0 1-1.6.3l-9.2-.3h-5c-2.2.2-5.3.3-7.4.3a5 5 0 0 1-1.6-.2 1.3 1.3 0 0 1-.9-1.3c0-.7.7-1.2 1.7-1.2a15 15 0 0 0 3.5-.3c3.3-.6 3.8-4.2 4.3-8.6l.1-1 8.6-78c.2-1.7.9-2.8 1.9-2.8 1 0 1.6.8 2.2 2l36.3 74.6L93.4 2.2c.5-1.1 1-2.2 2.3-2.2A1.5 1.5 0 0 1 97 1a9.5 9.5 0 0 1 .5 2.7l8 73.7a30.6 30.6 0 0 0 1.5 7.2c1 2.7 2.5 4.4 4.7 5a23.7 23.7 0 0 0 7.3 1.1c1.6 0 1.8.9 1.8 1.2 0 1.4-1.2 1.5-2.3 1.5-2.6 0-16.3-.4-20.8-.7Z" fill="#444"/></svg>